G04 %TF.GenerationSoftware,KiCad,Pcbnew,(6.0.9)@% jlc*
G04 %TF.CreationDate,2023-02-21T16:03:54-05:00@% jlc*
G04 %TF.ProjectId,CMRI_SMD_72IN_Nano_v1,434d5249-5f53-44d4-945f-3732494e5f4e,rev?@% jlc*
G04 %TF.SameCoordinates,Original@% jlc*
G04 %TF.FileFunction,Legend,Bot@% jlc*
G04 %TF.FilePolarity,Positive@% jlc*
%FSLAX46Y46*%
G04 Gerber Fmt 4.6, Leading zero omitted, Abs format (unit mm)*
G04 Created by KiCad (PCBNEW (6.0.9)) date 2023-02-21 16:03:54*
%MOMM*%
%LPD*%
G01*
G04 APERTURE LIST*
%ADD10C,0.266700*%
G04 APERTURE END LIST*
D10*
X153872157Y-98779066D02*
X153944123Y-98707100D01*
X154016090Y-98491200D01*
X154016090Y-98347266D01*
X153944123Y-98131366D01*
X153800190Y-97987433D01*
X153656257Y-97915466D01*
X153368390Y-97843500D01*
X153152490Y-97843500D01*
X152864623Y-97915466D01*
X152720690Y-97987433D01*
X152576757Y-98131366D01*
X152504790Y-98347266D01*
X152504790Y-98491200D01*
X152576757Y-98707100D01*
X152648723Y-98779066D01*
X154016090Y-99426766D02*
X152504790Y-99426766D01*
X153584290Y-99930533D01*
X152504790Y-100434300D01*
X154016090Y-100434300D01*
X154016090Y-102017566D02*
X153296423Y-101513800D01*
X154016090Y-101153966D02*
X152504790Y-101153966D01*
X152504790Y-101729700D01*
X152576757Y-101873633D01*
X152648723Y-101945600D01*
X152792657Y-102017566D01*
X153008557Y-102017566D01*
X153152490Y-101945600D01*
X153224457Y-101873633D01*
X153296423Y-101729700D01*
X153296423Y-101153966D01*
X154016090Y-102665266D02*
X152504790Y-102665266D01*
X154160023Y-103025100D02*
X154160023Y-104176566D01*
X153944123Y-104464433D02*
X154016090Y-104680333D01*
X154016090Y-105040166D01*
X153944123Y-105184100D01*
X153872157Y-105256066D01*
X153728223Y-105328033D01*
X153584290Y-105328033D01*
X153440357Y-105256066D01*
X153368390Y-105184100D01*
X153296423Y-105040166D01*
X153224457Y-104752300D01*
X153152490Y-104608366D01*
X153080523Y-104536400D01*
X152936590Y-104464433D01*
X152792657Y-104464433D01*
X152648723Y-104536400D01*
X152576757Y-104608366D01*
X152504790Y-104752300D01*
X152504790Y-105112133D01*
X152576757Y-105328033D01*
X154016090Y-105975733D02*
X152504790Y-105975733D01*
X153584290Y-106479500D01*
X152504790Y-106983266D01*
X154016090Y-106983266D01*
X154016090Y-107702933D02*
X152504790Y-107702933D01*
X152504790Y-108062766D01*
X152576757Y-108278666D01*
X152720690Y-108422600D01*
X152864623Y-108494566D01*
X153152490Y-108566533D01*
X153368390Y-108566533D01*
X153656257Y-108494566D01*
X153800190Y-108422600D01*
X153944123Y-108278666D01*
X154016090Y-108062766D01*
X154016090Y-107702933D01*
X154160023Y-108854400D02*
X154160023Y-110005866D01*
X152504790Y-110221766D02*
X152504790Y-111229300D01*
X154016090Y-110581600D01*
X152648723Y-111733066D02*
X152576757Y-111805033D01*
X152504790Y-111948966D01*
X152504790Y-112308800D01*
X152576757Y-112452733D01*
X152648723Y-112524700D01*
X152792657Y-112596666D01*
X152936590Y-112596666D01*
X153152490Y-112524700D01*
X154016090Y-111661100D01*
X154016090Y-112596666D01*
X154016090Y-113244366D02*
X152504790Y-113244366D01*
X154016090Y-113964033D02*
X152504790Y-113964033D01*
X154016090Y-114827633D01*
X152504790Y-114827633D01*
X154160023Y-115187466D02*
X154160023Y-116338933D01*
X154016090Y-116698766D02*
X152504790Y-116698766D01*
X154016090Y-117562366D01*
X152504790Y-117562366D01*
X154016090Y-118929733D02*
X153224457Y-118929733D01*
X153080523Y-118857766D01*
X153008557Y-118713833D01*
X153008557Y-118425966D01*
X153080523Y-118282033D01*
X153944123Y-118929733D02*
X154016090Y-118785800D01*
X154016090Y-118425966D01*
X153944123Y-118282033D01*
X153800190Y-118210066D01*
X153656257Y-118210066D01*
X153512323Y-118282033D01*
X153440357Y-118425966D01*
X153440357Y-118785800D01*
X153368390Y-118929733D01*
X153008557Y-119649400D02*
X154016090Y-119649400D01*
X153152490Y-119649400D02*
X153080523Y-119721366D01*
X153008557Y-119865300D01*
X153008557Y-120081200D01*
X153080523Y-120225133D01*
X153224457Y-120297100D01*
X154016090Y-120297100D01*
X154016090Y-121232666D02*
X153944123Y-121088733D01*
X153872157Y-121016766D01*
X153728223Y-120944800D01*
X153296423Y-120944800D01*
X153152490Y-121016766D01*
X153080523Y-121088733D01*
X153008557Y-121232666D01*
X153008557Y-121448566D01*
X153080523Y-121592500D01*
X153152490Y-121664466D01*
X153296423Y-121736433D01*
X153728223Y-121736433D01*
X153872157Y-121664466D01*
X153944123Y-121592500D01*
X154016090Y-121448566D01*
X154016090Y-121232666D01*
X154160023Y-122024300D02*
X154160023Y-123175766D01*
X153008557Y-123391666D02*
X154016090Y-123751500D01*
X153008557Y-124111333D01*
X154016090Y-125478700D02*
X154016090Y-124615100D01*
X154016090Y-125046900D02*
X152504790Y-125046900D01*
X152720690Y-124902966D01*
X152864623Y-124759033D01*
X152936590Y-124615100D01*
X156449283Y-95792450D02*
X154937983Y-95792450D01*
X156449283Y-96440150D02*
X155657650Y-96440150D01*
X155513716Y-96368183D01*
X155441750Y-96224250D01*
X155441750Y-96008350D01*
X155513716Y-95864416D01*
X155585683Y-95792450D01*
X155441750Y-96943916D02*
X155441750Y-97519650D01*
X154937983Y-97159816D02*
X156233383Y-97159816D01*
X156377316Y-97231783D01*
X156449283Y-97375716D01*
X156449283Y-97519650D01*
X155441750Y-97807516D02*
X155441750Y-98383250D01*
X154937983Y-98023416D02*
X156233383Y-98023416D01*
X156377316Y-98095383D01*
X156449283Y-98239316D01*
X156449283Y-98383250D01*
X155441750Y-98887016D02*
X156953050Y-98887016D01*
X155513716Y-98887016D02*
X155441750Y-99030950D01*
X155441750Y-99318816D01*
X155513716Y-99462750D01*
X155585683Y-99534716D01*
X155729616Y-99606683D01*
X156161416Y-99606683D01*
X156305350Y-99534716D01*
X156377316Y-99462750D01*
X156449283Y-99318816D01*
X156449283Y-99030950D01*
X156377316Y-98887016D01*
X156377316Y-100182416D02*
X156449283Y-100326350D01*
X156449283Y-100614216D01*
X156377316Y-100758150D01*
X156233383Y-100830116D01*
X156161416Y-100830116D01*
X156017483Y-100758150D01*
X155945516Y-100614216D01*
X155945516Y-100398316D01*
X155873550Y-100254383D01*
X155729616Y-100182416D01*
X155657650Y-100182416D01*
X155513716Y-100254383D01*
X155441750Y-100398316D01*
X155441750Y-100614216D01*
X155513716Y-100758150D01*
X156305350Y-101477816D02*
X156377316Y-101549783D01*
X156449283Y-101477816D01*
X156377316Y-101405850D01*
X156305350Y-101477816D01*
X156449283Y-101477816D01*
X155513716Y-101477816D02*
X155585683Y-101549783D01*
X155657650Y-101477816D01*
X155585683Y-101405850D01*
X155513716Y-101477816D01*
X155657650Y-101477816D01*
X154866016Y-103276983D02*
X156809116Y-101981583D01*
X154866016Y-104860250D02*
X156809116Y-103564850D01*
X155441750Y-105148116D02*
X155441750Y-105723850D01*
X154937983Y-105364016D02*
X156233383Y-105364016D01*
X156377316Y-105435983D01*
X156449283Y-105579916D01*
X156449283Y-105723850D01*
X156449283Y-106227616D02*
X155441750Y-106227616D01*
X154937983Y-106227616D02*
X155009950Y-106155650D01*
X155081916Y-106227616D01*
X155009950Y-106299583D01*
X154937983Y-106227616D01*
X155081916Y-106227616D01*
X155441750Y-106947283D02*
X156449283Y-106947283D01*
X155585683Y-106947283D02*
X155513716Y-107019250D01*
X155441750Y-107163183D01*
X155441750Y-107379083D01*
X155513716Y-107523016D01*
X155657650Y-107594983D01*
X156449283Y-107594983D01*
X155441750Y-108170716D02*
X156449283Y-108530550D01*
X155441750Y-108890383D02*
X156449283Y-108530550D01*
X156809116Y-108386616D01*
X156881083Y-108314650D01*
X156953050Y-108170716D01*
X155441750Y-110113816D02*
X156449283Y-110113816D01*
X155441750Y-109466116D02*
X156233383Y-109466116D01*
X156377316Y-109538083D01*
X156449283Y-109682016D01*
X156449283Y-109897916D01*
X156377316Y-110041850D01*
X156305350Y-110113816D01*
X156449283Y-110833483D02*
X155441750Y-110833483D01*
X155729616Y-110833483D02*
X155585683Y-110905450D01*
X155513716Y-110977416D01*
X155441750Y-111121350D01*
X155441750Y-111265283D01*
X156449283Y-111984950D02*
X156377316Y-111841016D01*
X156233383Y-111769050D01*
X154937983Y-111769050D01*
X156305350Y-112560683D02*
X156377316Y-112632650D01*
X156449283Y-112560683D01*
X156377316Y-112488716D01*
X156305350Y-112560683D01*
X156449283Y-112560683D01*
X156377316Y-113928050D02*
X156449283Y-113784116D01*
X156449283Y-113496250D01*
X156377316Y-113352316D01*
X156305350Y-113280350D01*
X156161416Y-113208383D01*
X155729616Y-113208383D01*
X155585683Y-113280350D01*
X155513716Y-113352316D01*
X155441750Y-113496250D01*
X155441750Y-113784116D01*
X155513716Y-113928050D01*
X156449283Y-114791650D02*
X156377316Y-114647716D01*
X156305350Y-114575750D01*
X156161416Y-114503783D01*
X155729616Y-114503783D01*
X155585683Y-114575750D01*
X155513716Y-114647716D01*
X155441750Y-114791650D01*
X155441750Y-115007550D01*
X155513716Y-115151483D01*
X155585683Y-115223450D01*
X155729616Y-115295416D01*
X156161416Y-115295416D01*
X156305350Y-115223450D01*
X156377316Y-115151483D01*
X156449283Y-115007550D01*
X156449283Y-114791650D01*
X156449283Y-115943116D02*
X155441750Y-115943116D01*
X155585683Y-115943116D02*
X155513716Y-116015083D01*
X155441750Y-116159016D01*
X155441750Y-116374916D01*
X155513716Y-116518850D01*
X155657650Y-116590816D01*
X156449283Y-116590816D01*
X155657650Y-116590816D02*
X155513716Y-116662783D01*
X155441750Y-116806716D01*
X155441750Y-117022616D01*
X155513716Y-117166550D01*
X155657650Y-117238516D01*
X156449283Y-117238516D01*
X154866016Y-119037683D02*
X156809116Y-117742283D01*
X155441750Y-119397516D02*
X156449283Y-119757350D01*
X155441750Y-120117183D01*
X156377316Y-120620950D02*
X156449283Y-120764883D01*
X156449283Y-121052750D01*
X156377316Y-121196683D01*
X156233383Y-121268650D01*
X156161416Y-121268650D01*
X156017483Y-121196683D01*
X155945516Y-121052750D01*
X155945516Y-120836850D01*
X155873550Y-120692916D01*
X155729616Y-120620950D01*
X155657650Y-120620950D01*
X155513716Y-120692916D01*
X155441750Y-120836850D01*
X155441750Y-121052750D01*
X155513716Y-121196683D01*
X155441750Y-121772416D02*
X156449283Y-122132250D01*
X155441750Y-122492083D02*
X156449283Y-122132250D01*
X156809116Y-121988316D01*
X156881083Y-121916350D01*
X156953050Y-121772416D01*
X155441750Y-123715516D02*
X156449283Y-123715516D01*
X154866016Y-123355683D02*
X155945516Y-122995850D01*
X155945516Y-123931416D01*
X155441750Y-124507150D02*
X156737150Y-124507150D01*
X156881083Y-124435183D01*
X156953050Y-124291250D01*
X156953050Y-124219283D01*
X154937983Y-124507150D02*
X155009950Y-124435183D01*
X155081916Y-124507150D01*
X155009950Y-124579116D01*
X154937983Y-124507150D01*
X155081916Y-124507150D01*
X155441750Y-125082883D02*
X156449283Y-125370750D01*
X155729616Y-125658616D01*
X156449283Y-125946483D01*
X155441750Y-126234350D01*
X154937983Y-126666150D02*
X154937983Y-127601716D01*
X155513716Y-127097950D01*
X155513716Y-127313850D01*
X155585683Y-127457783D01*
X155657650Y-127529750D01*
X155801583Y-127601716D01*
X156161416Y-127601716D01*
X156305350Y-127529750D01*
X156377316Y-127457783D01*
X156449283Y-127313850D01*
X156449283Y-126882050D01*
X156377316Y-126738116D01*
X156305350Y-126666150D01*
X158882476Y-97303750D02*
X158882476Y-96440150D01*
X158882476Y-96871950D02*
X157371176Y-96871950D01*
X157587076Y-96728016D01*
X157731009Y-96584083D01*
X157802976Y-96440150D01*
X157371176Y-97807516D02*
X157371176Y-98743083D01*
X157946909Y-98239316D01*
X157946909Y-98455216D01*
X158018876Y-98599149D01*
X158090843Y-98671116D01*
X158234776Y-98743083D01*
X158594609Y-98743083D01*
X158738543Y-98671116D01*
X158810509Y-98599149D01*
X158882476Y-98455216D01*
X158882476Y-98023416D01*
X158810509Y-97879483D01*
X158738543Y-97807516D01*
X157299209Y-100470283D02*
X159242309Y-99174883D01*
X157371176Y-101261916D02*
X157371176Y-101405849D01*
X157443143Y-101549783D01*
X157515109Y-101621749D01*
X157659043Y-101693716D01*
X157946909Y-101765683D01*
X158306743Y-101765683D01*
X158594609Y-101693716D01*
X158738543Y-101621749D01*
X158810509Y-101549783D01*
X158882476Y-101405849D01*
X158882476Y-101261916D01*
X158810509Y-101117983D01*
X158738543Y-101046016D01*
X158594609Y-100974049D01*
X158306743Y-100902083D01*
X157946909Y-100902083D01*
X157659043Y-100974049D01*
X157515109Y-101046016D01*
X157443143Y-101117983D01*
X157371176Y-101261916D01*
X157515109Y-102341416D02*
X157443143Y-102413383D01*
X157371176Y-102557316D01*
X157371176Y-102917149D01*
X157443143Y-103061083D01*
X157515109Y-103133049D01*
X157659043Y-103205016D01*
X157802976Y-103205016D01*
X158018876Y-103133049D01*
X158882476Y-102269449D01*
X158882476Y-103205016D01*
X157299209Y-104932216D02*
X159242309Y-103636816D01*
X157515109Y-105364016D02*
X157443143Y-105435983D01*
X157371176Y-105579916D01*
X157371176Y-105939749D01*
X157443143Y-106083683D01*
X157515109Y-106155649D01*
X157659043Y-106227616D01*
X157802976Y-106227616D01*
X158018876Y-106155649D01*
X158882476Y-105292049D01*
X158882476Y-106227616D01*
X157371176Y-107163183D02*
X157371176Y-107307116D01*
X157443143Y-107451049D01*
X157515109Y-107523016D01*
X157659043Y-107594983D01*
X157946909Y-107666949D01*
X158306743Y-107666949D01*
X158594609Y-107594983D01*
X158738543Y-107523016D01*
X158810509Y-107451049D01*
X158882476Y-107307116D01*
X158882476Y-107163183D01*
X158810509Y-107019249D01*
X158738543Y-106947283D01*
X158594609Y-106875316D01*
X158306743Y-106803349D01*
X157946909Y-106803349D01*
X157659043Y-106875316D01*
X157515109Y-106947283D01*
X157443143Y-107019249D01*
X157371176Y-107163183D01*
X157515109Y-108242683D02*
X157443143Y-108314649D01*
X157371176Y-108458583D01*
X157371176Y-108818416D01*
X157443143Y-108962349D01*
X157515109Y-109034316D01*
X157659043Y-109106283D01*
X157802976Y-109106283D01*
X158018876Y-109034316D01*
X158882476Y-108170716D01*
X158882476Y-109106283D01*
X157371176Y-109610049D02*
X157371176Y-110545616D01*
X157946909Y-110041849D01*
X157946909Y-110257749D01*
X158018876Y-110401683D01*
X158090843Y-110473649D01*
X158234776Y-110545616D01*
X158594609Y-110545616D01*
X158738543Y-110473649D01*
X158810509Y-110401683D01*
X158882476Y-110257749D01*
X158882476Y-109825949D01*
X158810509Y-109682016D01*
X158738543Y-109610049D01*
X158090843Y-113496249D02*
X158090843Y-114000016D01*
X158882476Y-114215916D02*
X158882476Y-113496249D01*
X157371176Y-113496249D01*
X157371176Y-114215916D01*
X158882476Y-114863616D02*
X157874943Y-114863616D01*
X158162809Y-114863616D02*
X158018876Y-114935583D01*
X157946909Y-115007549D01*
X157874943Y-115151483D01*
X157874943Y-115295416D01*
X158882476Y-115799183D02*
X157874943Y-115799183D01*
X157371176Y-115799183D02*
X157443143Y-115727216D01*
X157515109Y-115799183D01*
X157443143Y-115871149D01*
X157371176Y-115799183D01*
X157515109Y-115799183D01*
X158882476Y-116518849D02*
X157371176Y-116518849D01*
X158306743Y-116662783D02*
X158882476Y-117094583D01*
X157874943Y-117094583D02*
X158450676Y-116518849D01*
X158450676Y-118821783D02*
X158450676Y-119541449D01*
X158882476Y-118677849D02*
X157371176Y-119181616D01*
X158882476Y-119685383D01*
X158882476Y-120189149D02*
X157874943Y-120189149D01*
X158162809Y-120189149D02*
X158018876Y-120261116D01*
X157946909Y-120333083D01*
X157874943Y-120477016D01*
X157874943Y-120620949D01*
X158810509Y-121772416D02*
X158882476Y-121628483D01*
X158882476Y-121340616D01*
X158810509Y-121196683D01*
X158738543Y-121124716D01*
X158594609Y-121052749D01*
X158162809Y-121052749D01*
X158018876Y-121124716D01*
X157946909Y-121196683D01*
X157874943Y-121340616D01*
X157874943Y-121628483D01*
X157946909Y-121772416D01*
X158882476Y-122420116D02*
X157371176Y-122420116D01*
X158306743Y-122564049D02*
X158882476Y-122995849D01*
X157874943Y-122995849D02*
X158450676Y-122420116D01*
X158810509Y-124219283D02*
X158882476Y-124075349D01*
X158882476Y-123787483D01*
X158810509Y-123643549D01*
X158666576Y-123571583D01*
X158090843Y-123571583D01*
X157946909Y-123643549D01*
X157874943Y-123787483D01*
X157874943Y-124075349D01*
X157946909Y-124219283D01*
X158090843Y-124291249D01*
X158234776Y-124291249D01*
X158378709Y-123571583D01*
X157874943Y-124938949D02*
X158882476Y-124938949D01*
X158018876Y-124938949D02*
X157946909Y-125010916D01*
X157874943Y-125154849D01*
X157874943Y-125370749D01*
X157946909Y-125514683D01*
X158090843Y-125586649D01*
X158882476Y-125586649D01*
X158810509Y-126234349D02*
X158882476Y-126378283D01*
X158882476Y-126666149D01*
X158810509Y-126810083D01*
X158666576Y-126882049D01*
X158594609Y-126882049D01*
X158450676Y-126810083D01*
X158378709Y-126666149D01*
X158378709Y-126450249D01*
X158306743Y-126306316D01*
X158162809Y-126234349D01*
X158090843Y-126234349D01*
X157946909Y-126306316D01*
X157874943Y-126450249D01*
X157874943Y-126666149D01*
X157946909Y-126810083D01*
M02*
