G04 %TF.GenerationSoftware,KiCad,Pcbnew,(6.0.9)@% jlc*
G04 %TF.CreationDate,2023-02-21T16:03:54-05:00@% jlc*
G04 %TF.ProjectId,CMRI_SMD_72IN_Nano_v1,434d5249-5f53-44d4-945f-3732494e5f4e,rev?@% jlc*
G04 %TF.SameCoordinates,Original@% jlc*
G04 %TF.FileFunction,Soldermask,Bot@% jlc*
G04 %TF.FilePolarity,Negative@% jlc*
%FSLAX46Y46*%
G04 Gerber Fmt 4.6, Leading zero omitted, Abs format (unit mm)*
G04 Created by KiCad (PCBNEW (6.0.9)) date 2023-02-21 16:03:54*
%MOMM*%
%LPD*%
G01*
G04 APERTURE LIST*
G04 Aperture macros list*
%AMRoundRect*
0 Rectangle with rounded corners*
0 $1 Rounding radius*
0 $2 $3 $4 $5 $6 $7 $8 $9 X,Y pos of 4 corners*
0 Add a 4 corners polygon primitive as box body*
4,1,4,$2,$3,$4,$5,$6,$7,$8,$9,$2,$3,0*
0 Add four circle primitives for the rounded corners*
1,1,$1+$1,$2,$3*
1,1,$1+$1,$4,$5*
1,1,$1+$1,$6,$7*
1,1,$1+$1,$8,$9*
0 Add four rect primitives between the rounded corners*
20,1,$1+$1,$2,$3,$4,$5,0*
20,1,$1+$1,$4,$5,$6,$7,0*
20,1,$1+$1,$6,$7,$8,$9,0*
20,1,$1+$1,$8,$9,$2,$3,0*%
G04 Aperture macros list end*
%ADD10C,4.100000*%
%ADD11C,1.611200*%
%ADD12C,1.993900*%
%ADD13C,1.853200*%
%ADD14RoundRect,0.101600X0.654000X-0.654000X0.654000X0.654000X-0.654000X0.654000X-0.654000X-0.654000X0*%
%ADD15C,1.511200*%
G04 APERTURE END LIST*
D10*
G04 %TO.C,@% jlc*
X195580000Y-73660000D03*
G04 %TD@% jlc*
G04 %TO.C,@% jlc*
X101600000Y-152400000D03*
G04 %TD@% jlc*
G04 %TO.C,@% jlc*
X195580000Y-152400000D03*
G04 %TD@% jlc*
G04 %TO.C,@% jlc*
X101600000Y-58420000D03*
G04 %TD@% jlc*
D11*
G04 %TO.C,X31@% jlc*
X142430600Y-145316100D03*
X145986600Y-145316100D03*
G04 %TD@% jlc*
G04 %TO.C,X32@% jlc*
X135445600Y-145316100D03*
X139001600Y-145316100D03*
G04 %TD@% jlc*
G04 %TO.C,X21@% jlc*
X188785600Y-109121100D03*
X188785600Y-105565100D03*
G04 %TD@% jlc*
D10*
G04 %TO.C,H2@% jlc*
X139255600Y-122456100D03*
G04 %TD@% jlc*
D11*
G04 %TO.C,X15@% jlc*
X152590600Y-64036100D03*
X149034600Y-64036100D03*
G04 %TD@% jlc*
G04 %TO.C,X40@% jlc*
X174815600Y-67846100D03*
X171259600Y-67846100D03*
G04 %TD@% jlc*
G04 %TO.C,X29@% jlc*
X156400600Y-145316100D03*
X159956600Y-145316100D03*
G04 %TD@% jlc*
G04 %TO.C,X4@% jlc*
X107505600Y-107216100D03*
X107505600Y-110772100D03*
G04 %TD@% jlc*
D10*
G04 %TO.C,H1@% jlc*
X139255600Y-85626100D03*
G04 %TD@% jlc*
D11*
G04 %TO.C,X20@% jlc*
X188785600Y-102136100D03*
X188785600Y-98580100D03*
G04 %TD@% jlc*
G04 %TO.C,X19@% jlc*
X188785600Y-95151100D03*
X188785600Y-91595100D03*
G04 %TD@% jlc*
G04 %TO.C,X24@% jlc*
X188785600Y-130076100D03*
X188785600Y-126520100D03*
G04 %TD@% jlc*
G04 %TO.C,X9@% jlc*
X110680600Y-64036100D03*
X107124600Y-64036100D03*
G04 %TD@% jlc*
D12*
G04 %TO.C,X37@% jlc*
X195135600Y-65941100D03*
X190055600Y-65941100D03*
G04 %TD@% jlc*
D11*
G04 %TO.C,X12@% jlc*
X131635600Y-64036100D03*
X128079600Y-64036100D03*
G04 %TD@% jlc*
G04 %TO.C,X28@% jlc*
X163385600Y-145316100D03*
X166941600Y-145316100D03*
G04 %TD@% jlc*
G04 %TO.C,X14@% jlc*
X145605600Y-64036100D03*
X142049600Y-64036100D03*
G04 %TD@% jlc*
G04 %TO.C,X10@% jlc*
X117665600Y-64036100D03*
X114109600Y-64036100D03*
G04 %TD@% jlc*
G04 %TO.C,X36@% jlc*
X107505600Y-145316100D03*
X111061600Y-145316100D03*
G04 %TD@% jlc*
G04 %TO.C,X7@% jlc*
X107505600Y-86261100D03*
X107505600Y-89817100D03*
G04 %TD@% jlc*
D12*
G04 %TO.C,X38@% jlc*
X184975600Y-65941100D03*
X179895600Y-65941100D03*
G04 %TD@% jlc*
D11*
G04 %TO.C,X35@% jlc*
X114490600Y-145316100D03*
X118046600Y-145316100D03*
G04 %TD@% jlc*
G04 %TO.C,X34@% jlc*
X121475600Y-145316100D03*
X125031600Y-145316100D03*
G04 %TD@% jlc*
G04 %TO.C,X6@% jlc*
X107505600Y-93246100D03*
X107505600Y-96802100D03*
G04 %TD@% jlc*
D13*
G04 %TO.C,U$2@% jlc*
X195135600Y-142776100D03*
X195135600Y-147856100D03*
G04 %TD@% jlc*
D11*
G04 %TO.C,X23@% jlc*
X188785600Y-123091100D03*
X188785600Y-119535100D03*
G04 %TD@% jlc*
G04 %TO.C,X22@% jlc*
X188785600Y-116106100D03*
X188785600Y-112550100D03*
G04 %TD@% jlc*
G04 %TO.C,X27@% jlc*
X170370600Y-145316100D03*
X173926600Y-145316100D03*
G04 %TD@% jlc*
G04 %TO.C,X8@% jlc*
X107505600Y-79276100D03*
X107505600Y-82832100D03*
G04 %TD@% jlc*
G04 %TO.C,X30@% jlc*
X149415600Y-145316100D03*
X152971600Y-145316100D03*
G04 %TD@% jlc*
G04 %TO.C,X13@% jlc*
X138620600Y-64036100D03*
X135064600Y-64036100D03*
G04 %TD@% jlc*
G04 %TO.C,X25@% jlc*
X184340600Y-145316100D03*
X187896600Y-145316100D03*
G04 %TD@% jlc*
G04 %TO.C,X18@% jlc*
X188785600Y-88166100D03*
X188785600Y-84610100D03*
G04 %TD@% jlc*
G04 %TO.C,X11@% jlc*
X124650600Y-64036100D03*
X121094600Y-64036100D03*
G04 %TD@% jlc*
G04 %TO.C,X26@% jlc*
X177355600Y-145316100D03*
X180911600Y-145316100D03*
G04 %TD@% jlc*
G04 %TO.C,X33@% jlc*
X128460600Y-145316100D03*
X132016600Y-145316100D03*
G04 %TD@% jlc*
G04 %TO.C,X39@% jlc*
X167830600Y-67846100D03*
X164274600Y-67846100D03*
G04 %TD@% jlc*
G04 %TO.C,X1@% jlc*
X107505600Y-128171100D03*
X107505600Y-131727100D03*
G04 %TD@% jlc*
G04 %TO.C,X2@% jlc*
X107505600Y-121186100D03*
X107505600Y-124742100D03*
G04 %TD@% jlc*
G04 %TO.C,X3@% jlc*
X107505600Y-114201100D03*
X107505600Y-117757100D03*
G04 %TD@% jlc*
G04 %TO.C,X16@% jlc*
X159575600Y-64036100D03*
X156019600Y-64036100D03*
G04 %TD@% jlc*
G04 %TO.C,X17@% jlc*
X188785600Y-81181100D03*
X188785600Y-77625100D03*
G04 %TD@% jlc*
G04 %TO.C,X5@% jlc*
X107505600Y-100231100D03*
X107505600Y-103787100D03*
G04 %TD@% jlc*
D14*
G04 %TO.C,ARDUINO_NANO1@% jlc*
X163385600Y-121186100D03*
D15*
X163385600Y-118646100D03*
X163385600Y-116106100D03*
X163385600Y-113566100D03*
X163385600Y-111026100D03*
X163385600Y-108486100D03*
X163385600Y-105946100D03*
X163385600Y-103406100D03*
X163385600Y-100866100D03*
X163385600Y-98326100D03*
X163385600Y-95786100D03*
X163385600Y-93246100D03*
X163385600Y-90706100D03*
X163385600Y-88166100D03*
X163385600Y-85626100D03*
X148145600Y-85626100D03*
X148145600Y-88166100D03*
X148145600Y-90706100D03*
X148145600Y-93246100D03*
X148145600Y-95786100D03*
X148145600Y-98326100D03*
X148145600Y-100866100D03*
X148145600Y-103406100D03*
X148145600Y-105946100D03*
X148145600Y-108486100D03*
X148145600Y-111026100D03*
X148145600Y-113566100D03*
X148145600Y-116106100D03*
X148145600Y-118646100D03*
X148145600Y-121186100D03*
G04 %TD@% jlc*
D13*
G04 %TO.C,U$1@% jlc*
X101155600Y-142776100D03*
X101155600Y-147856100D03*
G04 %TD@% jlc*
M02*
