G04 %TF.GenerationSoftware,KiCad,Pcbnew,(6.0.9)@% jlc*
G04 %TF.CreationDate,2023-02-21T16:03:54-05:00@% jlc*
G04 %TF.ProjectId,CMRI_SMD_72IN_Nano_v1,434d5249-5f53-44d4-945f-3732494e5f4e,rev?@% jlc*
G04 %TF.SameCoordinates,Original@% jlc*
G04 %TF.FileFunction,Soldermask,Top@% jlc*
G04 %TF.FilePolarity,Negative@% jlc*
%FSLAX46Y46*%
G04 Gerber Fmt 4.6, Leading zero omitted, Abs format (unit mm)*
G04 Created by KiCad (PCBNEW (6.0.9)) date 2023-02-21 16:03:54*
%MOMM*%
%LPD*%
G01*
G04 APERTURE LIST*
G04 Aperture macros list*
%AMRoundRect*
0 Rectangle with rounded corners*
0 $1 Rounding radius*
0 $2 $3 $4 $5 $6 $7 $8 $9 X,Y pos of 4 corners*
0 Add a 4 corners polygon primitive as box body*
4,1,4,$2,$3,$4,$5,$6,$7,$8,$9,$2,$3,0*
0 Add four circle primitives for the rounded corners*
1,1,$1+$1,$2,$3*
1,1,$1+$1,$4,$5*
1,1,$1+$1,$6,$7*
1,1,$1+$1,$8,$9*
0 Add four rect primitives between the rounded corners*
20,1,$1+$1,$2,$3,$4,$5,0*
20,1,$1+$1,$4,$5,$6,$7,0*
20,1,$1+$1,$6,$7,$8,$9,0*
20,1,$1+$1,$8,$9,$2,$3,0*%
G04 Aperture macros list end*
%ADD10C,4.100000*%
%ADD11C,1.611200*%
%ADD12RoundRect,0.101600X0.900000X0.600000X-0.900000X0.600000X-0.900000X-0.600000X0.900000X-0.600000X0*%
%ADD13RoundRect,0.101600X1.016000X-0.330200X1.016000X0.330200X-1.016000X0.330200X-1.016000X-0.330200X0*%
%ADD14RoundRect,0.254100X-0.297500X-0.152500X0.297500X-0.152500X0.297500X0.152500X-0.297500X0.152500X0*%
%ADD15RoundRect,0.234100X-0.317500X-0.132500X0.317500X-0.132500X0.317500X0.132500X-0.317500X0.132500X0*%
%ADD16RoundRect,0.254100X0.297500X0.152500X-0.297500X0.152500X-0.297500X-0.152500X0.297500X-0.152500X0*%
%ADD17RoundRect,0.234100X0.317500X0.132500X-0.317500X0.132500X-0.317500X-0.132500X0.317500X-0.132500X0*%
%ADD18RoundRect,0.101600X-0.300000X-1.100000X0.300000X-1.100000X0.300000X1.100000X-0.300000X1.100000X0*%
%ADD19RoundRect,0.254100X-0.152500X0.297500X-0.152500X-0.297500X0.152500X-0.297500X0.152500X0.297500X0*%
%ADD20RoundRect,0.234100X-0.132500X0.317500X-0.132500X-0.317500X0.132500X-0.317500X0.132500X0.317500X0*%
%ADD21RoundRect,0.254100X0.152500X-0.297500X0.152500X0.297500X-0.152500X0.297500X-0.152500X-0.297500X0*%
%ADD22RoundRect,0.234100X0.132500X-0.317500X0.132500X0.317500X-0.132500X0.317500X-0.132500X-0.317500X0*%
%ADD23RoundRect,0.101600X0.800000X0.900000X-0.800000X0.900000X-0.800000X-0.900000X0.800000X-0.900000X0*%
%ADD24RoundRect,0.101600X-1.016000X0.330200X-1.016000X-0.330200X1.016000X-0.330200X1.016000X0.330200X0*%
%ADD25RoundRect,0.101600X0.900000X-0.800000X0.900000X0.800000X-0.900000X0.800000X-0.900000X-0.800000X0*%
%ADD26RoundRect,0.101600X-0.800000X-0.900000X0.800000X-0.900000X0.800000X0.900000X-0.800000X0.900000X0*%
%ADD27C,1.993900*%
%ADD28RoundRect,0.101600X-0.330200X-1.016000X0.330200X-1.016000X0.330200X1.016000X-0.330200X1.016000X0*%
%ADD29RoundRect,0.101600X-0.400000X-0.400000X0.400000X-0.400000X0.400000X0.400000X-0.400000X0.400000X0*%
%ADD30C,1.853200*%
%ADD31RoundRect,0.101600X0.654000X-0.654000X0.654000X0.654000X-0.654000X0.654000X-0.654000X-0.654000X0*%
%ADD32C,1.511200*%
G04 APERTURE END LIST*
D10*
G04 %TO.C,@% jlc*
X195580000Y-73660000D03*
G04 %TD@% jlc*
G04 %TO.C,@% jlc*
X101600000Y-152400000D03*
G04 %TD@% jlc*
G04 %TO.C,@% jlc*
X195580000Y-152400000D03*
G04 %TD@% jlc*
G04 %TO.C,@% jlc*
X101600000Y-58420000D03*
G04 %TD@% jlc*
D11*
G04 %TO.C,X31@% jlc*
X142430600Y-145316100D03*
X145986600Y-145316100D03*
G04 %TD@% jlc*
G04 %TO.C,X32@% jlc*
X135445600Y-145316100D03*
X139001600Y-145316100D03*
G04 %TD@% jlc*
D12*
G04 %TO.C,R20@% jlc*
X157264600Y-104676100D03*
X154266600Y-104676100D03*
G04 %TD@% jlc*
D13*
G04 %TO.C,IC7@% jlc*
X174079000Y-120551100D03*
X174079000Y-119281100D03*
X174079000Y-118011100D03*
X174079000Y-116741100D03*
X174079000Y-115471100D03*
X174079000Y-114201100D03*
X174079000Y-112931100D03*
X174079000Y-111661100D03*
X167932200Y-111661100D03*
X167932200Y-112931100D03*
X167932200Y-114201100D03*
X167932200Y-115471100D03*
X167932200Y-116741100D03*
X167932200Y-118011100D03*
X167932200Y-119281100D03*
X167932200Y-120551100D03*
G04 %TD@% jlc*
D11*
G04 %TO.C,X21@% jlc*
X188785600Y-109121100D03*
X188785600Y-105565100D03*
G04 %TD@% jlc*
D10*
G04 %TO.C,H2@% jlc*
X139255600Y-122456100D03*
G04 %TD@% jlc*
D11*
G04 %TO.C,X15@% jlc*
X152590600Y-64036100D03*
X149034600Y-64036100D03*
G04 %TD@% jlc*
G04 %TO.C,X40@% jlc*
X174815600Y-67846100D03*
X171259600Y-67846100D03*
G04 %TD@% jlc*
D14*
G04 %TO.C,R13@% jlc*
X184090600Y-136456100D03*
D15*
X184090600Y-137296100D03*
X184090600Y-138096100D03*
D14*
X184090600Y-138936100D03*
D16*
X185860600Y-138936100D03*
D17*
X185860600Y-138096100D03*
X185860600Y-137296100D03*
D16*
X185860600Y-136456100D03*
G04 %TD@% jlc*
D11*
G04 %TO.C,X29@% jlc*
X156400600Y-145316100D03*
X159956600Y-145316100D03*
G04 %TD@% jlc*
D18*
G04 %TO.C,IC11@% jlc*
X170370600Y-79336100D03*
X171640600Y-79336100D03*
X172910600Y-79336100D03*
X174180600Y-79336100D03*
X174180600Y-74136100D03*
X172910600Y-74136100D03*
X171640600Y-74136100D03*
X170370600Y-74136100D03*
G04 %TD@% jlc*
D11*
G04 %TO.C,X4@% jlc*
X107505600Y-107216100D03*
X107505600Y-110772100D03*
G04 %TD@% jlc*
D10*
G04 %TO.C,H1@% jlc*
X139255600Y-85626100D03*
G04 %TD@% jlc*
D11*
G04 %TO.C,X20@% jlc*
X188785600Y-102136100D03*
X188785600Y-98580100D03*
G04 %TD@% jlc*
D19*
G04 %TO.C,R2@% jlc*
X118905600Y-111411100D03*
D20*
X118065600Y-111411100D03*
X117265600Y-111411100D03*
D19*
X116425600Y-111411100D03*
D21*
X116425600Y-113181100D03*
D22*
X117265600Y-113181100D03*
X118065600Y-113181100D03*
D21*
X118905600Y-113181100D03*
G04 %TD@% jlc*
D19*
G04 %TO.C,R4@% jlc*
X118905600Y-87281100D03*
D20*
X118065600Y-87281100D03*
X117265600Y-87281100D03*
D19*
X116425600Y-87281100D03*
D21*
X116425600Y-89051100D03*
D22*
X117265600Y-89051100D03*
X118065600Y-89051100D03*
D21*
X118905600Y-89051100D03*
G04 %TD@% jlc*
D23*
G04 %TO.C,C9@% jlc*
X172405600Y-104041100D03*
X169605600Y-104041100D03*
G04 %TD@% jlc*
D24*
G04 %TO.C,IC2@% jlc*
X124752200Y-90071100D03*
X124752200Y-91341100D03*
X124752200Y-92611100D03*
X124752200Y-93881100D03*
X124752200Y-95151100D03*
X124752200Y-96421100D03*
X124752200Y-97691100D03*
X124752200Y-98961100D03*
X130899000Y-98961100D03*
X130899000Y-97691100D03*
X130899000Y-96421100D03*
X130899000Y-95151100D03*
X130899000Y-93881100D03*
X130899000Y-92611100D03*
X130899000Y-91341100D03*
X130899000Y-90071100D03*
G04 %TD@% jlc*
D11*
G04 %TO.C,X19@% jlc*
X188785600Y-95151100D03*
X188785600Y-91595100D03*
G04 %TD@% jlc*
D14*
G04 %TO.C,R6@% jlc*
X129480600Y-71686100D03*
D15*
X129480600Y-72526100D03*
X129480600Y-73326100D03*
D14*
X129480600Y-74166100D03*
D16*
X131250600Y-74166100D03*
D17*
X131250600Y-73326100D03*
X131250600Y-72526100D03*
D16*
X131250600Y-71686100D03*
G04 %TD@% jlc*
D25*
G04 %TO.C,C5@% jlc*
X106870600Y-74326100D03*
X106870600Y-71526100D03*
G04 %TD@% jlc*
D19*
G04 %TO.C,R1@% jlc*
X118905600Y-122841100D03*
D20*
X118065600Y-122841100D03*
X117265600Y-122841100D03*
D19*
X116425600Y-122841100D03*
D21*
X116425600Y-124611100D03*
D22*
X117265600Y-124611100D03*
X118065600Y-124611100D03*
D21*
X118905600Y-124611100D03*
G04 %TD@% jlc*
D19*
G04 %TO.C,R3@% jlc*
X118905600Y-98711100D03*
D20*
X118065600Y-98711100D03*
X117265600Y-98711100D03*
D19*
X116425600Y-98711100D03*
D21*
X116425600Y-100481100D03*
D22*
X117265600Y-100481100D03*
X118065600Y-100481100D03*
D21*
X118905600Y-100481100D03*
G04 %TD@% jlc*
D11*
G04 %TO.C,X24@% jlc*
X188785600Y-130076100D03*
X188785600Y-126520100D03*
G04 %TD@% jlc*
D25*
G04 %TO.C,C2@% jlc*
X161480600Y-132746100D03*
X161480600Y-129946100D03*
G04 %TD@% jlc*
D23*
G04 %TO.C,C4@% jlc*
X157165600Y-96421100D03*
X154365600Y-96421100D03*
G04 %TD@% jlc*
D11*
G04 %TO.C,X9@% jlc*
X110680600Y-64036100D03*
X107124600Y-64036100D03*
G04 %TD@% jlc*
D26*
G04 %TO.C,C3@% jlc*
X126425600Y-105311100D03*
X129225600Y-105311100D03*
G04 %TD@% jlc*
D27*
G04 %TO.C,X37@% jlc*
X195135600Y-65941100D03*
X190055600Y-65941100D03*
G04 %TD@% jlc*
D21*
G04 %TO.C,R12@% jlc*
X178655600Y-125881100D03*
D22*
X179495600Y-125881100D03*
X180295600Y-125881100D03*
D21*
X181135600Y-125881100D03*
D19*
X181135600Y-124111100D03*
D20*
X180295600Y-124111100D03*
X179495600Y-124111100D03*
D19*
X178655600Y-124111100D03*
G04 %TD@% jlc*
D21*
G04 %TO.C,R9@% jlc*
X178655600Y-82701100D03*
D22*
X179495600Y-82701100D03*
X180295600Y-82701100D03*
D21*
X181135600Y-82701100D03*
D19*
X181135600Y-80931100D03*
D20*
X180295600Y-80931100D03*
X179495600Y-80931100D03*
D19*
X178655600Y-80931100D03*
G04 %TD@% jlc*
D11*
G04 %TO.C,X12@% jlc*
X131635600Y-64036100D03*
X128079600Y-64036100D03*
G04 %TD@% jlc*
D26*
G04 %TO.C,C7@% jlc*
X121345600Y-81181100D03*
X124145600Y-81181100D03*
G04 %TD@% jlc*
D11*
G04 %TO.C,X28@% jlc*
X163385600Y-145316100D03*
X166941600Y-145316100D03*
G04 %TD@% jlc*
D14*
G04 %TO.C,R5@% jlc*
X110430600Y-71686100D03*
D15*
X110430600Y-72526100D03*
X110430600Y-73326100D03*
D14*
X110430600Y-74166100D03*
D16*
X112200600Y-74166100D03*
D17*
X112200600Y-73326100D03*
X112200600Y-72526100D03*
D16*
X112200600Y-71686100D03*
G04 %TD@% jlc*
D11*
G04 %TO.C,X14@% jlc*
X145605600Y-64036100D03*
X142049600Y-64036100D03*
G04 %TD@% jlc*
G04 %TO.C,X10@% jlc*
X117665600Y-64036100D03*
X114109600Y-64036100D03*
G04 %TD@% jlc*
D14*
G04 %TO.C,R18@% jlc*
X110430600Y-136456100D03*
D15*
X110430600Y-137296100D03*
X110430600Y-138096100D03*
D14*
X110430600Y-138936100D03*
D16*
X112200600Y-138936100D03*
D17*
X112200600Y-138096100D03*
X112200600Y-137296100D03*
D16*
X112200600Y-136456100D03*
G04 %TD@% jlc*
D11*
G04 %TO.C,X36@% jlc*
X107505600Y-145316100D03*
X111061600Y-145316100D03*
G04 %TD@% jlc*
G04 %TO.C,X7@% jlc*
X107505600Y-86261100D03*
X107505600Y-89817100D03*
G04 %TD@% jlc*
D25*
G04 %TO.C,C8@% jlc*
X164020600Y-78136100D03*
X164020600Y-75336100D03*
G04 %TD@% jlc*
D27*
G04 %TO.C,X38@% jlc*
X184975600Y-65941100D03*
X179895600Y-65941100D03*
G04 %TD@% jlc*
D24*
G04 %TO.C,IC1@% jlc*
X124752200Y-112931100D03*
X124752200Y-114201100D03*
X124752200Y-115471100D03*
X124752200Y-116741100D03*
X124752200Y-118011100D03*
X124752200Y-119281100D03*
X124752200Y-120551100D03*
X124752200Y-121821100D03*
X130899000Y-121821100D03*
X130899000Y-120551100D03*
X130899000Y-119281100D03*
X130899000Y-118011100D03*
X130899000Y-116741100D03*
X130899000Y-115471100D03*
X130899000Y-114201100D03*
X130899000Y-112931100D03*
G04 %TD@% jlc*
D11*
G04 %TO.C,X35@% jlc*
X114490600Y-145316100D03*
X118046600Y-145316100D03*
G04 %TD@% jlc*
D28*
G04 %TO.C,IC9@% jlc*
X143700600Y-135689500D03*
X144970600Y-135689500D03*
X146240600Y-135689500D03*
X147510600Y-135689500D03*
X148780600Y-135689500D03*
X150050600Y-135689500D03*
X151320600Y-135689500D03*
X152590600Y-135689500D03*
X152590600Y-129542700D03*
X151320600Y-129542700D03*
X150050600Y-129542700D03*
X148780600Y-129542700D03*
X147510600Y-129542700D03*
X146240600Y-129542700D03*
X144970600Y-129542700D03*
X143700600Y-129542700D03*
G04 %TD@% jlc*
D29*
G04 %TO.C,L2@% jlc*
X177355600Y-77486100D03*
X177355600Y-75986100D03*
G04 %TD@% jlc*
D11*
G04 %TO.C,X34@% jlc*
X121475600Y-145316100D03*
X125031600Y-145316100D03*
G04 %TD@% jlc*
D21*
G04 %TO.C,R10@% jlc*
X178655600Y-100481100D03*
D22*
X179495600Y-100481100D03*
X180295600Y-100481100D03*
D21*
X181135600Y-100481100D03*
D19*
X181135600Y-98711100D03*
D20*
X180295600Y-98711100D03*
X179495600Y-98711100D03*
D19*
X178655600Y-98711100D03*
G04 %TD@% jlc*
D12*
G04 %TO.C,R19@% jlc*
X157264600Y-109756100D03*
X154266600Y-109756100D03*
G04 %TD@% jlc*
D28*
G04 %TO.C,IC3@% jlc*
X115760600Y-77269500D03*
X117030600Y-77269500D03*
X118300600Y-77269500D03*
X119570600Y-77269500D03*
X120840600Y-77269500D03*
X122110600Y-77269500D03*
X123380600Y-77269500D03*
X124650600Y-77269500D03*
X124650600Y-71122700D03*
X123380600Y-71122700D03*
X122110600Y-71122700D03*
X120840600Y-71122700D03*
X119570600Y-71122700D03*
X118300600Y-71122700D03*
X117030600Y-71122700D03*
X115760600Y-71122700D03*
G04 %TD@% jlc*
D11*
G04 %TO.C,X6@% jlc*
X107505600Y-93246100D03*
X107505600Y-96802100D03*
G04 %TD@% jlc*
D30*
G04 %TO.C,U$2@% jlc*
X195135600Y-142776100D03*
X195135600Y-147856100D03*
G04 %TD@% jlc*
D11*
G04 %TO.C,X23@% jlc*
X188785600Y-123091100D03*
X188785600Y-119535100D03*
G04 %TD@% jlc*
G04 %TO.C,X22@% jlc*
X188785600Y-116106100D03*
X188785600Y-112550100D03*
G04 %TD@% jlc*
G04 %TO.C,X27@% jlc*
X170370600Y-145316100D03*
X173926600Y-145316100D03*
G04 %TD@% jlc*
D29*
G04 %TO.C,L1@% jlc*
X181165600Y-77486100D03*
X181165600Y-75986100D03*
G04 %TD@% jlc*
D16*
G04 %TO.C,R7@% jlc*
X156650600Y-74166100D03*
D17*
X156650600Y-73326100D03*
X156650600Y-72526100D03*
D16*
X156650600Y-71686100D03*
D14*
X154880600Y-71686100D03*
D15*
X154880600Y-72526100D03*
X154880600Y-73326100D03*
D14*
X154880600Y-74166100D03*
G04 %TD@% jlc*
D11*
G04 %TO.C,X8@% jlc*
X107505600Y-79276100D03*
X107505600Y-82832100D03*
G04 %TD@% jlc*
G04 %TO.C,X30@% jlc*
X149415600Y-145316100D03*
X152971600Y-145316100D03*
G04 %TD@% jlc*
G04 %TO.C,X13@% jlc*
X138620600Y-64036100D03*
X135064600Y-64036100D03*
G04 %TD@% jlc*
G04 %TO.C,X25@% jlc*
X184340600Y-145316100D03*
X187896600Y-145316100D03*
G04 %TD@% jlc*
G04 %TO.C,X18@% jlc*
X188785600Y-88166100D03*
X188785600Y-84610100D03*
G04 %TD@% jlc*
G04 %TO.C,X11@% jlc*
X124650600Y-64036100D03*
X121094600Y-64036100D03*
G04 %TD@% jlc*
D14*
G04 %TO.C,R15@% jlc*
X156150600Y-136456100D03*
D15*
X156150600Y-137296100D03*
X156150600Y-138096100D03*
D14*
X156150600Y-138936100D03*
D16*
X157920600Y-138936100D03*
D17*
X157920600Y-138096100D03*
X157920600Y-137296100D03*
D16*
X157920600Y-136456100D03*
G04 %TD@% jlc*
D26*
G04 %TO.C,C6@% jlc*
X146745600Y-82451100D03*
X149545600Y-82451100D03*
G04 %TD@% jlc*
D11*
G04 %TO.C,X26@% jlc*
X177355600Y-145316100D03*
X180911600Y-145316100D03*
G04 %TD@% jlc*
D28*
G04 %TO.C,IC10@% jlc*
X115760600Y-135689500D03*
X117030600Y-135689500D03*
X118300600Y-135689500D03*
X119570600Y-135689500D03*
X120840600Y-135689500D03*
X122110600Y-135689500D03*
X123380600Y-135689500D03*
X124650600Y-135689500D03*
X124650600Y-129542700D03*
X123380600Y-129542700D03*
X122110600Y-129542700D03*
X120840600Y-129542700D03*
X119570600Y-129542700D03*
X118300600Y-129542700D03*
X117030600Y-129542700D03*
X115760600Y-129542700D03*
G04 %TD@% jlc*
D25*
G04 %TO.C,C1@% jlc*
X133540600Y-132746100D03*
X133540600Y-129946100D03*
G04 %TD@% jlc*
D28*
G04 %TO.C,IC4@% jlc*
X142430600Y-77269500D03*
X143700600Y-77269500D03*
X144970600Y-77269500D03*
X146240600Y-77269500D03*
X147510600Y-77269500D03*
X148780600Y-77269500D03*
X150050600Y-77269500D03*
X151320600Y-77269500D03*
X151320600Y-71122700D03*
X150050600Y-71122700D03*
X148780600Y-71122700D03*
X147510600Y-71122700D03*
X146240600Y-71122700D03*
X144970600Y-71122700D03*
X143700600Y-71122700D03*
X142430600Y-71122700D03*
G04 %TD@% jlc*
D11*
G04 %TO.C,X33@% jlc*
X128460600Y-145316100D03*
X132016600Y-145316100D03*
G04 %TD@% jlc*
G04 %TO.C,X39@% jlc*
X167830600Y-67846100D03*
X164274600Y-67846100D03*
G04 %TD@% jlc*
D14*
G04 %TO.C,R8@% jlc*
X137100600Y-71686100D03*
D15*
X137100600Y-72526100D03*
X137100600Y-73326100D03*
D14*
X137100600Y-74166100D03*
D16*
X138870600Y-74166100D03*
D17*
X138870600Y-73326100D03*
X138870600Y-72526100D03*
D16*
X138870600Y-71686100D03*
G04 %TD@% jlc*
D11*
G04 %TO.C,X1@% jlc*
X107505600Y-128171100D03*
X107505600Y-131727100D03*
G04 %TD@% jlc*
G04 %TO.C,X2@% jlc*
X107505600Y-121186100D03*
X107505600Y-124742100D03*
G04 %TD@% jlc*
D28*
G04 %TO.C,IC8@% jlc*
X171640600Y-135689500D03*
X172910600Y-135689500D03*
X174180600Y-135689500D03*
X175450600Y-135689500D03*
X176720600Y-135689500D03*
X177990600Y-135689500D03*
X179260600Y-135689500D03*
X180530600Y-135689500D03*
X180530600Y-129542700D03*
X179260600Y-129542700D03*
X177990600Y-129542700D03*
X176720600Y-129542700D03*
X175450600Y-129542700D03*
X174180600Y-129542700D03*
X172910600Y-129542700D03*
X171640600Y-129542700D03*
G04 %TD@% jlc*
D14*
G04 %TO.C,R16@% jlc*
X138370600Y-136456100D03*
D15*
X138370600Y-137296100D03*
X138370600Y-138096100D03*
D14*
X138370600Y-138936100D03*
D16*
X140140600Y-138936100D03*
D17*
X140140600Y-138096100D03*
X140140600Y-137296100D03*
D16*
X140140600Y-136456100D03*
G04 %TD@% jlc*
D11*
G04 %TO.C,X3@% jlc*
X107505600Y-114201100D03*
X107505600Y-117757100D03*
G04 %TD@% jlc*
D14*
G04 %TO.C,R14@% jlc*
X166310600Y-136456100D03*
D15*
X166310600Y-137296100D03*
X166310600Y-138096100D03*
D14*
X166310600Y-138936100D03*
D16*
X168080600Y-138936100D03*
D17*
X168080600Y-138096100D03*
X168080600Y-137296100D03*
D16*
X168080600Y-136456100D03*
G04 %TD@% jlc*
D11*
G04 %TO.C,X16@% jlc*
X159575600Y-64036100D03*
X156019600Y-64036100D03*
G04 %TD@% jlc*
G04 %TO.C,X17@% jlc*
X188785600Y-81181100D03*
X188785600Y-77625100D03*
G04 %TD@% jlc*
D21*
G04 %TO.C,R11@% jlc*
X178655600Y-108101100D03*
D22*
X179495600Y-108101100D03*
X180295600Y-108101100D03*
D21*
X181135600Y-108101100D03*
D19*
X181135600Y-106331100D03*
D20*
X180295600Y-106331100D03*
X179495600Y-106331100D03*
D19*
X178655600Y-106331100D03*
G04 %TD@% jlc*
D11*
G04 %TO.C,X5@% jlc*
X107505600Y-100231100D03*
X107505600Y-103787100D03*
G04 %TD@% jlc*
D31*
G04 %TO.C,ARDUINO_NANO1@% jlc*
X163385600Y-121186100D03*
D32*
X163385600Y-118646100D03*
X163385600Y-116106100D03*
X163385600Y-113566100D03*
X163385600Y-111026100D03*
X163385600Y-108486100D03*
X163385600Y-105946100D03*
X163385600Y-103406100D03*
X163385600Y-100866100D03*
X163385600Y-98326100D03*
X163385600Y-95786100D03*
X163385600Y-93246100D03*
X163385600Y-90706100D03*
X163385600Y-88166100D03*
X163385600Y-85626100D03*
X148145600Y-85626100D03*
X148145600Y-88166100D03*
X148145600Y-90706100D03*
X148145600Y-93246100D03*
X148145600Y-95786100D03*
X148145600Y-98326100D03*
X148145600Y-100866100D03*
X148145600Y-103406100D03*
X148145600Y-105946100D03*
X148145600Y-108486100D03*
X148145600Y-111026100D03*
X148145600Y-113566100D03*
X148145600Y-116106100D03*
X148145600Y-118646100D03*
X148145600Y-121186100D03*
G04 %TD@% jlc*
D30*
G04 %TO.C,U$1@% jlc*
X101155600Y-142776100D03*
X101155600Y-147856100D03*
G04 %TD@% jlc*
D13*
G04 %TO.C,IC5@% jlc*
X174079000Y-95151100D03*
X174079000Y-93881100D03*
X174079000Y-92611100D03*
X174079000Y-91341100D03*
X174079000Y-90071100D03*
X174079000Y-88801100D03*
X174079000Y-87531100D03*
X174079000Y-86261100D03*
X167932200Y-86261100D03*
X167932200Y-87531100D03*
X167932200Y-88801100D03*
X167932200Y-90071100D03*
X167932200Y-91341100D03*
X167932200Y-92611100D03*
X167932200Y-93881100D03*
X167932200Y-95151100D03*
G04 %TD@% jlc*
D14*
G04 %TO.C,R17@% jlc*
X128210600Y-136456100D03*
D15*
X128210600Y-137296100D03*
X128210600Y-138096100D03*
D14*
X128210600Y-138936100D03*
D16*
X129980600Y-138936100D03*
D17*
X129980600Y-138096100D03*
X129980600Y-137296100D03*
D16*
X129980600Y-136456100D03*
G04 %TD@% jlc*
M02*
