M48
METRIC,TZ
T1C0.610
T2C0.800
T3C0.900
T4C1.100
T5C1.194
%
G90
G05
T1
X106871Y-75942
X108617Y-139442
X109252Y-72767
X109252Y-85309
X109569Y-76895
X110998Y-111185
X111474Y-78800
X111951Y-120234
X111951Y-140554
X112427Y-133727
X112903Y-78800
X113062Y-70227
X113062Y-87055
X113379Y-72767
X114014Y-131346
X114649Y-77847
X114808Y-75784
X114808Y-87055
X115284Y-127536
X117031Y-69275
X117031Y-131346
X117507Y-127536
X119094Y-97532
X119094Y-121662
X119729Y-109597
X119729Y-132775
X120047Y-120234
X121476Y-110074
X121793Y-87690
X122428Y-139601
X122904Y-90230
X123063Y-79594
X124016Y-69434
X124809Y-100072
X124809Y-105311
X125762Y-135632
X126079Y-137696
X126556Y-89912
X126556Y-92452
X126556Y-93881
X126556Y-95151
X126556Y-115154
X126556Y-116424
X126556Y-121821
X127032Y-72767
X127032Y-136585
X127349Y-113407
X127508Y-123726
X127508Y-133251
X127826Y-89912
X127984Y-110074
X128302Y-72609
X128302Y-87690
X128461Y-115789
X128461Y-131029
X129096Y-91341
X129096Y-96104
X129096Y-114201
X129413Y-70386
X129413Y-135156
X129572Y-87849
X129572Y-111661
X131794Y-132775
X132588Y-98326
X133541Y-91182
X133699Y-101025
X135287Y-112614
X135922Y-70386
X135922Y-138490
X136081Y-68481
X136239Y-99755
X136557Y-137379
X136874Y-140712
X137192Y-70386
X137192Y-136267
X138144Y-141347
X138462Y-68005
X140208Y-64989
X140367Y-70386
X141002Y-129124
X141319Y-139442
X142272Y-129124
X143701Y-72926
X144971Y-68005
X144971Y-72926
X144971Y-127695
X145764Y-80070
X146241Y-72926
X146241Y-127695
X146558Y-79117
X146876Y-140395
X147511Y-73085
X147511Y-75307
X147511Y-127695
X149574Y-68799
X150844Y-85467
X151479Y-69275
X151479Y-132299
X152591Y-91182
X153384Y-67211
X153384Y-69910
X153702Y-130076
X153702Y-135632
X154813Y-75625
X157353Y-111185
X157829Y-73879
X158623Y-82451
X159893Y-82451
X160846Y-85626
X162909Y-131346
X164021Y-79752
X165132Y-96104
X165132Y-135156
X165132Y-137379
X165132Y-138649
X166084Y-92770
X166084Y-132299
X166561Y-108327
X167196Y-135632
X168307Y-133251
X168624Y-140077
X169577Y-135156
X169736Y-119281
X169736Y-120551
X170053Y-90389
X170371Y-137537
X170529Y-121980
X170529Y-128806
X171164Y-94040
X171164Y-95310
X171323Y-132457
X171641Y-106899
X171641Y-140077
X172276Y-88801
X172276Y-91341
X172276Y-113407
X172276Y-114677
X172276Y-116741
X172276Y-118329
X172276Y-120710
X172276Y-124044
X172434Y-102295
X174022Y-85150
X174022Y-104517
X174022Y-110550
X175609Y-97532
X175768Y-93246
X175927Y-95310
X175927Y-120392
X176086Y-118487
X176244Y-76419
X176721Y-133251
X177038Y-93087
X177197Y-95151
X177356Y-118487
X177514Y-79276
X177832Y-107216
X177832Y-124996
X178308Y-101660
X179102Y-77689
X179419Y-83880
X179737Y-138966
X181483Y-102136
X181642Y-135632
X182118Y-138014
X182277Y-108327
X182753Y-136902
T2
X148146Y-85626
X148146Y-88166
X148146Y-90706
X148146Y-93246
X148146Y-95786
X148146Y-98326
X148146Y-100866
X148146Y-103406
X148146Y-105946
X148146Y-108486
X148146Y-111026
X148146Y-113566
X148146Y-116106
X148146Y-118646
X148146Y-121186
X163386Y-85626
X163386Y-88166
X163386Y-90706
X163386Y-93246
X163386Y-95786
X163386Y-98326
X163386Y-100866
X163386Y-103406
X163386Y-105946
X163386Y-108486
X163386Y-111026
X163386Y-113566
X163386Y-116106
X163386Y-118646
X163386Y-121186
T3
X107125Y-64036
X107506Y-79276
X107506Y-82832
X107506Y-86261
X107506Y-89817
X107506Y-93246
X107506Y-96802
X107506Y-100231
X107506Y-103787
X107506Y-107216
X107506Y-110772
X107506Y-114201
X107506Y-117757
X107506Y-121186
X107506Y-124742
X107506Y-128171
X107506Y-131727
X107506Y-145316
X110681Y-64036
X111062Y-145316
X114110Y-64036
X114491Y-145316
X117666Y-64036
X118047Y-145316
X121095Y-64036
X121476Y-145316
X124651Y-64036
X125032Y-145316
X128080Y-64036
X128461Y-145316
X131636Y-64036
X132017Y-145316
X135065Y-64036
X135446Y-145316
X138621Y-64036
X139002Y-145316
X142050Y-64036
X142431Y-145316
X145606Y-64036
X145987Y-145316
X149035Y-64036
X149416Y-145316
X152591Y-64036
X152972Y-145316
X156020Y-64036
X156401Y-145316
X159576Y-64036
X159957Y-145316
X163386Y-145316
X164275Y-67846
X166942Y-145316
X167831Y-67846
X170371Y-145316
X171260Y-67846
X173927Y-145316
X174816Y-67846
X177356Y-145316
X180912Y-145316
X184341Y-145316
X187897Y-145316
X188786Y-77625
X188786Y-81181
X188786Y-84610
X188786Y-88166
X188786Y-91595
X188786Y-95151
X188786Y-98580
X188786Y-102136
X188786Y-105565
X188786Y-109121
X188786Y-112550
X188786Y-116106
X188786Y-119535
X188786Y-123091
X188786Y-126520
X188786Y-130076
T4
X101156Y-142776
X101156Y-147856
X195136Y-142776
X195136Y-147856
T5
X179896Y-65941
X184976Y-65941
X190056Y-65941
X195136Y-65941
T0
M30
