%TF.GenerationSoftware,KiCad,Pcbnew,(6.0.9)*%
%TF.CreationDate,2023-02-21T16:03:54-05:00*%
%TF.ProjectId,CMRI_SMD_72IN_Nano_v1,434d5249-5f53-44d4-945f-3732494e5f4e,rev?*%
%TF.SameCoordinates,Original*%
%TF.FileFunction,Copper,L1,Top*%
%TF.FilePolarity,Positive*%
%FSLAX46Y46*%
G04 Gerber Fmt 4.6, Leading zero omitted, Abs format (unit mm)*
G04 Created by KiCad (PCBNEW (6.0.9)) date 2023-02-21 16:03:54*
%MOMM*%
%LPD*%
G01*
G04 APERTURE LIST*
G04 Aperture macros list*
%AMRoundRect*
0 Rectangle with rounded corners*
0 $1 Rounding radius*
0 $2 $3 $4 $5 $6 $7 $8 $9 X,Y pos of 4 corners*
0 Add a 4 corners polygon primitive as box body*
4,1,4,$2,$3,$4,$5,$6,$7,$8,$9,$2,$3,0*
0 Add four circle primitives for the rounded corners*
1,1,$1+$1,$2,$3*
1,1,$1+$1,$4,$5*
1,1,$1+$1,$6,$7*
1,1,$1+$1,$8,$9*
0 Add four rect primitives between the rounded corners*
20,1,$1+$1,$2,$3,$4,$5,0*
20,1,$1+$1,$4,$5,$6,$7,0*
20,1,$1+$1,$6,$7,$8,$9,0*
20,1,$1+$1,$8,$9,$2,$3,0*%
G04 Aperture macros list end*
%TA.AperFunction,ComponentPad*%
%ADD10C,1.408000*%
%TD*%
%TA.AperFunction,SMDPad,CuDef*%
%ADD11R,1.800000X1.200000*%
%TD*%
%TA.AperFunction,SMDPad,CuDef*%
%ADD12R,2.032000X0.660400*%
%TD*%
%TA.AperFunction,SMDPad,CuDef*%
%ADD13RoundRect,0.152500X-0.297500X-0.152500X0.297500X-0.152500X0.297500X0.152500X-0.297500X0.152500X0*%
%TD*%
%TA.AperFunction,SMDPad,CuDef*%
%ADD14RoundRect,0.132500X-0.317500X-0.132500X0.317500X-0.132500X0.317500X0.132500X-0.317500X0.132500X0*%
%TD*%
%TA.AperFunction,SMDPad,CuDef*%
%ADD15RoundRect,0.152500X0.297500X0.152500X-0.297500X0.152500X-0.297500X-0.152500X0.297500X-0.152500X0*%
%TD*%
%TA.AperFunction,SMDPad,CuDef*%
%ADD16RoundRect,0.132500X0.317500X0.132500X-0.317500X0.132500X-0.317500X-0.132500X0.317500X-0.132500X0*%
%TD*%
%TA.AperFunction,SMDPad,CuDef*%
%ADD17R,0.600000X2.200000*%
%TD*%
%TA.AperFunction,SMDPad,CuDef*%
%ADD18RoundRect,0.152500X-0.152500X0.297500X-0.152500X-0.297500X0.152500X-0.297500X0.152500X0.297500X0*%
%TD*%
%TA.AperFunction,SMDPad,CuDef*%
%ADD19RoundRect,0.132500X-0.132500X0.317500X-0.132500X-0.317500X0.132500X-0.317500X0.132500X0.317500X0*%
%TD*%
%TA.AperFunction,SMDPad,CuDef*%
%ADD20RoundRect,0.152500X0.152500X-0.297500X0.152500X0.297500X-0.152500X0.297500X-0.152500X-0.297500X0*%
%TD*%
%TA.AperFunction,SMDPad,CuDef*%
%ADD21RoundRect,0.132500X0.132500X-0.317500X0.132500X0.317500X-0.132500X0.317500X-0.132500X-0.317500X0*%
%TD*%
%TA.AperFunction,SMDPad,CuDef*%
%ADD22R,1.600000X1.800000*%
%TD*%
%TA.AperFunction,SMDPad,CuDef*%
%ADD23R,1.800000X1.600000*%
%TD*%
%TA.AperFunction,ComponentPad*%
%ADD24C,1.790700*%
%TD*%
%TA.AperFunction,SMDPad,CuDef*%
%ADD25R,0.660400X2.032000*%
%TD*%
%TA.AperFunction,SMDPad,CuDef*%
%ADD26R,0.800000X0.800000*%
%TD*%
%TA.AperFunction,ComponentPad*%
%ADD27C,1.650000*%
%TD*%
%TA.AperFunction,ComponentPad*%
%ADD28R,1.308000X1.308000*%
%TD*%
%TA.AperFunction,ComponentPad*%
%ADD29C,1.308000*%
%TD*%
%TA.AperFunction,ViaPad*%
%ADD30C,1.016000*%
%TD*%
%TA.AperFunction,Conductor*%
%ADD31C,0.609600*%
%TD*%
%TA.AperFunction,Conductor*%
%ADD32C,0.254000*%
%TD*%
G04 APERTURE END LIST*
D10*
%TO.P,X31,P$1*%
%TO.N,N$68*%
X142430600Y-145316100D03*
%TO.P,X31,P$2*%
%TO.N,N$69*%
X145986600Y-145316100D03*
%TD*%
%TO.P,X32,P$1*%
%TO.N,N$66*%
X135445600Y-145316100D03*
%TO.P,X32,P$2*%
%TO.N,N$67*%
X139001600Y-145316100D03*
%TD*%
D11*
%TO.P,R20,1*%
%TO.N,GND*%
X157264600Y-104676100D03*
%TO.P,R20,2*%
%TO.N,N$54*%
X154266600Y-104676100D03*
%TD*%
D12*
%TO.P,IC7,1*%
%TO.N,LATCH*%
X174079000Y-120551100D03*
%TO.P,IC7,2*%
%TO.N,SCK*%
X174079000Y-119281100D03*
%TO.P,IC7,3*%
%TO.N,N$49*%
X174079000Y-118011100D03*
%TO.P,IC7,4*%
%TO.N,N$50*%
X174079000Y-116741100D03*
%TO.P,IC7,5*%
%TO.N,N$51*%
X174079000Y-115471100D03*
%TO.P,IC7,6*%
%TO.N,N$52*%
X174079000Y-114201100D03*
%TO.P,IC7,7*%
%TO.N,N/C*%
X174079000Y-112931100D03*
%TO.P,IC7,8*%
%TO.N,GND*%
X174079000Y-111661100D03*
%TO.P,IC7,9*%
%TO.N,N$65*%
X167932200Y-111661100D03*
%TO.P,IC7,10*%
%TO.N,N$53*%
X167932200Y-112931100D03*
%TO.P,IC7,11*%
%TO.N,N$42*%
X167932200Y-114201100D03*
%TO.P,IC7,12*%
%TO.N,N$44*%
X167932200Y-115471100D03*
%TO.P,IC7,13*%
%TO.N,N$46*%
X167932200Y-116741100D03*
%TO.P,IC7,14*%
%TO.N,N$48*%
X167932200Y-118011100D03*
%TO.P,IC7,15*%
%TO.N,GND*%
X167932200Y-119281100D03*
%TO.P,IC7,16*%
%TO.N,VCC*%
X167932200Y-120551100D03*
%TD*%
D10*
%TO.P,X21,P$1*%
%TO.N,N$51*%
X188785600Y-109121100D03*
%TO.P,X21,P$2*%
%TO.N,N$52*%
X188785600Y-105565100D03*
%TD*%
%TO.P,X15,P$1*%
%TO.N,N$10*%
X152590600Y-64036100D03*
%TO.P,X15,P$2*%
%TO.N,N$12*%
X149034600Y-64036100D03*
%TD*%
%TO.P,X40,P$1*%
%TO.N,A*%
X174815600Y-67846100D03*
%TO.P,X40,P$2*%
X171259600Y-67846100D03*
%TD*%
D13*
%TO.P,R13,1*%
%TO.N,N$64*%
X184090600Y-136456100D03*
D14*
%TO.P,R13,2*%
%TO.N,N$63*%
X184090600Y-137296100D03*
%TO.P,R13,3*%
%TO.N,N$62*%
X184090600Y-138096100D03*
D13*
%TO.P,R13,4*%
%TO.N,N$61*%
X184090600Y-138936100D03*
D15*
%TO.P,R13,5*%
%TO.N,VCC*%
X185860600Y-138936100D03*
D16*
%TO.P,R13,6*%
X185860600Y-138096100D03*
%TO.P,R13,7*%
X185860600Y-137296100D03*
D15*
%TO.P,R13,8*%
X185860600Y-136456100D03*
%TD*%
D10*
%TO.P,X29,P$1*%
%TO.N,N$72*%
X156400600Y-145316100D03*
%TO.P,X29,P$2*%
%TO.N,N$73*%
X159956600Y-145316100D03*
%TD*%
D17*
%TO.P,IC11,1*%
%TO.N,RX*%
X170370600Y-79336100D03*
%TO.P,IC11,2*%
%TO.N,N$55*%
X171640600Y-79336100D03*
%TO.P,IC11,3*%
X172910600Y-79336100D03*
%TO.P,IC11,4*%
%TO.N,TX*%
X174180600Y-79336100D03*
%TO.P,IC11,5*%
%TO.N,GND*%
X174180600Y-74136100D03*
%TO.P,IC11,6*%
%TO.N,A*%
X172910600Y-74136100D03*
%TO.P,IC11,7*%
%TO.N,B*%
X171640600Y-74136100D03*
%TO.P,IC11,8*%
%TO.N,VCC*%
X170370600Y-74136100D03*
%TD*%
D10*
%TO.P,X4,P$1*%
%TO.N,N$35*%
X107505600Y-107216100D03*
%TO.P,X4,P$2*%
%TO.N,N$37*%
X107505600Y-110772100D03*
%TD*%
%TO.P,X20,P$1*%
%TO.N,N$24*%
X188785600Y-102136100D03*
%TO.P,X20,P$2*%
%TO.N,N$26*%
X188785600Y-98580100D03*
%TD*%
D18*
%TO.P,R2,1*%
%TO.N,N$41*%
X118905600Y-111411100D03*
D19*
%TO.P,R2,2*%
%TO.N,N$39*%
X118065600Y-111411100D03*
%TO.P,R2,3*%
%TO.N,N$37*%
X117265600Y-111411100D03*
D18*
%TO.P,R2,4*%
%TO.N,N$35*%
X116425600Y-111411100D03*
D20*
%TO.P,R2,5*%
%TO.N,VCC*%
X116425600Y-113181100D03*
D21*
%TO.P,R2,6*%
X117265600Y-113181100D03*
%TO.P,R2,7*%
X118065600Y-113181100D03*
D20*
%TO.P,R2,8*%
X118905600Y-113181100D03*
%TD*%
D18*
%TO.P,R4,1*%
%TO.N,N$25*%
X118905600Y-87281100D03*
D19*
%TO.P,R4,2*%
%TO.N,N$23*%
X118065600Y-87281100D03*
%TO.P,R4,3*%
%TO.N,N$21*%
X117265600Y-87281100D03*
D18*
%TO.P,R4,4*%
%TO.N,N$19*%
X116425600Y-87281100D03*
D20*
%TO.P,R4,5*%
%TO.N,VCC*%
X116425600Y-89051100D03*
D21*
%TO.P,R4,6*%
X117265600Y-89051100D03*
%TO.P,R4,7*%
X118065600Y-89051100D03*
D20*
%TO.P,R4,8*%
X118905600Y-89051100D03*
%TD*%
D22*
%TO.P,C9,1*%
%TO.N,GND*%
X172405600Y-104041100D03*
%TO.P,C9,2*%
%TO.N,VCC*%
X169605600Y-104041100D03*
%TD*%
D12*
%TO.P,IC2,1*%
%TO.N,LATCH*%
X124752200Y-90071100D03*
%TO.P,IC2,2*%
%TO.N,SCK*%
X124752200Y-91341100D03*
%TO.P,IC2,3*%
%TO.N,N$27*%
X124752200Y-92611100D03*
%TO.P,IC2,4*%
%TO.N,N$29*%
X124752200Y-93881100D03*
%TO.P,IC2,5*%
%TO.N,N$31*%
X124752200Y-95151100D03*
%TO.P,IC2,6*%
%TO.N,N$33*%
X124752200Y-96421100D03*
%TO.P,IC2,7*%
%TO.N,N/C*%
X124752200Y-97691100D03*
%TO.P,IC2,8*%
%TO.N,GND*%
X124752200Y-98961100D03*
%TO.P,IC2,9*%
%TO.N,N$4*%
X130899000Y-98961100D03*
%TO.P,IC2,10*%
%TO.N,N$2*%
X130899000Y-97691100D03*
%TO.P,IC2,11*%
%TO.N,N$19*%
X130899000Y-96421100D03*
%TO.P,IC2,12*%
%TO.N,N$21*%
X130899000Y-95151100D03*
%TO.P,IC2,13*%
%TO.N,N$23*%
X130899000Y-93881100D03*
%TO.P,IC2,14*%
%TO.N,N$25*%
X130899000Y-92611100D03*
%TO.P,IC2,15*%
%TO.N,GND*%
X130899000Y-91341100D03*
%TO.P,IC2,16*%
%TO.N,VCC*%
X130899000Y-90071100D03*
%TD*%
D10*
%TO.P,X19,P$1*%
%TO.N,N$28*%
X188785600Y-95151100D03*
%TO.P,X19,P$2*%
%TO.N,N$30*%
X188785600Y-91595100D03*
%TD*%
D13*
%TO.P,R6,1*%
%TO.N,N$7*%
X129480600Y-71686100D03*
D14*
%TO.P,R6,2*%
%TO.N,N$5*%
X129480600Y-72526100D03*
%TO.P,R6,3*%
%TO.N,N$3*%
X129480600Y-73326100D03*
D13*
%TO.P,R6,4*%
%TO.N,N$1*%
X129480600Y-74166100D03*
D15*
%TO.P,R6,5*%
%TO.N,VCC*%
X131250600Y-74166100D03*
D16*
%TO.P,R6,6*%
X131250600Y-73326100D03*
%TO.P,R6,7*%
X131250600Y-72526100D03*
D15*
%TO.P,R6,8*%
X131250600Y-71686100D03*
%TD*%
D23*
%TO.P,C5,1*%
%TO.N,GND*%
X106870600Y-74326100D03*
%TO.P,C5,2*%
%TO.N,VCC*%
X106870600Y-71526100D03*
%TD*%
D18*
%TO.P,R1,1*%
%TO.N,N$57*%
X118905600Y-122841100D03*
D19*
%TO.P,R1,2*%
%TO.N,N$47*%
X118065600Y-122841100D03*
%TO.P,R1,3*%
%TO.N,N$45*%
X117265600Y-122841100D03*
D18*
%TO.P,R1,4*%
%TO.N,N$43*%
X116425600Y-122841100D03*
D20*
%TO.P,R1,5*%
%TO.N,VCC*%
X116425600Y-124611100D03*
D21*
%TO.P,R1,6*%
X117265600Y-124611100D03*
%TO.P,R1,7*%
X118065600Y-124611100D03*
D20*
%TO.P,R1,8*%
X118905600Y-124611100D03*
%TD*%
D18*
%TO.P,R3,1*%
%TO.N,N$33*%
X118905600Y-98711100D03*
D19*
%TO.P,R3,2*%
%TO.N,N$31*%
X118065600Y-98711100D03*
%TO.P,R3,3*%
%TO.N,N$29*%
X117265600Y-98711100D03*
D18*
%TO.P,R3,4*%
%TO.N,N$27*%
X116425600Y-98711100D03*
D20*
%TO.P,R3,5*%
%TO.N,VCC*%
X116425600Y-100481100D03*
D21*
%TO.P,R3,6*%
X117265600Y-100481100D03*
%TO.P,R3,7*%
X118065600Y-100481100D03*
D20*
%TO.P,R3,8*%
X118905600Y-100481100D03*
%TD*%
D10*
%TO.P,X24,P$1*%
%TO.N,N$42*%
X188785600Y-130076100D03*
%TO.P,X24,P$2*%
%TO.N,N$44*%
X188785600Y-126520100D03*
%TD*%
D23*
%TO.P,C2,1*%
%TO.N,GND*%
X161480600Y-132746100D03*
%TO.P,C2,2*%
%TO.N,VCC*%
X161480600Y-129946100D03*
%TD*%
D22*
%TO.P,C4,1*%
%TO.N,GND*%
X157165600Y-96421100D03*
%TO.P,C4,2*%
%TO.N,VCC*%
X154365600Y-96421100D03*
%TD*%
D10*
%TO.P,X9,P$1*%
%TO.N,N$13*%
X110680600Y-64036100D03*
%TO.P,X9,P$2*%
%TO.N,N$15*%
X107124600Y-64036100D03*
%TD*%
D22*
%TO.P,C3,1*%
%TO.N,GND*%
X126425600Y-105311100D03*
%TO.P,C3,2*%
%TO.N,VCC*%
X129225600Y-105311100D03*
%TD*%
D24*
%TO.P,X37,1*%
%TO.N,VCC*%
X195135600Y-65941100D03*
%TO.P,X37,2*%
%TO.N,GND*%
X190055600Y-65941100D03*
%TD*%
D20*
%TO.P,R12,1*%
%TO.N,N$48*%
X178655600Y-125881100D03*
D21*
%TO.P,R12,2*%
%TO.N,N$46*%
X179495600Y-125881100D03*
%TO.P,R12,3*%
%TO.N,N$44*%
X180295600Y-125881100D03*
D20*
%TO.P,R12,4*%
%TO.N,N$42*%
X181135600Y-125881100D03*
D18*
%TO.P,R12,5*%
%TO.N,VCC*%
X181135600Y-124111100D03*
D19*
%TO.P,R12,6*%
X180295600Y-124111100D03*
%TO.P,R12,7*%
X179495600Y-124111100D03*
D18*
%TO.P,R12,8*%
X178655600Y-124111100D03*
%TD*%
D20*
%TO.P,R9,1*%
%TO.N,N$38*%
X178655600Y-82701100D03*
D21*
%TO.P,R9,2*%
%TO.N,N$36*%
X179495600Y-82701100D03*
%TO.P,R9,3*%
%TO.N,N$34*%
X180295600Y-82701100D03*
D20*
%TO.P,R9,4*%
%TO.N,N$32*%
X181135600Y-82701100D03*
D18*
%TO.P,R9,5*%
%TO.N,VCC*%
X181135600Y-80931100D03*
D19*
%TO.P,R9,6*%
X180295600Y-80931100D03*
%TO.P,R9,7*%
X179495600Y-80931100D03*
D18*
%TO.P,R9,8*%
X178655600Y-80931100D03*
%TD*%
D10*
%TO.P,X12,P$1*%
%TO.N,N$1*%
X131635600Y-64036100D03*
%TO.P,X12,P$2*%
%TO.N,N$3*%
X128079600Y-64036100D03*
%TD*%
D22*
%TO.P,C7,1*%
%TO.N,GND*%
X121345600Y-81181100D03*
%TO.P,C7,2*%
%TO.N,VCC*%
X124145600Y-81181100D03*
%TD*%
D10*
%TO.P,X28,P$1*%
%TO.N,N$56*%
X163385600Y-145316100D03*
%TO.P,X28,P$2*%
%TO.N,N$58*%
X166941600Y-145316100D03*
%TD*%
D13*
%TO.P,R5,1*%
%TO.N,N$15*%
X110430600Y-71686100D03*
D14*
%TO.P,R5,2*%
%TO.N,N$13*%
X110430600Y-72526100D03*
%TO.P,R5,3*%
%TO.N,N$11*%
X110430600Y-73326100D03*
D13*
%TO.P,R5,4*%
%TO.N,N$9*%
X110430600Y-74166100D03*
D15*
%TO.P,R5,5*%
%TO.N,VCC*%
X112200600Y-74166100D03*
D16*
%TO.P,R5,6*%
X112200600Y-73326100D03*
%TO.P,R5,7*%
X112200600Y-72526100D03*
D15*
%TO.P,R5,8*%
X112200600Y-71686100D03*
%TD*%
D10*
%TO.P,X14,P$1*%
%TO.N,N$14*%
X145605600Y-64036100D03*
%TO.P,X14,P$2*%
%TO.N,N$16*%
X142049600Y-64036100D03*
%TD*%
%TO.P,X10,P$1*%
%TO.N,N$9*%
X117665600Y-64036100D03*
%TO.P,X10,P$2*%
%TO.N,N$11*%
X114109600Y-64036100D03*
%TD*%
D13*
%TO.P,R18,1*%
%TO.N,N$78*%
X110430600Y-136456100D03*
D14*
%TO.P,R18,2*%
%TO.N,N$77*%
X110430600Y-137296100D03*
%TO.P,R18,3*%
%TO.N,N$76*%
X110430600Y-138096100D03*
D13*
%TO.P,R18,4*%
%TO.N,N$75*%
X110430600Y-138936100D03*
D15*
%TO.P,R18,5*%
%TO.N,VCC*%
X112200600Y-138936100D03*
D16*
%TO.P,R18,6*%
X112200600Y-138096100D03*
%TO.P,R18,7*%
X112200600Y-137296100D03*
D15*
%TO.P,R18,8*%
X112200600Y-136456100D03*
%TD*%
D10*
%TO.P,X36,P$1*%
%TO.N,N$75*%
X107505600Y-145316100D03*
%TO.P,X36,P$2*%
%TO.N,N$76*%
X111061600Y-145316100D03*
%TD*%
%TO.P,X7,P$1*%
%TO.N,N$23*%
X107505600Y-86261100D03*
%TO.P,X7,P$2*%
%TO.N,N$25*%
X107505600Y-89817100D03*
%TD*%
D23*
%TO.P,C8,1*%
%TO.N,GND*%
X164020600Y-78136100D03*
%TO.P,C8,2*%
%TO.N,VCC*%
X164020600Y-75336100D03*
%TD*%
D24*
%TO.P,X38,1*%
%TO.N,GND*%
X184975600Y-65941100D03*
%TO.P,X38,2*%
X179895600Y-65941100D03*
%TD*%
D12*
%TO.P,IC1,1*%
%TO.N,LATCH*%
X124752200Y-112931100D03*
%TO.P,IC1,2*%
%TO.N,SCK*%
X124752200Y-114201100D03*
%TO.P,IC1,3*%
%TO.N,N$43*%
X124752200Y-115471100D03*
%TO.P,IC1,4*%
%TO.N,N$45*%
X124752200Y-116741100D03*
%TO.P,IC1,5*%
%TO.N,N$47*%
X124752200Y-118011100D03*
%TO.P,IC1,6*%
%TO.N,N$57*%
X124752200Y-119281100D03*
%TO.P,IC1,7*%
%TO.N,N/C*%
X124752200Y-120551100D03*
%TO.P,IC1,8*%
%TO.N,GND*%
X124752200Y-121821100D03*
%TO.P,IC1,9*%
%TO.N,N$2*%
X130899000Y-121821100D03*
%TO.P,IC1,10*%
%TO.N,N/C*%
X130899000Y-120551100D03*
%TO.P,IC1,11*%
%TO.N,N$35*%
X130899000Y-119281100D03*
%TO.P,IC1,12*%
%TO.N,N$37*%
X130899000Y-118011100D03*
%TO.P,IC1,13*%
%TO.N,N$39*%
X130899000Y-116741100D03*
%TO.P,IC1,14*%
%TO.N,N$41*%
X130899000Y-115471100D03*
%TO.P,IC1,15*%
%TO.N,GND*%
X130899000Y-114201100D03*
%TO.P,IC1,16*%
%TO.N,VCC*%
X130899000Y-112931100D03*
%TD*%
D10*
%TO.P,X35,P$1*%
%TO.N,N$77*%
X114490600Y-145316100D03*
%TO.P,X35,P$2*%
%TO.N,N$78*%
X118046600Y-145316100D03*
%TD*%
D25*
%TO.P,IC9,1*%
%TO.N,LATCH*%
X143700600Y-135689500D03*
%TO.P,IC9,2*%
%TO.N,SCK*%
X144970600Y-135689500D03*
%TO.P,IC9,3*%
%TO.N,N$70*%
X146240600Y-135689500D03*
%TO.P,IC9,4*%
%TO.N,N$71*%
X147510600Y-135689500D03*
%TO.P,IC9,5*%
%TO.N,N$72*%
X148780600Y-135689500D03*
%TO.P,IC9,6*%
%TO.N,N$73*%
X150050600Y-135689500D03*
%TO.P,IC9,7*%
%TO.N,N/C*%
X151320600Y-135689500D03*
%TO.P,IC9,8*%
%TO.N,GND*%
X152590600Y-135689500D03*
%TO.P,IC9,9*%
%TO.N,N$83*%
X152590600Y-129542700D03*
%TO.P,IC9,10*%
%TO.N,N$74*%
X151320600Y-129542700D03*
%TO.P,IC9,11*%
%TO.N,N$66*%
X150050600Y-129542700D03*
%TO.P,IC9,12*%
%TO.N,N$67*%
X148780600Y-129542700D03*
%TO.P,IC9,13*%
%TO.N,N$68*%
X147510600Y-129542700D03*
%TO.P,IC9,14*%
%TO.N,N$69*%
X146240600Y-129542700D03*
%TO.P,IC9,15*%
%TO.N,GND*%
X144970600Y-129542700D03*
%TO.P,IC9,16*%
%TO.N,VCC*%
X143700600Y-129542700D03*
%TD*%
D26*
%TO.P,L2,A*%
%TO.N,VCC*%
X177355600Y-77486100D03*
%TO.P,L2,C*%
%TO.N,N$54*%
X177355600Y-75986100D03*
%TD*%
D10*
%TO.P,X34,P$1*%
%TO.N,N$79*%
X121475600Y-145316100D03*
%TO.P,X34,P$2*%
%TO.N,N$80*%
X125031600Y-145316100D03*
%TD*%
D20*
%TO.P,R10,1*%
%TO.N,N$30*%
X178655600Y-100481100D03*
D21*
%TO.P,R10,2*%
%TO.N,N$28*%
X179495600Y-100481100D03*
%TO.P,R10,3*%
%TO.N,N$26*%
X180295600Y-100481100D03*
D20*
%TO.P,R10,4*%
%TO.N,N$24*%
X181135600Y-100481100D03*
D18*
%TO.P,R10,5*%
%TO.N,VCC*%
X181135600Y-98711100D03*
D19*
%TO.P,R10,6*%
X180295600Y-98711100D03*
%TO.P,R10,7*%
X179495600Y-98711100D03*
D18*
%TO.P,R10,8*%
X178655600Y-98711100D03*
%TD*%
D11*
%TO.P,R19,1*%
%TO.N,GND*%
X157264600Y-109756100D03*
%TO.P,R19,2*%
%TO.N,N$17*%
X154266600Y-109756100D03*
%TD*%
D25*
%TO.P,IC3,1*%
%TO.N,LATCH*%
X115760600Y-77269500D03*
%TO.P,IC3,2*%
%TO.N,SCK*%
X117030600Y-77269500D03*
%TO.P,IC3,3*%
%TO.N,N$9*%
X118300600Y-77269500D03*
%TO.P,IC3,4*%
%TO.N,N$11*%
X119570600Y-77269500D03*
%TO.P,IC3,5*%
%TO.N,N$13*%
X120840600Y-77269500D03*
%TO.P,IC3,6*%
%TO.N,N$15*%
X122110600Y-77269500D03*
%TO.P,IC3,7*%
%TO.N,N/C*%
X123380600Y-77269500D03*
%TO.P,IC3,8*%
%TO.N,GND*%
X124650600Y-77269500D03*
%TO.P,IC3,9*%
%TO.N,N$22*%
X124650600Y-71122700D03*
%TO.P,IC3,10*%
%TO.N,N$4*%
X123380600Y-71122700D03*
%TO.P,IC3,11*%
%TO.N,N$1*%
X122110600Y-71122700D03*
%TO.P,IC3,12*%
%TO.N,N$3*%
X120840600Y-71122700D03*
%TO.P,IC3,13*%
%TO.N,N$5*%
X119570600Y-71122700D03*
%TO.P,IC3,14*%
%TO.N,N$7*%
X118300600Y-71122700D03*
%TO.P,IC3,15*%
%TO.N,GND*%
X117030600Y-71122700D03*
%TO.P,IC3,16*%
%TO.N,VCC*%
X115760600Y-71122700D03*
%TD*%
D10*
%TO.P,X6,P$1*%
%TO.N,N$27*%
X107505600Y-93246100D03*
%TO.P,X6,P$2*%
%TO.N,N$29*%
X107505600Y-96802100D03*
%TD*%
D27*
%TO.P,U$2,P$3*%
%TO.N,GND*%
X195135600Y-142776100D03*
%TO.P,U$2,P$4*%
X195135600Y-147856100D03*
%TD*%
D10*
%TO.P,X23,P$1*%
%TO.N,N$46*%
X188785600Y-123091100D03*
%TO.P,X23,P$2*%
%TO.N,N$48*%
X188785600Y-119535100D03*
%TD*%
%TO.P,X22,P$1*%
%TO.N,N$49*%
X188785600Y-116106100D03*
%TO.P,X22,P$2*%
%TO.N,N$50*%
X188785600Y-112550100D03*
%TD*%
%TO.P,X27,P$1*%
%TO.N,N$59*%
X170370600Y-145316100D03*
%TO.P,X27,P$2*%
%TO.N,N$60*%
X173926600Y-145316100D03*
%TD*%
D26*
%TO.P,L1,A*%
%TO.N,D3*%
X181165600Y-77486100D03*
%TO.P,L1,C*%
%TO.N,N$17*%
X181165600Y-75986100D03*
%TD*%
D15*
%TO.P,R7,1*%
%TO.N,N$20*%
X156650600Y-74166100D03*
D16*
%TO.P,R7,2*%
%TO.N,N$18*%
X156650600Y-73326100D03*
%TO.P,R7,3*%
%TO.N,N$16*%
X156650600Y-72526100D03*
D15*
%TO.P,R7,4*%
%TO.N,N$14*%
X156650600Y-71686100D03*
D13*
%TO.P,R7,5*%
%TO.N,VCC*%
X154880600Y-71686100D03*
D14*
%TO.P,R7,6*%
X154880600Y-72526100D03*
%TO.P,R7,7*%
X154880600Y-73326100D03*
D13*
%TO.P,R7,8*%
X154880600Y-74166100D03*
%TD*%
D10*
%TO.P,X8,P$1*%
%TO.N,N$19*%
X107505600Y-79276100D03*
%TO.P,X8,P$2*%
%TO.N,N$21*%
X107505600Y-82832100D03*
%TD*%
%TO.P,X30,P$1*%
%TO.N,N$70*%
X149415600Y-145316100D03*
%TO.P,X30,P$2*%
%TO.N,N$71*%
X152971600Y-145316100D03*
%TD*%
%TO.P,X13,P$1*%
%TO.N,N$18*%
X138620600Y-64036100D03*
%TO.P,X13,P$2*%
%TO.N,N$20*%
X135064600Y-64036100D03*
%TD*%
%TO.P,X25,P$1*%
%TO.N,N$63*%
X184340600Y-145316100D03*
%TO.P,X25,P$2*%
%TO.N,N$64*%
X187896600Y-145316100D03*
%TD*%
%TO.P,X18,P$1*%
%TO.N,N$32*%
X188785600Y-88166100D03*
%TO.P,X18,P$2*%
%TO.N,N$34*%
X188785600Y-84610100D03*
%TD*%
%TO.P,X11,P$1*%
%TO.N,N$5*%
X124650600Y-64036100D03*
%TO.P,X11,P$2*%
%TO.N,N$7*%
X121094600Y-64036100D03*
%TD*%
D13*
%TO.P,R15,1*%
%TO.N,N$73*%
X156150600Y-136456100D03*
D14*
%TO.P,R15,2*%
%TO.N,N$72*%
X156150600Y-137296100D03*
%TO.P,R15,3*%
%TO.N,N$71*%
X156150600Y-138096100D03*
D13*
%TO.P,R15,4*%
%TO.N,N$70*%
X156150600Y-138936100D03*
D15*
%TO.P,R15,5*%
%TO.N,VCC*%
X157920600Y-138936100D03*
D16*
%TO.P,R15,6*%
X157920600Y-138096100D03*
%TO.P,R15,7*%
X157920600Y-137296100D03*
D15*
%TO.P,R15,8*%
X157920600Y-136456100D03*
%TD*%
D22*
%TO.P,C6,1*%
%TO.N,GND*%
X146745600Y-82451100D03*
%TO.P,C6,2*%
%TO.N,VCC*%
X149545600Y-82451100D03*
%TD*%
D10*
%TO.P,X26,P$1*%
%TO.N,N$61*%
X177355600Y-145316100D03*
%TO.P,X26,P$2*%
%TO.N,N$62*%
X180911600Y-145316100D03*
%TD*%
D25*
%TO.P,IC10,1*%
%TO.N,LATCH*%
X115760600Y-135689500D03*
%TO.P,IC10,2*%
%TO.N,SCK*%
X117030600Y-135689500D03*
%TO.P,IC10,3*%
%TO.N,N$79*%
X118300600Y-135689500D03*
%TO.P,IC10,4*%
%TO.N,N$80*%
X119570600Y-135689500D03*
%TO.P,IC10,5*%
%TO.N,N$81*%
X120840600Y-135689500D03*
%TO.P,IC10,6*%
%TO.N,N$82*%
X122110600Y-135689500D03*
%TO.P,IC10,7*%
%TO.N,N/C*%
X123380600Y-135689500D03*
%TO.P,IC10,8*%
%TO.N,GND*%
X124650600Y-135689500D03*
%TO.P,IC10,9*%
%TO.N,SO*%
X124650600Y-129542700D03*
%TO.P,IC10,10*%
%TO.N,N$83*%
X123380600Y-129542700D03*
%TO.P,IC10,11*%
%TO.N,N$75*%
X122110600Y-129542700D03*
%TO.P,IC10,12*%
%TO.N,N$76*%
X120840600Y-129542700D03*
%TO.P,IC10,13*%
%TO.N,N$77*%
X119570600Y-129542700D03*
%TO.P,IC10,14*%
%TO.N,N$78*%
X118300600Y-129542700D03*
%TO.P,IC10,15*%
%TO.N,GND*%
X117030600Y-129542700D03*
%TO.P,IC10,16*%
%TO.N,VCC*%
X115760600Y-129542700D03*
%TD*%
D23*
%TO.P,C1,1*%
%TO.N,GND*%
X133540600Y-132746100D03*
%TO.P,C1,2*%
%TO.N,VCC*%
X133540600Y-129946100D03*
%TD*%
D25*
%TO.P,IC4,1*%
%TO.N,LATCH*%
X142430600Y-77269500D03*
%TO.P,IC4,2*%
%TO.N,SCK*%
X143700600Y-77269500D03*
%TO.P,IC4,3*%
%TO.N,N$14*%
X144970600Y-77269500D03*
%TO.P,IC4,4*%
%TO.N,N$16*%
X146240600Y-77269500D03*
%TO.P,IC4,5*%
%TO.N,N$18*%
X147510600Y-77269500D03*
%TO.P,IC4,6*%
%TO.N,N$20*%
X148780600Y-77269500D03*
%TO.P,IC4,7*%
%TO.N,N/C*%
X150050600Y-77269500D03*
%TO.P,IC4,8*%
%TO.N,GND*%
X151320600Y-77269500D03*
%TO.P,IC4,9*%
%TO.N,N$40*%
X151320600Y-71122700D03*
%TO.P,IC4,10*%
%TO.N,N$22*%
X150050600Y-71122700D03*
%TO.P,IC4,11*%
%TO.N,N$6*%
X148780600Y-71122700D03*
%TO.P,IC4,12*%
%TO.N,N$8*%
X147510600Y-71122700D03*
%TO.P,IC4,13*%
%TO.N,N$10*%
X146240600Y-71122700D03*
%TO.P,IC4,14*%
%TO.N,N$12*%
X144970600Y-71122700D03*
%TO.P,IC4,15*%
%TO.N,GND*%
X143700600Y-71122700D03*
%TO.P,IC4,16*%
%TO.N,VCC*%
X142430600Y-71122700D03*
%TD*%
D10*
%TO.P,X33,P$1*%
%TO.N,N$81*%
X128460600Y-145316100D03*
%TO.P,X33,P$2*%
%TO.N,N$82*%
X132016600Y-145316100D03*
%TD*%
%TO.P,X39,P$1*%
%TO.N,B*%
X167830600Y-67846100D03*
%TO.P,X39,P$2*%
X164274600Y-67846100D03*
%TD*%
D13*
%TO.P,R8,1*%
%TO.N,N$12*%
X137100600Y-71686100D03*
D14*
%TO.P,R8,2*%
%TO.N,N$10*%
X137100600Y-72526100D03*
%TO.P,R8,3*%
%TO.N,N$8*%
X137100600Y-73326100D03*
D13*
%TO.P,R8,4*%
%TO.N,N$6*%
X137100600Y-74166100D03*
D15*
%TO.P,R8,5*%
%TO.N,VCC*%
X138870600Y-74166100D03*
D16*
%TO.P,R8,6*%
X138870600Y-73326100D03*
%TO.P,R8,7*%
X138870600Y-72526100D03*
D15*
%TO.P,R8,8*%
X138870600Y-71686100D03*
%TD*%
D10*
%TO.P,X1,P$1*%
%TO.N,N$47*%
X107505600Y-128171100D03*
%TO.P,X1,P$2*%
%TO.N,N$57*%
X107505600Y-131727100D03*
%TD*%
%TO.P,X2,P$1*%
%TO.N,N$43*%
X107505600Y-121186100D03*
%TO.P,X2,P$2*%
%TO.N,N$45*%
X107505600Y-124742100D03*
%TD*%
D25*
%TO.P,IC8,1*%
%TO.N,LATCH*%
X171640600Y-135689500D03*
%TO.P,IC8,2*%
%TO.N,SCK*%
X172910600Y-135689500D03*
%TO.P,IC8,3*%
%TO.N,N$61*%
X174180600Y-135689500D03*
%TO.P,IC8,4*%
%TO.N,N$62*%
X175450600Y-135689500D03*
%TO.P,IC8,5*%
%TO.N,N$63*%
X176720600Y-135689500D03*
%TO.P,IC8,6*%
%TO.N,N$64*%
X177990600Y-135689500D03*
%TO.P,IC8,7*%
%TO.N,N/C*%
X179260600Y-135689500D03*
%TO.P,IC8,8*%
%TO.N,GND*%
X180530600Y-135689500D03*
%TO.P,IC8,9*%
%TO.N,N$74*%
X180530600Y-129542700D03*
%TO.P,IC8,10*%
%TO.N,N$65*%
X179260600Y-129542700D03*
%TO.P,IC8,11*%
%TO.N,N$56*%
X177990600Y-129542700D03*
%TO.P,IC8,12*%
%TO.N,N$58*%
X176720600Y-129542700D03*
%TO.P,IC8,13*%
%TO.N,N$59*%
X175450600Y-129542700D03*
%TO.P,IC8,14*%
%TO.N,N$60*%
X174180600Y-129542700D03*
%TO.P,IC8,15*%
%TO.N,GND*%
X172910600Y-129542700D03*
%TO.P,IC8,16*%
%TO.N,VCC*%
X171640600Y-129542700D03*
%TD*%
D13*
%TO.P,R16,1*%
%TO.N,N$69*%
X138370600Y-136456100D03*
D14*
%TO.P,R16,2*%
%TO.N,N$68*%
X138370600Y-137296100D03*
%TO.P,R16,3*%
%TO.N,N$67*%
X138370600Y-138096100D03*
D13*
%TO.P,R16,4*%
%TO.N,N$66*%
X138370600Y-138936100D03*
D15*
%TO.P,R16,5*%
%TO.N,VCC*%
X140140600Y-138936100D03*
D16*
%TO.P,R16,6*%
X140140600Y-138096100D03*
%TO.P,R16,7*%
X140140600Y-137296100D03*
D15*
%TO.P,R16,8*%
X140140600Y-136456100D03*
%TD*%
D10*
%TO.P,X3,P$1*%
%TO.N,N$39*%
X107505600Y-114201100D03*
%TO.P,X3,P$2*%
%TO.N,N$41*%
X107505600Y-117757100D03*
%TD*%
D13*
%TO.P,R14,1*%
%TO.N,N$60*%
X166310600Y-136456100D03*
D14*
%TO.P,R14,2*%
%TO.N,N$59*%
X166310600Y-137296100D03*
%TO.P,R14,3*%
%TO.N,N$58*%
X166310600Y-138096100D03*
D13*
%TO.P,R14,4*%
%TO.N,N$56*%
X166310600Y-138936100D03*
D15*
%TO.P,R14,5*%
%TO.N,VCC*%
X168080600Y-138936100D03*
D16*
%TO.P,R14,6*%
X168080600Y-138096100D03*
%TO.P,R14,7*%
X168080600Y-137296100D03*
D15*
%TO.P,R14,8*%
X168080600Y-136456100D03*
%TD*%
D10*
%TO.P,X16,P$1*%
%TO.N,N$6*%
X159575600Y-64036100D03*
%TO.P,X16,P$2*%
%TO.N,N$8*%
X156019600Y-64036100D03*
%TD*%
%TO.P,X17,P$1*%
%TO.N,N$36*%
X188785600Y-81181100D03*
%TO.P,X17,P$2*%
%TO.N,N$38*%
X188785600Y-77625100D03*
%TD*%
D20*
%TO.P,R11,1*%
%TO.N,N$52*%
X178655600Y-108101100D03*
D21*
%TO.P,R11,2*%
%TO.N,N$51*%
X179495600Y-108101100D03*
%TO.P,R11,3*%
%TO.N,N$50*%
X180295600Y-108101100D03*
D20*
%TO.P,R11,4*%
%TO.N,N$49*%
X181135600Y-108101100D03*
D18*
%TO.P,R11,5*%
%TO.N,VCC*%
X181135600Y-106331100D03*
D19*
%TO.P,R11,6*%
X180295600Y-106331100D03*
%TO.P,R11,7*%
X179495600Y-106331100D03*
D18*
%TO.P,R11,8*%
X178655600Y-106331100D03*
%TD*%
D10*
%TO.P,X5,P$1*%
%TO.N,N$31*%
X107505600Y-100231100D03*
%TO.P,X5,P$2*%
%TO.N,N$33*%
X107505600Y-103787100D03*
%TD*%
D28*
%TO.P,ARDUINO_NANO1,1*%
%TO.N,SCK*%
X163385600Y-121186100D03*
D29*
%TO.P,ARDUINO_NANO1,2*%
%TO.N,N/C*%
X163385600Y-118646100D03*
%TO.P,ARDUINO_NANO1,3*%
X163385600Y-116106100D03*
%TO.P,ARDUINO_NANO1,4*%
X163385600Y-113566100D03*
%TO.P,ARDUINO_NANO1,5*%
X163385600Y-111026100D03*
%TO.P,ARDUINO_NANO1,6*%
X163385600Y-108486100D03*
%TO.P,ARDUINO_NANO1,7*%
X163385600Y-105946100D03*
%TO.P,ARDUINO_NANO1,8*%
X163385600Y-103406100D03*
%TO.P,ARDUINO_NANO1,9*%
X163385600Y-100866100D03*
%TO.P,ARDUINO_NANO1,10*%
X163385600Y-98326100D03*
%TO.P,ARDUINO_NANO1,11*%
X163385600Y-95786100D03*
%TO.P,ARDUINO_NANO1,12*%
%TO.N,5V*%
X163385600Y-93246100D03*
%TO.P,ARDUINO_NANO1,13*%
%TO.N,N/C*%
X163385600Y-90706100D03*
%TO.P,ARDUINO_NANO1,14*%
%TO.N,GND*%
X163385600Y-88166100D03*
%TO.P,ARDUINO_NANO1,15*%
%TO.N,VIN*%
X163385600Y-85626100D03*
%TO.P,ARDUINO_NANO1,16*%
%TO.N,TX*%
X148145600Y-85626100D03*
%TO.P,ARDUINO_NANO1,17*%
%TO.N,RX*%
X148145600Y-88166100D03*
%TO.P,ARDUINO_NANO1,18*%
%TO.N,N/C*%
X148145600Y-90706100D03*
%TO.P,ARDUINO_NANO1,19*%
%TO.N,GND*%
X148145600Y-93246100D03*
%TO.P,ARDUINO_NANO1,20*%
%TO.N,N$55*%
X148145600Y-95786100D03*
%TO.P,ARDUINO_NANO1,21*%
%TO.N,D3*%
X148145600Y-98326100D03*
%TO.P,ARDUINO_NANO1,22*%
%TO.N,N/C*%
X148145600Y-100866100D03*
%TO.P,ARDUINO_NANO1,23*%
X148145600Y-103406100D03*
%TO.P,ARDUINO_NANO1,24*%
X148145600Y-105946100D03*
%TO.P,ARDUINO_NANO1,25*%
X148145600Y-108486100D03*
%TO.P,ARDUINO_NANO1,26*%
X148145600Y-111026100D03*
%TO.P,ARDUINO_NANO1,27*%
%TO.N,LATCH*%
X148145600Y-113566100D03*
%TO.P,ARDUINO_NANO1,28*%
%TO.N,N/C*%
X148145600Y-116106100D03*
%TO.P,ARDUINO_NANO1,29*%
X148145600Y-118646100D03*
%TO.P,ARDUINO_NANO1,30*%
%TO.N,SO*%
X148145600Y-121186100D03*
%TD*%
D27*
%TO.P,U$1,P$3*%
%TO.N,GND*%
X101155600Y-142776100D03*
%TO.P,U$1,P$4*%
X101155600Y-147856100D03*
%TD*%
D12*
%TO.P,IC5,1*%
%TO.N,LATCH*%
X174079000Y-95151100D03*
%TO.P,IC5,2*%
%TO.N,SCK*%
X174079000Y-93881100D03*
%TO.P,IC5,3*%
%TO.N,N$32*%
X174079000Y-92611100D03*
%TO.P,IC5,4*%
%TO.N,N$34*%
X174079000Y-91341100D03*
%TO.P,IC5,5*%
%TO.N,N$36*%
X174079000Y-90071100D03*
%TO.P,IC5,6*%
%TO.N,N$38*%
X174079000Y-88801100D03*
%TO.P,IC5,7*%
%TO.N,N/C*%
X174079000Y-87531100D03*
%TO.P,IC5,8*%
%TO.N,GND*%
X174079000Y-86261100D03*
%TO.P,IC5,9*%
%TO.N,N$53*%
X167932200Y-86261100D03*
%TO.P,IC5,10*%
%TO.N,N$40*%
X167932200Y-87531100D03*
%TO.P,IC5,11*%
%TO.N,N$24*%
X167932200Y-88801100D03*
%TO.P,IC5,12*%
%TO.N,N$26*%
X167932200Y-90071100D03*
%TO.P,IC5,13*%
%TO.N,N$28*%
X167932200Y-91341100D03*
%TO.P,IC5,14*%
%TO.N,N$30*%
X167932200Y-92611100D03*
%TO.P,IC5,15*%
%TO.N,GND*%
X167932200Y-93881100D03*
%TO.P,IC5,16*%
%TO.N,VCC*%
X167932200Y-95151100D03*
%TD*%
D13*
%TO.P,R17,1*%
%TO.N,N$82*%
X128210600Y-136456100D03*
D14*
%TO.P,R17,2*%
%TO.N,N$81*%
X128210600Y-137296100D03*
%TO.P,R17,3*%
%TO.N,N$80*%
X128210600Y-138096100D03*
D13*
%TO.P,R17,4*%
%TO.N,N$79*%
X128210600Y-138936100D03*
D15*
%TO.P,R17,5*%
%TO.N,VCC*%
X129980600Y-138936100D03*
D16*
%TO.P,R17,6*%
X129980600Y-138096100D03*
%TO.P,R17,7*%
X129980600Y-137296100D03*
D15*
%TO.P,R17,8*%
X129980600Y-136456100D03*
%TD*%
D30*
%TO.N,GND*%
X129095600Y-114201100D03*
X126555600Y-121821100D03*
X124809350Y-100072350D03*
X157353100Y-111184850D03*
X181641850Y-135632350D03*
X162909350Y-131346100D03*
X174021850Y-85149850D03*
X125761850Y-135632350D03*
X164020600Y-79752350D03*
X144970600Y-127694850D03*
X131794350Y-132774850D03*
X174021850Y-110549850D03*
X117030600Y-69274850D03*
X129095600Y-91341100D03*
X153701850Y-135632350D03*
X169735600Y-119281100D03*
X123063100Y-79593600D03*
X143700600Y-72926100D03*
X172434350Y-102294850D03*
X124809350Y-105311100D03*
X106870600Y-75942350D03*
X117030600Y-131346100D03*
%TO.N,VCC*%
X165131850Y-135156100D03*
X170529350Y-121979850D03*
X112426850Y-133727350D03*
X170529350Y-128806100D03*
X114014350Y-131346100D03*
%TO.N,N$1*%
X127031850Y-72767350D03*
%TO.N,N$5*%
X128301850Y-72608600D03*
%TO.N,N$9*%
X114808100Y-75783600D03*
%TO.N,N$11*%
X109251850Y-72767350D03*
X112903100Y-78799850D03*
%TO.N,N$13*%
X113379350Y-72767350D03*
X113061850Y-70227350D03*
%TO.N,N$15*%
X111474350Y-78799850D03*
X109569350Y-76894850D03*
%TO.N,N$19*%
X114808100Y-87054850D03*
X129095600Y-96103600D03*
%TO.N,N$21*%
X126555600Y-95151100D03*
X113061850Y-87054850D03*
%TO.N,N$23*%
X126555600Y-93881100D03*
X122904350Y-90229850D03*
%TO.N,N$25*%
X109251850Y-85308600D03*
X121793100Y-87689850D03*
X126555600Y-92452350D03*
%TO.N,N$33*%
X119094350Y-97532350D03*
%TO.N,N$35*%
X120046850Y-120233600D03*
X110998100Y-111184850D03*
%TO.N,N$37*%
X126555600Y-116423600D03*
X119729350Y-109597350D03*
%TO.N,N$39*%
X126555600Y-115153600D03*
X121475600Y-110073600D03*
%TO.N,N$41*%
X129571850Y-111661100D03*
X127984350Y-110073600D03*
%TO.N,N$45*%
X111950600Y-120233600D03*
%TO.N,N$47*%
X115284350Y-127536100D03*
X117506850Y-127536100D03*
%TO.N,N$57*%
X119094350Y-121662350D03*
%TO.N,LATCH*%
X114649350Y-77847350D03*
X136239350Y-99754850D03*
X175609350Y-97532350D03*
X175926850Y-95309850D03*
X129413100Y-135156100D03*
X126555600Y-89912350D03*
X172275600Y-124043600D03*
X128301850Y-87689850D03*
X127508100Y-133251100D03*
X169576850Y-135156100D03*
X127508100Y-123726100D03*
X127349350Y-113407350D03*
X172275600Y-120709850D03*
%TO.N,SCK*%
X135286850Y-112613600D03*
X128460600Y-131028600D03*
X127825600Y-89912350D03*
X129571850Y-87848600D03*
X171164350Y-95309850D03*
X166084350Y-132298600D03*
X128460600Y-115788600D03*
X169735600Y-120551100D03*
%TO.N,N$55*%
X152590600Y-91182350D03*
%TO.N,TX*%
X159893100Y-82451100D03*
%TO.N,RX*%
X150844350Y-85467350D03*
%TO.N,N$2*%
X133699350Y-101024850D03*
X132588100Y-98326100D03*
%TO.N,N$4*%
X124015600Y-69433600D03*
X133540600Y-91182350D03*
%TO.N,N$17*%
X174021850Y-104517350D03*
X171640600Y-106898600D03*
%TO.N,N$54*%
X176244350Y-76418600D03*
X165131850Y-96103600D03*
%TO.N,N$8*%
X135921850Y-70386100D03*
%TO.N,N$10*%
X149574350Y-68798600D03*
X140366850Y-70386100D03*
X146240600Y-72926100D03*
X140208100Y-64988600D03*
%TO.N,N$12*%
X144970600Y-72926100D03*
X144970600Y-68004850D03*
X138461850Y-68004850D03*
X137191850Y-70386100D03*
%TO.N,N$14*%
X153384350Y-69909850D03*
X146558100Y-79117350D03*
%TO.N,N$16*%
X147510600Y-75307350D03*
X147510600Y-73084850D03*
%TO.N,N$18*%
X153384350Y-67211100D03*
X145764350Y-80069850D03*
%TO.N,N$20*%
X157829350Y-73878600D03*
X154813100Y-75624850D03*
%TO.N,N$22*%
X136080600Y-68481100D03*
X129413100Y-70386100D03*
%TO.N,N$24*%
X172275600Y-88801100D03*
X177038100Y-93087350D03*
%TO.N,N$26*%
X177196850Y-95151100D03*
X170053100Y-90388600D03*
%TO.N,N$28*%
X175768100Y-93246100D03*
X172275600Y-91341100D03*
X181483100Y-102136100D03*
%TO.N,N$30*%
X178308100Y-101659850D03*
X171164350Y-94039850D03*
%TO.N,N$36*%
X179419350Y-83879850D03*
%TO.N,N$40*%
X158623100Y-82451100D03*
X151479350Y-69274850D03*
%TO.N,N$42*%
X172275600Y-114677350D03*
X176085600Y-118487350D03*
%TO.N,N$46*%
X172275600Y-116741100D03*
X175926850Y-120392350D03*
%TO.N,N$48*%
X172275600Y-118328600D03*
X177831850Y-124996100D03*
%TO.N,N$49*%
X182276850Y-108327350D03*
%TO.N,N$52*%
X177831850Y-107216100D03*
%TO.N,N$53*%
X166084350Y-92769850D03*
X166560600Y-108327350D03*
%TO.N,N$56*%
X165131850Y-138648600D03*
%TO.N,N$58*%
X171640600Y-140077350D03*
X167195600Y-135632350D03*
X168624350Y-140077350D03*
X176720600Y-133251100D03*
%TO.N,N$59*%
X165131850Y-137378600D03*
X168306850Y-133251100D03*
%TO.N,N$60*%
X171323100Y-132457350D03*
X170370600Y-137537350D03*
%TO.N,N$62*%
X179736850Y-138966100D03*
%TO.N,N$63*%
X182118100Y-138013600D03*
%TO.N,N$64*%
X182753100Y-136902350D03*
%TO.N,N$65*%
X177355600Y-118487350D03*
X172275600Y-113407350D03*
%TO.N,N$66*%
X135921850Y-138489850D03*
X141001850Y-129123600D03*
%TO.N,N$67*%
X141319350Y-139442350D03*
X142271850Y-129123600D03*
%TO.N,N$68*%
X136556850Y-137378600D03*
X136874350Y-140712350D03*
X146875600Y-140394850D03*
X147510600Y-127694850D03*
%TO.N,N$69*%
X146240600Y-127694850D03*
X138144350Y-141347350D03*
X137191850Y-136267350D03*
%TO.N,N$75*%
X111950600Y-140553600D03*
X119729350Y-132774850D03*
%TO.N,N$77*%
X108616850Y-139442350D03*
%TO.N,N$80*%
X122428100Y-139601100D03*
%TO.N,N$81*%
X126079350Y-137696100D03*
%TO.N,N$82*%
X127031850Y-136584850D03*
%TO.N,N$83*%
X153701850Y-130076100D03*
X151479350Y-132298600D03*
%TO.N,D3*%
X179101850Y-77688600D03*
X160845600Y-85626100D03*
X177514350Y-79276100D03*
%TD*%
D31*
%TO.N,GND*%
X155606850Y-97849850D02*
X152749350Y-97849850D01*
X123063100Y-79593600D02*
X121475600Y-81181100D01*
X146875600Y-93246100D02*
X146875600Y-82609850D01*
X124809350Y-98961100D02*
X124752200Y-98961100D01*
X157194350Y-104676100D02*
X157264600Y-104676100D01*
X181641850Y-135632350D02*
X180530600Y-135632350D01*
X162829975Y-131266725D02*
X161480600Y-132616100D01*
X165608100Y-93881100D02*
X167932200Y-93881100D01*
X157353100Y-111184850D02*
X157353100Y-109756100D01*
X124015600Y-78799850D02*
X123856850Y-78799850D01*
X179895600Y-68322350D02*
X174180600Y-74037350D01*
X124650600Y-78164850D02*
X124015600Y-78799850D01*
X153066850Y-105787350D02*
X156083100Y-105787350D01*
X162909350Y-131187350D02*
X162829975Y-131266725D01*
X164655600Y-88166100D02*
X164655600Y-92928600D01*
X174021850Y-85149850D02*
X174021850Y-86261100D01*
X180530600Y-135632350D02*
X180530600Y-135689500D01*
X124809350Y-105311100D02*
X126425600Y-105311100D01*
X174021850Y-110549850D02*
X174021850Y-111661100D01*
X172910600Y-130393600D02*
X172116850Y-131187350D01*
X146875600Y-82609850D02*
X146745600Y-82451100D01*
X106870600Y-75942350D02*
X106870600Y-74326100D01*
X164655600Y-92928600D02*
X165608100Y-93881100D01*
X157035600Y-96421100D02*
X155606850Y-97849850D01*
X152590600Y-135632350D02*
X152590600Y-135689500D01*
X174021850Y-111661100D02*
X174079000Y-111661100D01*
X152749350Y-105469850D02*
X153066850Y-105787350D01*
X131794350Y-132774850D02*
X133540600Y-132774850D01*
X150685600Y-78799850D02*
X150526850Y-78799850D01*
X172434350Y-104041100D02*
X172405600Y-104041100D01*
X129095600Y-91341100D02*
X130899000Y-91341100D01*
X152749350Y-97849850D02*
X152749350Y-105469850D01*
X162909350Y-131346100D02*
X162829975Y-131266725D01*
X146875600Y-82451100D02*
X146745600Y-82451100D01*
X148145600Y-93246100D02*
X146875600Y-93246100D01*
X164020600Y-79752350D02*
X164020600Y-78136100D01*
X144970600Y-127694850D02*
X144970600Y-129542700D01*
X161480600Y-132616100D02*
X161480600Y-132746100D01*
X163385600Y-88166100D02*
X164655600Y-88166100D01*
X172116850Y-131187350D02*
X162909350Y-131187350D01*
X153701850Y-135632350D02*
X152590600Y-135632350D01*
X156083100Y-105787350D02*
X157194350Y-104676100D01*
X117030600Y-131346100D02*
X117030600Y-129542700D01*
X124650600Y-135632350D02*
X124650600Y-135689500D01*
X172910600Y-129542700D02*
X172910600Y-130393600D01*
X174180600Y-74037350D02*
X174180600Y-74136100D01*
X150526850Y-78799850D02*
X146875600Y-82451100D01*
X125761850Y-135632350D02*
X124650600Y-135632350D01*
X179895600Y-65941100D02*
X179895600Y-68322350D01*
X129095600Y-114201100D02*
X130899000Y-114201100D01*
X143700600Y-72926100D02*
X143700600Y-71122700D01*
X151320600Y-78164850D02*
X150685600Y-78799850D01*
X151320600Y-77269500D02*
X151320600Y-78164850D01*
X169735600Y-119281100D02*
X167932200Y-119281100D01*
X157035600Y-96421100D02*
X157165600Y-96421100D01*
X174021850Y-86261100D02*
X174079000Y-86261100D01*
X157353100Y-109756100D02*
X157264600Y-109756100D01*
X124809350Y-100072350D02*
X124809350Y-98961100D01*
X133540600Y-132774850D02*
X133540600Y-132746100D01*
X148145600Y-93246100D02*
X152749350Y-97849850D01*
X172434350Y-102294850D02*
X172434350Y-104041100D01*
X124650600Y-77269500D02*
X124650600Y-78164850D01*
X121475600Y-81181100D02*
X121345600Y-81181100D01*
X123856850Y-78799850D02*
X123063100Y-79593600D01*
X126555600Y-121821100D02*
X124752200Y-121821100D01*
X117030600Y-69274850D02*
X117030600Y-71122700D01*
%TO.N,VCC*%
X180530600Y-106263600D02*
X181006850Y-106263600D01*
X140208100Y-137061100D02*
X140140600Y-137296100D01*
X144335600Y-131187350D02*
X143383100Y-130234850D01*
X130048100Y-137061100D02*
X130048100Y-136584850D01*
X176403100Y-96421100D02*
X177355600Y-97373600D01*
X119094350Y-100707350D02*
X118905600Y-100481100D01*
X168465600Y-138807350D02*
X168080600Y-138936100D01*
X117189350Y-88959850D02*
X117265600Y-89051100D01*
X113061850Y-71338600D02*
X112585600Y-71814850D01*
X169894350Y-74672350D02*
X170370600Y-74196100D01*
X179736850Y-124043600D02*
X179495600Y-124111100D01*
X130365600Y-138807350D02*
X129980600Y-138936100D01*
X156241850Y-75307350D02*
X155130600Y-74196100D01*
X115760600Y-71179850D02*
X115760600Y-71122700D01*
X132429350Y-74831100D02*
X131635600Y-74037350D01*
X181006850Y-106263600D02*
X181135600Y-106331100D01*
X168148100Y-138807350D02*
X168080600Y-138936100D01*
X131318100Y-73402350D02*
X131250600Y-73326100D01*
X185928100Y-138172350D02*
X185860600Y-138096100D01*
X181006850Y-98643600D02*
X181135600Y-98711100D01*
X181006850Y-80863600D02*
X181135600Y-80931100D01*
X118776850Y-100389850D02*
X118905600Y-100481100D01*
X110521850Y-119122350D02*
X106235600Y-119122350D01*
X161321850Y-130076100D02*
X160210600Y-131187350D01*
X106711850Y-147062350D02*
X135445600Y-147062350D01*
X180530600Y-124043600D02*
X181006850Y-124043600D01*
X180530600Y-124043600D02*
X180295600Y-124111100D01*
X118300600Y-88959850D02*
X118065600Y-89051100D01*
X117506850Y-100389850D02*
X117265600Y-100481100D01*
X131318100Y-74037350D02*
X131250600Y-74166100D01*
X185928100Y-136584850D02*
X185860600Y-136456100D01*
X186086850Y-74989850D02*
X195135600Y-65941100D01*
X131318100Y-73084850D02*
X131250600Y-73326100D01*
X130048100Y-137854850D02*
X129980600Y-138096100D01*
X139255600Y-71814850D02*
X138870600Y-71686100D01*
X139414350Y-147538600D02*
X137191850Y-145316100D01*
X154971850Y-72291100D02*
X154880600Y-72526100D01*
X112268100Y-137061100D02*
X112268100Y-136584850D01*
X164179350Y-75148600D02*
X164020600Y-75336100D01*
X105759350Y-133092350D02*
X105759350Y-146109850D01*
X128936850Y-88801100D02*
X124174350Y-88801100D01*
X118300600Y-100389850D02*
X118776850Y-100389850D01*
X139255600Y-71814850D02*
X141795600Y-71814850D01*
X138620600Y-74354850D02*
X138870600Y-74166100D01*
X112268100Y-138807350D02*
X112200600Y-138936100D01*
X154971850Y-73402350D02*
X154971850Y-74037350D01*
X113855600Y-131504850D02*
X114014350Y-131346100D01*
X168148100Y-137061100D02*
X168148100Y-136584850D01*
X168148100Y-137061100D02*
X168080600Y-137296100D01*
X173228100Y-140077350D02*
X184658100Y-140077350D01*
X181006850Y-124043600D02*
X181135600Y-124111100D01*
X112426850Y-133727350D02*
X112426850Y-136267350D01*
X171640600Y-129599850D02*
X170529350Y-129599850D01*
X180213100Y-74989850D02*
X186086850Y-74989850D01*
X131318100Y-73084850D02*
X131318100Y-72608600D01*
X157988100Y-138807350D02*
X157920600Y-138936100D01*
X115760600Y-129599850D02*
X114014350Y-131346100D01*
X164179350Y-75148600D02*
X169418100Y-75148600D01*
X112585600Y-71814850D02*
X112200600Y-71686100D01*
X169894350Y-103882350D02*
X169605600Y-104041100D01*
X138620600Y-74354850D02*
X137985600Y-74989850D01*
X140208100Y-136584850D02*
X140140600Y-136456100D01*
X112268100Y-73402350D02*
X112200600Y-73326100D01*
X116554350Y-113089850D02*
X116425600Y-113181100D01*
X130899000Y-90071100D02*
X134651850Y-90071100D01*
X159258100Y-139759850D02*
X158305600Y-138807350D01*
X157988100Y-138172350D02*
X157988100Y-138807350D01*
X107029350Y-122456100D02*
X114173100Y-122456100D01*
X154971850Y-74037350D02*
X154880600Y-74166100D01*
X112268100Y-138172350D02*
X112268100Y-138807350D01*
X169259350Y-96421100D02*
X176403100Y-96421100D01*
X124174350Y-88801100D02*
X124174350Y-81181100D01*
X167830600Y-139124850D02*
X167195600Y-139759850D01*
X117506850Y-113089850D02*
X117265600Y-113181100D01*
X143700600Y-129599850D02*
X143700600Y-129542700D01*
X118300600Y-100389850D02*
X118065600Y-100481100D01*
X179736850Y-106263600D02*
X180213100Y-106263600D01*
X115760600Y-129599850D02*
X115760600Y-129542700D01*
X149733100Y-82609850D02*
X149733100Y-90071100D01*
X168148100Y-138172350D02*
X168148100Y-138807350D01*
X117189350Y-113089850D02*
X116554350Y-113089850D01*
X161321850Y-139759850D02*
X160686850Y-139759850D01*
X138938100Y-71814850D02*
X138870600Y-71686100D01*
X164020600Y-75307350D02*
X156559350Y-75307350D01*
X106235600Y-119122350D02*
X106235600Y-121662350D01*
X169418100Y-75148600D02*
X169894350Y-74672350D01*
X160686850Y-139601100D02*
X165131850Y-135156100D01*
X180530600Y-98643600D02*
X180295600Y-98711100D01*
X181006850Y-80863600D02*
X180689350Y-80863600D01*
X168465600Y-138807350D02*
X171958100Y-138807350D01*
X116236850Y-113407350D02*
X110521850Y-119122350D01*
X113855600Y-131504850D02*
X110363100Y-131504850D01*
X120205600Y-111978600D02*
X119094350Y-113089850D01*
X168148100Y-137854850D02*
X168148100Y-137378600D01*
X130899000Y-112931100D02*
X129254350Y-112931100D01*
X168148100Y-137854850D02*
X168080600Y-138096100D01*
X112268100Y-137061100D02*
X112200600Y-137296100D01*
X157988100Y-137378600D02*
X157920600Y-137296100D01*
X131635600Y-74037350D02*
X131250600Y-74166100D01*
X139255600Y-139759850D02*
X137668100Y-139759850D01*
X117506850Y-124519850D02*
X117983100Y-124519850D01*
X127508100Y-74196100D02*
X115760600Y-74196100D01*
X130048100Y-137061100D02*
X129980600Y-137296100D01*
X154971850Y-73084850D02*
X154880600Y-73326100D01*
X142430600Y-71179850D02*
X142430600Y-71122700D01*
X117189350Y-100389850D02*
X116554350Y-100389850D01*
X180371850Y-80863600D02*
X180530600Y-80704850D01*
X135921850Y-144046100D02*
X135763100Y-144046100D01*
X179736850Y-80863600D02*
X179495600Y-80931100D01*
X179736850Y-106263600D02*
X179495600Y-106331100D01*
X112268100Y-72291100D02*
X112268100Y-71814850D01*
X116395600Y-128012350D02*
X116395600Y-124837350D01*
X112268100Y-138172350D02*
X112200600Y-138096100D01*
X140208100Y-138172350D02*
X140140600Y-138096100D01*
X143383100Y-130234850D02*
X143700600Y-129542700D01*
X161321850Y-130076100D02*
X161480600Y-129946100D01*
X160686850Y-139601100D02*
X160686850Y-139759850D01*
X185928100Y-138807350D02*
X185860600Y-138936100D01*
X177673100Y-77529850D02*
X180213100Y-74989850D01*
X118300600Y-113089850D02*
X118065600Y-113181100D01*
X110363100Y-131504850D02*
X108775600Y-133092350D01*
X178784350Y-98643600D02*
X178655600Y-98711100D01*
X115919350Y-129282350D02*
X115919350Y-128488600D01*
X140208100Y-138807350D02*
X140140600Y-138936100D01*
X154971850Y-73084850D02*
X154971850Y-72608600D01*
X167671850Y-94992350D02*
X165449350Y-94992350D01*
X178466850Y-98484850D02*
X178655600Y-98711100D01*
X179419350Y-98643600D02*
X178784350Y-98643600D01*
X185928100Y-137854850D02*
X185928100Y-137378600D01*
X117506850Y-88959850D02*
X117983100Y-88959850D01*
X177673100Y-77529850D02*
X177355600Y-77486100D01*
X161321850Y-139759850D02*
X161321850Y-145792350D01*
X137668100Y-139759850D02*
X137509350Y-139601100D01*
X111315600Y-70862350D02*
X107505600Y-70862350D01*
X118300600Y-124519850D02*
X118776850Y-124519850D01*
X115919350Y-129282350D02*
X115760600Y-129542700D01*
X154495600Y-96421100D02*
X154365600Y-96421100D01*
X131318100Y-73402350D02*
X131318100Y-74037350D01*
X185928100Y-138172350D02*
X185928100Y-138807350D01*
X185928100Y-137061100D02*
X185928100Y-136584850D01*
X156559350Y-75307350D02*
X156241850Y-75307350D01*
X138938100Y-72291100D02*
X138870600Y-72526100D01*
X112268100Y-73402350D02*
X112268100Y-74037350D01*
X184658100Y-140077350D02*
X185610600Y-139124850D01*
X168148100Y-137378600D02*
X168080600Y-137296100D01*
X155130600Y-74196100D02*
X154880600Y-74166100D01*
X180054350Y-80863600D02*
X179736850Y-80863600D01*
X115760600Y-71179850D02*
X115601850Y-71338600D01*
X168148100Y-138172350D02*
X168080600Y-138096100D01*
X115919350Y-128488600D02*
X116395600Y-128012350D01*
X161480600Y-129917350D02*
X161480600Y-129946100D01*
X137191850Y-145316100D02*
X135921850Y-144046100D01*
X124174350Y-81181100D02*
X124145600Y-81181100D01*
X167989350Y-120551100D02*
X167932200Y-120551100D01*
X133540600Y-130076100D02*
X133540600Y-129946100D01*
X117189350Y-88959850D02*
X116554350Y-88959850D01*
X179419350Y-80863600D02*
X178784350Y-80863600D01*
X141795600Y-71814850D02*
X142430600Y-71179850D01*
X137985600Y-74989850D02*
X132588100Y-74989850D01*
X138938100Y-72291100D02*
X138938100Y-71814850D01*
X106235600Y-121662350D02*
X107029350Y-122456100D01*
X143700600Y-129599850D02*
X143065600Y-130234850D01*
X171323100Y-105628600D02*
X177990600Y-105628600D01*
X127666850Y-103882350D02*
X122269350Y-103882350D01*
X117506850Y-100389850D02*
X117983100Y-100389850D01*
X171640600Y-129599850D02*
X171640600Y-129542700D01*
X180689350Y-80863600D02*
X180530600Y-80704850D01*
X140208100Y-137854850D02*
X140140600Y-138096100D01*
X149574350Y-82451100D02*
X149545600Y-82451100D01*
X117983100Y-113089850D02*
X118065600Y-113181100D01*
X169894350Y-101183600D02*
X169894350Y-103882350D01*
X168148100Y-136584850D02*
X168080600Y-136456100D01*
X133699350Y-130234850D02*
X133540600Y-130076100D01*
X149733100Y-82609850D02*
X149545600Y-82451100D01*
X160686850Y-139759850D02*
X159258100Y-139759850D01*
X167195600Y-139759850D02*
X161321850Y-139759850D01*
X156400600Y-94516100D02*
X155289350Y-95627350D01*
X170529350Y-129599850D02*
X170529350Y-128806100D01*
X180213100Y-98643600D02*
X180295600Y-98711100D01*
X116554350Y-88959850D02*
X116425600Y-89051100D01*
X169735600Y-104041100D02*
X171323100Y-105628600D01*
X173545600Y-101183600D02*
X169894350Y-101183600D01*
X154971850Y-72291100D02*
X154971850Y-71814850D01*
X165449350Y-94992350D02*
X164973100Y-94516100D01*
X154654350Y-74196100D02*
X141954350Y-74196100D01*
X128460600Y-111819850D02*
X128301850Y-111978600D01*
X178784350Y-80863600D02*
X178655600Y-80931100D01*
X161798100Y-129599850D02*
X161480600Y-129917350D01*
X118776850Y-124519850D02*
X118905600Y-124611100D01*
X180213100Y-106263600D02*
X180295600Y-106331100D01*
X139890600Y-139124850D02*
X140140600Y-138936100D01*
X170529350Y-121979850D02*
X170529350Y-121821100D01*
X129254350Y-112931100D02*
X128301850Y-111978600D01*
X141954350Y-74196100D02*
X141954350Y-71973600D01*
X172751850Y-77529850D02*
X177196850Y-77529850D01*
X130048100Y-138172350D02*
X130048100Y-138807350D01*
X131318100Y-72291100D02*
X131318100Y-71814850D01*
X160210600Y-131187350D02*
X144335600Y-131187350D01*
X177355600Y-97373600D02*
X173545600Y-101183600D01*
X112268100Y-137378600D02*
X112200600Y-137296100D01*
X134651850Y-98484850D02*
X128619350Y-104517350D01*
X139890600Y-139124850D02*
X139255600Y-139759850D01*
X179736850Y-98643600D02*
X180213100Y-98643600D01*
X112268100Y-137854850D02*
X112268100Y-137378600D01*
X179736850Y-98643600D02*
X179495600Y-98711100D01*
X185928100Y-137061100D02*
X185860600Y-137296100D01*
X118776850Y-88959850D02*
X118905600Y-89051100D01*
X132270600Y-74989850D02*
X130206850Y-74989850D01*
X128301850Y-74989850D02*
X127508100Y-74196100D01*
X176403100Y-121821100D02*
X178466850Y-123884850D01*
X112268100Y-74037350D02*
X112200600Y-74166100D01*
X132588100Y-74989850D02*
X132429350Y-74831100D01*
X157988100Y-137854850D02*
X157920600Y-138096100D01*
X112268100Y-72608600D02*
X112200600Y-72526100D01*
X115601850Y-71338600D02*
X113061850Y-71338600D01*
X117189350Y-113089850D02*
X117265600Y-113181100D01*
X105759350Y-146109850D02*
X106711850Y-147062350D01*
X130048100Y-138807350D02*
X129980600Y-138936100D01*
X117506850Y-124519850D02*
X117265600Y-124611100D01*
X118300600Y-124519850D02*
X118065600Y-124611100D01*
X138938100Y-73402350D02*
X138870600Y-73326100D01*
X130048100Y-138172350D02*
X129980600Y-138096100D01*
X129095600Y-105311100D02*
X127666850Y-103882350D01*
X154654350Y-74196100D02*
X154880600Y-74166100D01*
X178784350Y-106263600D02*
X178655600Y-106331100D01*
X112268100Y-73084850D02*
X112200600Y-73326100D01*
X117983100Y-124519850D02*
X118065600Y-124611100D01*
X119253100Y-88801100D02*
X119094350Y-88959850D01*
X135763100Y-139601100D02*
X131159350Y-139601100D01*
X154971850Y-73402350D02*
X154880600Y-73326100D01*
X179419350Y-80863600D02*
X179495600Y-80931100D01*
X112426850Y-136267350D02*
X112200600Y-136456100D01*
X130048100Y-136584850D02*
X129980600Y-136456100D01*
X177196850Y-77529850D02*
X177355600Y-77486100D01*
X140208100Y-137061100D02*
X140208100Y-136584850D01*
X149733100Y-90071100D02*
X155289350Y-95627350D01*
X185928100Y-137854850D02*
X185860600Y-138096100D01*
X180530600Y-106263600D02*
X180295600Y-106331100D01*
X159575600Y-147538600D02*
X139414350Y-147538600D01*
X118776850Y-113089850D02*
X118905600Y-113181100D01*
X118300600Y-88959850D02*
X118776850Y-88959850D01*
X128460600Y-111184850D02*
X128460600Y-111819850D01*
X138938100Y-74037350D02*
X138870600Y-74166100D01*
X178466850Y-123884850D02*
X178655600Y-124111100D01*
X117506850Y-88959850D02*
X117265600Y-89051100D01*
X143065600Y-130234850D02*
X133699350Y-130234850D01*
X130048100Y-137854850D02*
X130048100Y-137378600D01*
X185928100Y-137378600D02*
X185860600Y-137296100D01*
X130206850Y-75148600D02*
X130206850Y-74989850D01*
X138938100Y-73084850D02*
X138870600Y-73326100D01*
X131318100Y-72608600D02*
X131250600Y-72526100D01*
X180530600Y-98643600D02*
X181006850Y-98643600D01*
X117189350Y-100389850D02*
X117265600Y-100481100D01*
X179419350Y-106263600D02*
X179495600Y-106331100D01*
X180213100Y-124043600D02*
X180295600Y-124111100D01*
X138938100Y-73084850D02*
X138938100Y-72608600D01*
X138938100Y-72608600D02*
X138870600Y-72526100D01*
X111950600Y-71497350D02*
X111315600Y-70862350D01*
X119094350Y-88959850D02*
X118905600Y-89051100D01*
X140208100Y-137378600D02*
X140140600Y-137296100D01*
X130206850Y-74989850D02*
X128301850Y-74989850D01*
X178466850Y-106104850D02*
X178655600Y-106331100D01*
X170370600Y-74196100D02*
X170370600Y-74136100D01*
X179419350Y-124043600D02*
X178784350Y-124043600D01*
X130048100Y-137378600D02*
X129980600Y-137296100D01*
X130206850Y-90071100D02*
X128936850Y-88801100D01*
X177990600Y-105628600D02*
X178466850Y-106104850D01*
X155289350Y-95627350D02*
X154495600Y-96421100D01*
X177355600Y-97373600D02*
X178466850Y-98484850D01*
X157988100Y-137061100D02*
X157920600Y-137296100D01*
X114173100Y-122456100D02*
X116236850Y-124519850D01*
X128301850Y-111978600D02*
X120205600Y-111978600D01*
X132270600Y-74989850D02*
X132429350Y-74831100D01*
X118300600Y-113089850D02*
X118776850Y-113089850D01*
X167671850Y-94992350D02*
X167932200Y-95151100D01*
X112268100Y-72291100D02*
X112200600Y-72526100D01*
X180530600Y-80704850D02*
X177355600Y-77529850D01*
X185610600Y-139124850D02*
X185860600Y-138936100D01*
X112268100Y-73084850D02*
X112268100Y-72608600D01*
X154971850Y-72608600D02*
X154880600Y-72526100D01*
X128619350Y-104517350D02*
X129225600Y-105311100D01*
X137509350Y-139601100D02*
X135763100Y-139601100D01*
X116395600Y-124837350D02*
X116425600Y-124611100D01*
X138938100Y-73402350D02*
X138938100Y-74037350D01*
X161321850Y-145792350D02*
X159575600Y-147538600D01*
X158305600Y-138807350D02*
X157920600Y-138936100D01*
X116554350Y-100389850D02*
X116425600Y-100481100D01*
X124174350Y-88801100D02*
X119253100Y-88801100D01*
X117189350Y-124519850D02*
X117265600Y-124611100D01*
X180054350Y-80863600D02*
X180295600Y-80931100D01*
X157988100Y-137854850D02*
X157988100Y-137378600D01*
X116554350Y-124519850D02*
X116425600Y-124611100D01*
X124333100Y-81022350D02*
X124145600Y-81181100D01*
X112268100Y-136584850D02*
X112200600Y-136456100D01*
X130206850Y-75148600D02*
X124333100Y-81022350D01*
X171958100Y-138807350D02*
X173228100Y-140077350D01*
X134651850Y-90071100D02*
X134651850Y-98484850D01*
X157988100Y-138172350D02*
X157920600Y-138096100D01*
X169735600Y-104041100D02*
X169605600Y-104041100D01*
X131318100Y-71814850D02*
X131250600Y-71686100D01*
X157988100Y-137061100D02*
X157988100Y-136584850D01*
X129095600Y-105469850D02*
X129095600Y-110549850D01*
X170529350Y-129599850D02*
X161798100Y-129599850D01*
X179736850Y-124043600D02*
X180213100Y-124043600D01*
X112268100Y-71814850D02*
X112200600Y-71686100D01*
X111950600Y-71497350D02*
X112200600Y-71686100D01*
X167989350Y-120551100D02*
X169259350Y-121821100D01*
X107505600Y-70862350D02*
X106870600Y-71497350D01*
X131318100Y-72291100D02*
X131250600Y-72526100D01*
X180371850Y-80863600D02*
X180295600Y-80931100D01*
X117983100Y-88959850D02*
X118065600Y-89051100D01*
X169259350Y-121821100D02*
X170529350Y-121821100D01*
X129095600Y-105311100D02*
X129225600Y-105311100D01*
X135445600Y-147062350D02*
X137191850Y-145316100D01*
X116236850Y-113407350D02*
X116425600Y-113181100D01*
X157988100Y-136584850D02*
X157920600Y-136456100D01*
X135763100Y-144046100D02*
X135763100Y-139601100D01*
X122269350Y-103882350D02*
X119094350Y-100707350D01*
X130899000Y-90071100D02*
X130206850Y-90071100D01*
X112268100Y-137854850D02*
X112200600Y-138096100D01*
X167989350Y-95151100D02*
X167932200Y-95151100D01*
X140208100Y-138172350D02*
X140208100Y-138807350D01*
X178784350Y-124043600D02*
X178655600Y-124111100D01*
X156559350Y-75466100D02*
X149574350Y-82451100D01*
X108775600Y-133092350D02*
X105759350Y-133092350D01*
X179419350Y-106263600D02*
X178784350Y-106263600D01*
X116236850Y-124519850D02*
X116425600Y-124611100D01*
X117189350Y-124519850D02*
X116554350Y-124519850D01*
X164020600Y-75307350D02*
X164020600Y-75336100D01*
X170529350Y-121821100D02*
X176403100Y-121821100D01*
X169894350Y-74672350D02*
X172751850Y-77529850D01*
X115760600Y-74196100D02*
X115760600Y-71122700D01*
X154971850Y-71814850D02*
X154880600Y-71686100D01*
X140208100Y-137854850D02*
X140208100Y-137378600D01*
X179419350Y-98643600D02*
X179495600Y-98711100D01*
X106870600Y-71497350D02*
X106870600Y-71526100D01*
X164973100Y-94516100D02*
X156400600Y-94516100D01*
X131159350Y-139601100D02*
X130365600Y-138807350D01*
X177355600Y-77529850D02*
X177355600Y-77486100D01*
X117983100Y-100389850D02*
X118065600Y-100481100D01*
X129095600Y-105469850D02*
X129225600Y-105311100D01*
X119094350Y-113089850D02*
X118905600Y-113181100D01*
X117506850Y-113089850D02*
X117983100Y-113089850D01*
X129095600Y-110549850D02*
X128460600Y-111184850D01*
X179419350Y-124043600D02*
X179495600Y-124111100D01*
X141954350Y-71973600D02*
X141795600Y-71814850D01*
X167830600Y-139124850D02*
X168080600Y-138936100D01*
X167989350Y-95151100D02*
X169259350Y-96421100D01*
X156559350Y-75466100D02*
X156559350Y-75307350D01*
D32*
%TO.N,N$1*%
X122110600Y-66417350D02*
X122110600Y-71122700D01*
X128460600Y-66417350D02*
X122110600Y-66417350D01*
X129413100Y-74037350D02*
X129480600Y-74166100D01*
X127031850Y-72767350D02*
X128301850Y-74037350D01*
X130841850Y-64036100D02*
X128460600Y-66417350D01*
X131635600Y-64036100D02*
X130841850Y-64036100D01*
X128301850Y-74037350D02*
X129413100Y-74037350D01*
%TO.N,N$3*%
X132746850Y-62924850D02*
X132746850Y-64512350D01*
X127984350Y-64036100D02*
X126079350Y-65941100D01*
X126079350Y-65941100D02*
X120840600Y-65941100D01*
X130365600Y-65306100D02*
X130365600Y-72767350D01*
X128143100Y-64036100D02*
X129254350Y-62924850D01*
X130365600Y-72767350D02*
X129889350Y-73243600D01*
X131953100Y-65306100D02*
X130365600Y-65306100D01*
X129889350Y-73243600D02*
X129571850Y-73243600D01*
X120840600Y-65941100D02*
X120840600Y-71122700D01*
X129254350Y-62924850D02*
X132746850Y-62924850D01*
X129571850Y-73243600D02*
X129480600Y-73326100D01*
X128143100Y-64036100D02*
X128079600Y-64036100D01*
X132746850Y-64512350D02*
X131953100Y-65306100D01*
X127984350Y-64036100D02*
X128079600Y-64036100D01*
%TO.N,N$5*%
X120840600Y-65147350D02*
X120364350Y-65623600D01*
X123539350Y-65147350D02*
X120840600Y-65147350D01*
X129413100Y-72608600D02*
X129480600Y-72526100D01*
X124650600Y-64036100D02*
X123539350Y-65147350D01*
X120364350Y-65623600D02*
X119570600Y-65623600D01*
X119570600Y-65623600D02*
X119570600Y-71122700D01*
X128301850Y-72608600D02*
X129413100Y-72608600D01*
%TO.N,N$7*%
X118300600Y-71122700D02*
X118300600Y-71814850D01*
X126079350Y-71656100D02*
X129413100Y-71656100D01*
X129413100Y-71656100D02*
X129480600Y-71686100D01*
X118300600Y-71814850D02*
X119094350Y-72608600D01*
X118300600Y-66099850D02*
X119253100Y-65147350D01*
X118300600Y-71122700D02*
X118300600Y-66099850D01*
X119094350Y-72608600D02*
X125126850Y-72608600D01*
X120999350Y-64036100D02*
X121094600Y-64036100D01*
X119253100Y-65147350D02*
X119888100Y-65147350D01*
X119888100Y-65147350D02*
X120999350Y-64036100D01*
X125126850Y-72608600D02*
X126079350Y-71656100D01*
%TO.N,N$9*%
X114808100Y-75783600D02*
X110521850Y-75783600D01*
X117506850Y-75783600D02*
X114808100Y-75783600D01*
X118300600Y-77269500D02*
X118300600Y-76577350D01*
X118300600Y-76577350D02*
X117506850Y-75783600D01*
X110521850Y-75783600D02*
X110521850Y-74196100D01*
X110521850Y-74196100D02*
X110430600Y-74166100D01*
%TO.N,N$11*%
X109728100Y-73243600D02*
X110363100Y-73243600D01*
X115284350Y-79434850D02*
X115601850Y-79117350D01*
X119570600Y-79117350D02*
X119570600Y-77269500D01*
X112903100Y-78799850D02*
X113538100Y-79434850D01*
X110363100Y-73243600D02*
X110430600Y-73326100D01*
X115601850Y-79117350D02*
X119570600Y-79117350D01*
X113538100Y-79434850D02*
X115284350Y-79434850D01*
X109251850Y-72767350D02*
X109728100Y-73243600D01*
%TO.N,N$13*%
X113061850Y-70227350D02*
X110680600Y-70227350D01*
X120840600Y-77269500D02*
X120840600Y-76577350D01*
X120840600Y-76577350D02*
X119094350Y-74831100D01*
X111315600Y-73084850D02*
X110839350Y-72608600D01*
X113379350Y-74831100D02*
X113379350Y-72767350D01*
X113379350Y-74831100D02*
X111315600Y-74831100D01*
X111315600Y-74831100D02*
X111315600Y-73084850D01*
X119094350Y-74831100D02*
X113379350Y-74831100D01*
X110839350Y-72608600D02*
X110521850Y-72608600D01*
X110521850Y-72608600D02*
X110430600Y-72526100D01*
X110680600Y-70227350D02*
X110680600Y-64036100D01*
%TO.N,N$15*%
X122110600Y-79593600D02*
X122110600Y-77269500D01*
X111474350Y-78799850D02*
X112585600Y-79911100D01*
X108934350Y-73719850D02*
X109569350Y-73719850D01*
X105918100Y-72767350D02*
X107823100Y-72767350D01*
X110363100Y-71814850D02*
X110430600Y-71686100D01*
X115601850Y-79911100D02*
X115919350Y-79593600D01*
X105600600Y-64036100D02*
X105600600Y-72449850D01*
X112585600Y-79911100D02*
X115601850Y-79911100D01*
X105600600Y-72449850D02*
X105918100Y-72767350D01*
X107902475Y-72687975D02*
X108934350Y-73719850D01*
X107902475Y-72687975D02*
X108775600Y-71814850D01*
X107124600Y-64036100D02*
X105600600Y-64036100D01*
X108775600Y-71814850D02*
X110363100Y-71814850D01*
X107823100Y-72767350D02*
X107902475Y-72687975D01*
X115919350Y-79593600D02*
X122110600Y-79593600D01*
X109569350Y-73719850D02*
X109569350Y-76894850D01*
%TO.N,N$19*%
X114808100Y-87054850D02*
X116236850Y-87054850D01*
X129095600Y-96103600D02*
X130524350Y-96103600D01*
X130524350Y-96103600D02*
X130841850Y-96421100D01*
X116395600Y-87213600D02*
X116425600Y-87281100D01*
X130841850Y-96421100D02*
X130899000Y-96421100D01*
X116236850Y-87054850D02*
X116395600Y-87213600D01*
%TO.N,N$21*%
X113061850Y-87054850D02*
X114173100Y-88166100D01*
X117189350Y-87372350D02*
X117265600Y-87281100D01*
X114173100Y-88166100D02*
X117189350Y-88166100D01*
X126555600Y-95151100D02*
X130899000Y-95151100D01*
X117189350Y-88166100D02*
X117189350Y-87372350D01*
%TO.N,N$23*%
X117983100Y-87213600D02*
X118065600Y-87281100D01*
X109728100Y-86102350D02*
X110839350Y-86102350D01*
X126555600Y-93881100D02*
X130899000Y-93881100D01*
X114649350Y-89912350D02*
X122586850Y-89912350D01*
X109569350Y-86261100D02*
X109728100Y-86102350D01*
X122586850Y-89912350D02*
X122904350Y-90229850D01*
X107505600Y-86261100D02*
X109569350Y-86261100D01*
X117983100Y-86102350D02*
X117983100Y-87213600D01*
X110839350Y-86102350D02*
X117983100Y-86102350D01*
X110839350Y-86102350D02*
X114649350Y-89912350D01*
%TO.N,N$25*%
X130841850Y-92611100D02*
X130899000Y-92611100D01*
X118935600Y-87372350D02*
X121475600Y-87372350D01*
X118776850Y-87213600D02*
X118905600Y-87281100D01*
X121475600Y-87372350D02*
X121793100Y-87689850D01*
X118935600Y-87372350D02*
X118905600Y-87281100D01*
X130683100Y-92452350D02*
X130841850Y-92611100D01*
X126555600Y-92452350D02*
X130683100Y-92452350D01*
X109251850Y-85308600D02*
X118776850Y-85308600D01*
X118776850Y-85308600D02*
X118776850Y-87213600D01*
%TO.N,N$27*%
X116395600Y-98643600D02*
X116425600Y-98711100D01*
X106394350Y-97214850D02*
X107029350Y-97849850D01*
X115601850Y-97849850D02*
X116395600Y-98643600D01*
X124650600Y-92611100D02*
X124752200Y-92611100D01*
X106394350Y-93246100D02*
X106394350Y-97214850D01*
X107505600Y-93246100D02*
X106394350Y-93246100D01*
X107029350Y-97849850D02*
X115601850Y-97849850D01*
X107664350Y-93087350D02*
X124174350Y-93087350D01*
X124174350Y-93087350D02*
X124650600Y-92611100D01*
X107505600Y-93246100D02*
X107664350Y-93087350D01*
%TO.N,N$29*%
X124174350Y-94357350D02*
X124650600Y-93881100D01*
X124650600Y-93881100D02*
X124752200Y-93881100D01*
X117189350Y-98643600D02*
X117265600Y-98711100D01*
X107505600Y-96897350D02*
X116395600Y-96897350D01*
X116395600Y-96897350D02*
X118935600Y-94357350D01*
X107505600Y-96897350D02*
X107505600Y-96802100D01*
X118935600Y-94357350D02*
X124174350Y-94357350D01*
X116395600Y-96897350D02*
X117189350Y-96897350D01*
X117189350Y-96897350D02*
X117189350Y-98643600D01*
%TO.N,N$31*%
X118141850Y-98643600D02*
X118065600Y-98711100D01*
X117983100Y-98802350D02*
X118065600Y-98711100D01*
X124752200Y-95151100D02*
X124174350Y-95151100D01*
X123380600Y-95944850D02*
X118141850Y-95944850D01*
X117983100Y-99119850D02*
X117506850Y-99596100D01*
X118141850Y-95944850D02*
X118141850Y-98643600D01*
X117983100Y-98802350D02*
X117983100Y-99119850D01*
X124174350Y-95151100D02*
X123380600Y-95944850D01*
X108140600Y-99596100D02*
X107505600Y-100231100D01*
X117506850Y-99596100D02*
X108140600Y-99596100D01*
%TO.N,N$33*%
X118935600Y-98643600D02*
X118905600Y-98711100D01*
X119570600Y-97849850D02*
X119649975Y-97929225D01*
X119649975Y-97929225D02*
X118935600Y-98643600D01*
X119411850Y-97849850D02*
X119094350Y-97532350D01*
X119570600Y-97849850D02*
X119411850Y-97849850D01*
X124752200Y-96421100D02*
X121158100Y-96421100D01*
X121158100Y-96421100D02*
X119649975Y-97929225D01*
%TO.N,N$35*%
X127508100Y-122773600D02*
X127508100Y-121979850D01*
X122586850Y-122773600D02*
X127508100Y-122773600D01*
X116236850Y-111184850D02*
X116395600Y-111343600D01*
X129730600Y-119757350D02*
X130365600Y-119757350D01*
X130365600Y-119757350D02*
X130841850Y-119281100D01*
X130841850Y-119281100D02*
X130899000Y-119281100D01*
X110998100Y-111184850D02*
X116236850Y-111184850D01*
X127508100Y-121979850D02*
X129730600Y-119757350D01*
X116395600Y-111343600D02*
X116425600Y-111411100D01*
X120046850Y-120233600D02*
X122586850Y-122773600D01*
%TO.N,N$37*%
X117189350Y-110232350D02*
X117189350Y-111343600D01*
X127666850Y-117534850D02*
X130365600Y-117534850D01*
X119253100Y-110073600D02*
X119729350Y-109597350D01*
X107505600Y-110708600D02*
X107981850Y-110232350D01*
X107981850Y-110232350D02*
X117189350Y-110232350D01*
X117189350Y-110232350D02*
X117348100Y-110073600D01*
X126555600Y-116423600D02*
X127666850Y-117534850D01*
X117348100Y-110073600D02*
X119253100Y-110073600D01*
X107505600Y-110708600D02*
X107505600Y-110772100D01*
X130841850Y-118011100D02*
X130899000Y-118011100D01*
X130365600Y-117534850D02*
X130841850Y-118011100D01*
X117189350Y-111343600D02*
X117265600Y-111411100D01*
%TO.N,N$39*%
X117983100Y-111502350D02*
X118065600Y-111411100D01*
X118141850Y-111026100D02*
X118618100Y-110549850D01*
X107505600Y-114201100D02*
X109410600Y-112296100D01*
X117983100Y-112296100D02*
X117983100Y-111502350D01*
X118141850Y-111343600D02*
X118141850Y-111026100D01*
X126555600Y-115153600D02*
X128143100Y-116741100D01*
X109410600Y-112296100D02*
X117983100Y-112296100D01*
X118141850Y-111343600D02*
X118065600Y-111411100D01*
X120999350Y-110549850D02*
X121475600Y-110073600D01*
X118618100Y-110549850D02*
X120999350Y-110549850D01*
X128143100Y-116741100D02*
X130899000Y-116741100D01*
%TO.N,N$41*%
X107505600Y-117693600D02*
X106394350Y-117693600D01*
X127349350Y-110391100D02*
X126714350Y-111026100D01*
X106394350Y-110391100D02*
X108140600Y-108644850D01*
X119253100Y-111026100D02*
X118935600Y-111343600D01*
X118935600Y-111343600D02*
X118905600Y-111411100D01*
X108140600Y-108644850D02*
X127349350Y-108644850D01*
X131000600Y-115471100D02*
X130899000Y-115471100D01*
X106394350Y-117693600D02*
X106394350Y-110391100D01*
X131476850Y-114994850D02*
X131000600Y-115471100D01*
X127349350Y-110073600D02*
X127349350Y-110391100D01*
X107505600Y-117693600D02*
X107505600Y-117757100D01*
X126714350Y-111026100D02*
X119253100Y-111026100D01*
X127349350Y-110073600D02*
X127984350Y-110073600D01*
X132270600Y-114677350D02*
X131953100Y-114994850D01*
X129571850Y-111661100D02*
X132270600Y-111661100D01*
X132270600Y-111661100D02*
X132270600Y-114677350D01*
X131953100Y-114994850D02*
X131476850Y-114994850D01*
X127349350Y-108644850D02*
X127349350Y-110073600D01*
%TO.N,N$43*%
X114808100Y-121186100D02*
X116395600Y-122773600D01*
X109728100Y-121186100D02*
X114966850Y-115947350D01*
X116395600Y-122773600D02*
X116425600Y-122841100D01*
X124650600Y-115471100D02*
X124752200Y-115471100D01*
X114966850Y-115947350D02*
X124174350Y-115947350D01*
X109728100Y-121186100D02*
X114808100Y-121186100D01*
X107505600Y-121186100D02*
X109728100Y-121186100D01*
X124174350Y-115947350D02*
X124650600Y-115471100D01*
%TO.N,N$45*%
X117348100Y-122773600D02*
X117265600Y-122841100D01*
X124752200Y-116741100D02*
X117348100Y-116741100D01*
X117348100Y-116741100D02*
X117348100Y-120233600D01*
X117348100Y-120233600D02*
X111950600Y-120233600D01*
X117348100Y-120233600D02*
X117348100Y-122773600D01*
%TO.N,N$47*%
X124650600Y-118011100D02*
X124333100Y-118328600D01*
X124333100Y-118328600D02*
X118141850Y-118328600D01*
X115284350Y-127536100D02*
X108140600Y-127536100D01*
X118141850Y-122773600D02*
X118065600Y-122841100D01*
X124650600Y-118011100D02*
X124752200Y-118011100D01*
X119570600Y-125472350D02*
X117506850Y-127536100D01*
X119570600Y-123726100D02*
X119570600Y-125472350D01*
X118618100Y-123726100D02*
X119570600Y-123726100D01*
X118141850Y-122932350D02*
X118065600Y-122841100D01*
X118141850Y-118328600D02*
X118141850Y-122773600D01*
X118141850Y-122932350D02*
X118141850Y-123249850D01*
X108140600Y-127536100D02*
X107505600Y-128171100D01*
X118141850Y-123249850D02*
X118618100Y-123726100D01*
%TO.N,N$57*%
X124752200Y-119281100D02*
X118935600Y-119281100D01*
X118935600Y-121662350D02*
X118935600Y-122773600D01*
X118935600Y-121662350D02*
X119094350Y-121662350D01*
X118935600Y-122773600D02*
X118905600Y-122841100D01*
X118935600Y-119281100D02*
X118935600Y-121662350D01*
%TO.N,LATCH*%
X134651850Y-113566100D02*
X134651850Y-119916100D01*
X115760600Y-133727350D02*
X115760600Y-135689500D01*
X163385600Y-104834850D02*
X167671850Y-100548600D01*
X129571850Y-135314850D02*
X129413100Y-135156100D01*
X138620600Y-77371100D02*
X128301850Y-87689850D01*
X127349350Y-113407350D02*
X125285600Y-113407350D01*
X127508100Y-133251100D02*
X127031850Y-133727350D01*
X124968100Y-89912350D02*
X124809350Y-90071100D01*
X148145600Y-113566100D02*
X134651850Y-113566100D01*
X175926850Y-95309850D02*
X174339350Y-95309850D01*
X125285600Y-113407350D02*
X124809350Y-112931100D01*
X151638100Y-109914850D02*
X151717475Y-109994225D01*
X143700600Y-135632350D02*
X143383100Y-135314850D01*
X159099350Y-104834850D02*
X163385600Y-104834850D01*
X115760600Y-77371100D02*
X115760600Y-77269500D01*
X124809350Y-112931100D02*
X124752200Y-112931100D01*
X174180600Y-95151100D02*
X174079000Y-95151100D01*
X155130600Y-108803600D02*
X159099350Y-104834850D01*
X150923725Y-110787975D02*
X163544350Y-123408600D01*
X171640600Y-135632350D02*
X171640600Y-135689500D01*
X172593100Y-100548600D02*
X175609350Y-97532350D01*
X171640600Y-123408600D02*
X172275600Y-124043600D01*
X167671850Y-100548600D02*
X172593100Y-100548600D01*
X172434350Y-120551100D02*
X172275600Y-120709850D01*
X150923725Y-110787975D02*
X151717475Y-109994225D01*
X152908100Y-108803600D02*
X155130600Y-108803600D01*
X114649350Y-77847350D02*
X115284350Y-77847350D01*
X124809350Y-90071100D02*
X124752200Y-90071100D01*
X169576850Y-135156100D02*
X171164350Y-135156100D01*
X127031850Y-133727350D02*
X115760600Y-133727350D01*
X171164350Y-135156100D02*
X171640600Y-135632350D01*
X151717475Y-109994225D02*
X152908100Y-108803600D01*
X142430600Y-77371100D02*
X138620600Y-77371100D01*
X126555600Y-89912350D02*
X124968100Y-89912350D01*
X151638100Y-109914850D02*
X146399350Y-109914850D01*
X143700600Y-135632350D02*
X143700600Y-135689500D01*
X163544350Y-123408600D02*
X171640600Y-123408600D01*
X143383100Y-135314850D02*
X129571850Y-135314850D01*
X148145600Y-113566100D02*
X150923725Y-110787975D01*
X174079000Y-120551100D02*
X172434350Y-120551100D01*
X131953100Y-122614850D02*
X128619350Y-122614850D01*
X146399350Y-109914850D02*
X136239350Y-99754850D01*
X174339350Y-95309850D02*
X174180600Y-95151100D01*
X134651850Y-119916100D02*
X131953100Y-122614850D01*
X142430600Y-77371100D02*
X142430600Y-77269500D01*
X128619350Y-122614850D02*
X127508100Y-123726100D01*
X115284350Y-77847350D02*
X115760600Y-77371100D01*
%TO.N,SO*%
X141636850Y-127694850D02*
X126396850Y-127694850D01*
X126396850Y-127694850D02*
X124650600Y-129441100D01*
X148145600Y-121186100D02*
X141636850Y-127694850D01*
X124650600Y-129441100D02*
X124650600Y-129542700D01*
%TO.N,SCK*%
X144970600Y-134997350D02*
X144256225Y-134282975D01*
X144335600Y-134203600D02*
X144256225Y-134282975D01*
X110839350Y-91182350D02*
X124491850Y-91182350D01*
X173545600Y-94357350D02*
X174021850Y-93881100D01*
X135286850Y-112613600D02*
X135286850Y-89594850D01*
X113220600Y-77847350D02*
X106394350Y-77847350D01*
X117030600Y-77269500D02*
X117030600Y-77847350D01*
X114966850Y-78958600D02*
X114331850Y-78958600D01*
X128460600Y-134203600D02*
X128460600Y-131028600D01*
X124752200Y-91341100D02*
X126396850Y-91341100D01*
X166084350Y-134203600D02*
X166084350Y-132298600D01*
X173545600Y-119757350D02*
X174021850Y-119281100D01*
X131556225Y-85864225D02*
X137033100Y-80387350D01*
X174021850Y-119281100D02*
X174079000Y-119281100D01*
X143700600Y-80387350D02*
X143700600Y-77269500D01*
X137033100Y-80387350D02*
X143700600Y-80387350D01*
X117030600Y-134203600D02*
X117030600Y-135689500D01*
X174021850Y-93881100D02*
X174079000Y-93881100D01*
X126396850Y-91341100D02*
X127825600Y-89912350D01*
X106394350Y-86737350D02*
X110839350Y-91182350D01*
X115284350Y-78641100D02*
X114966850Y-78958600D01*
X116236850Y-78641100D02*
X115284350Y-78641100D01*
X144335600Y-134203600D02*
X166084350Y-134203600D01*
X144970600Y-135689500D02*
X144970600Y-134997350D01*
X172910600Y-134203600D02*
X172910600Y-135689500D01*
X169735600Y-120551100D02*
X170529350Y-119757350D01*
X106394350Y-77847350D02*
X106394350Y-86737350D01*
X171164350Y-95309850D02*
X172116850Y-94357350D01*
X124650600Y-91341100D02*
X124752200Y-91341100D01*
X172116850Y-94357350D02*
X173545600Y-94357350D01*
X144176850Y-134203600D02*
X128460600Y-134203600D01*
X144256225Y-134282975D02*
X144176850Y-134203600D01*
X170529350Y-119757350D02*
X173545600Y-119757350D01*
X128460600Y-115788600D02*
X126873100Y-114201100D01*
X128460600Y-134203600D02*
X117030600Y-134203600D01*
X117030600Y-77847350D02*
X116236850Y-78641100D01*
X166084350Y-134203600D02*
X172910600Y-134203600D01*
X126873100Y-114201100D02*
X124752200Y-114201100D01*
X129571850Y-87848600D02*
X131556225Y-85864225D01*
X114331850Y-78958600D02*
X113220600Y-77847350D01*
X135286850Y-89594850D02*
X131556225Y-85864225D01*
X124491850Y-91182350D02*
X124650600Y-91341100D01*
D31*
%TO.N,A*%
X172910600Y-67846100D02*
X174815600Y-67846100D01*
X172910600Y-67846100D02*
X172910600Y-74136100D01*
X171259600Y-67846100D02*
X172910600Y-67846100D01*
D32*
%TO.N,N$55*%
X171640600Y-79276100D02*
X171640600Y-79336100D01*
X172910600Y-79276100D02*
X172434350Y-79276100D01*
X157670600Y-81498600D02*
X157670600Y-86102350D01*
X172434350Y-79276100D02*
X170211850Y-81498600D01*
X172434350Y-79276100D02*
X171640600Y-79276100D01*
X170211850Y-81498600D02*
X157670600Y-81498600D01*
X157670600Y-86102350D02*
X152590600Y-91182350D01*
X172910600Y-79276100D02*
X172910600Y-79336100D01*
%TO.N,TX*%
X174180600Y-82451100D02*
X174180600Y-79336100D01*
X159893100Y-82451100D02*
X174180600Y-82451100D01*
%TO.N,RX*%
X168783100Y-81022350D02*
X170370600Y-79434850D01*
X150844350Y-85467350D02*
X155289350Y-81022350D01*
X155289350Y-81022350D02*
X168783100Y-81022350D01*
X170370600Y-79434850D02*
X170370600Y-79336100D01*
%TO.N,N$2*%
X133064350Y-120233600D02*
X131953100Y-121344850D01*
X130899000Y-97691100D02*
X131953100Y-97691100D01*
X133064350Y-101024850D02*
X133064350Y-120233600D01*
X131953100Y-97691100D02*
X132588100Y-98326100D01*
X133699350Y-101024850D02*
X133064350Y-101024850D01*
X131476850Y-121344850D02*
X131000600Y-121821100D01*
X131000600Y-121821100D02*
X130899000Y-121821100D01*
X131953100Y-121344850D02*
X131476850Y-121344850D01*
%TO.N,N$4*%
X133540600Y-98643600D02*
X132905600Y-99278600D01*
X123380600Y-71122700D02*
X123380600Y-70544850D01*
X132905600Y-99278600D02*
X131318100Y-99278600D01*
X133540600Y-91182350D02*
X133540600Y-98643600D01*
X124015600Y-69909850D02*
X124015600Y-69433600D01*
X131318100Y-99278600D02*
X131000600Y-98961100D01*
X131000600Y-98961100D02*
X130899000Y-98961100D01*
X123380600Y-70544850D02*
X124015600Y-69909850D01*
D31*
%TO.N,B*%
X167830600Y-67846100D02*
X169100600Y-69116100D01*
X169100600Y-69116100D02*
X171640600Y-69116100D01*
X167830600Y-67846100D02*
X164274600Y-67846100D01*
X171640600Y-69116100D02*
X171640600Y-74136100D01*
D32*
%TO.N,N$17*%
X189261850Y-76577350D02*
X181641850Y-76577350D01*
X154266600Y-109756100D02*
X154971850Y-109756100D01*
X157353100Y-107374850D02*
X171164350Y-107374850D01*
X174021850Y-104517350D02*
X190373100Y-104517350D01*
X154971850Y-109756100D02*
X157353100Y-107374850D01*
X190373100Y-77688600D02*
X189261850Y-76577350D01*
X181165600Y-76101100D02*
X181165600Y-75986100D01*
X190373100Y-104517350D02*
X190373100Y-77688600D01*
X171164350Y-107374850D02*
X171640600Y-106898600D01*
X181641850Y-76577350D02*
X181165600Y-76101100D01*
%TO.N,N$54*%
X177038100Y-76418600D02*
X177355600Y-76101100D01*
X159258100Y-99754850D02*
X165131850Y-99754850D01*
X176244350Y-76418600D02*
X177038100Y-76418600D01*
X177355600Y-76101100D02*
X177355600Y-75986100D01*
X154336850Y-104676100D02*
X154266600Y-104676100D01*
X165131850Y-99754850D02*
X165131850Y-96103600D01*
X154336850Y-104676100D02*
X159258100Y-99754850D01*
%TO.N,N$6*%
X135128100Y-65941100D02*
X138620600Y-62448600D01*
X134969350Y-69433600D02*
X134969350Y-72449850D01*
X136556850Y-74037350D02*
X137033100Y-74037350D01*
X134969350Y-72449850D02*
X136556850Y-74037350D01*
X148780600Y-71122700D02*
X148780600Y-70544850D01*
X138620600Y-62448600D02*
X157988100Y-62448600D01*
X148780600Y-70544850D02*
X147669350Y-69433600D01*
X135128100Y-69433600D02*
X134969350Y-69433600D01*
X147669350Y-69433600D02*
X135128100Y-69433600D01*
X135128100Y-69433600D02*
X135128100Y-65941100D01*
X157988100Y-62448600D02*
X159575600Y-64036100D01*
X137033100Y-74037350D02*
X137100600Y-74166100D01*
%TO.N,N$8*%
X136556850Y-73243600D02*
X137033100Y-73243600D01*
X137033100Y-73243600D02*
X137100600Y-73326100D01*
X152431850Y-71973600D02*
X151796850Y-72608600D01*
X154813100Y-65147350D02*
X152431850Y-65147350D01*
X152431850Y-65147350D02*
X152431850Y-71973600D01*
X147828100Y-72132350D02*
X147510600Y-72132350D01*
X155924350Y-64036100D02*
X156019600Y-64036100D01*
X148304350Y-72608600D02*
X147828100Y-72132350D01*
X147510600Y-72132350D02*
X147510600Y-71122700D01*
X135921850Y-72608600D02*
X136556850Y-73243600D01*
X135921850Y-70386100D02*
X135921850Y-72608600D01*
X155924350Y-64036100D02*
X154813100Y-65147350D01*
X151796850Y-72608600D02*
X148304350Y-72608600D01*
%TO.N,N$10*%
X137509350Y-72449850D02*
X137191850Y-72449850D01*
X137985600Y-70862350D02*
X137985600Y-71973600D01*
X151479350Y-62924850D02*
X140208100Y-62924850D01*
X137191850Y-72449850D02*
X137100600Y-72526100D01*
X151558725Y-63004225D02*
X149574350Y-64988600D01*
X140366850Y-70386100D02*
X139890600Y-70862350D01*
X146240600Y-72926100D02*
X146240600Y-71122700D01*
X151558725Y-63004225D02*
X151479350Y-62924850D01*
X137985600Y-71973600D02*
X137509350Y-72449850D01*
X140208100Y-62924850D02*
X140208100Y-64988600D01*
X149574350Y-64988600D02*
X149574350Y-68798600D01*
X152590600Y-64036100D02*
X151558725Y-63004225D01*
X139890600Y-70862350D02*
X137985600Y-70862350D01*
%TO.N,N$12*%
X141319350Y-65147350D02*
X138461850Y-68004850D01*
X137191850Y-70386100D02*
X137191850Y-71656100D01*
X137191850Y-71656100D02*
X137100600Y-71686100D01*
X144970600Y-72926100D02*
X144970600Y-71122700D01*
X148939350Y-64036100D02*
X149034600Y-64036100D01*
X147828100Y-65147350D02*
X144970600Y-65147350D01*
X144970600Y-65147350D02*
X144970600Y-68004850D01*
X144970600Y-65147350D02*
X141319350Y-65147350D01*
X148939350Y-64036100D02*
X147828100Y-65147350D01*
%TO.N,N$14*%
X144970600Y-79117350D02*
X144970600Y-77269500D01*
X146558100Y-79117350D02*
X144970600Y-79117350D01*
X153384350Y-69909850D02*
X156559350Y-69909850D01*
X156559350Y-69909850D02*
X156559350Y-71656100D01*
X156559350Y-71656100D02*
X156650600Y-71686100D01*
%TO.N,N$16*%
X146240600Y-77269500D02*
X146240600Y-76577350D01*
X146240600Y-76577350D02*
X147510600Y-75307350D01*
X147510600Y-73084850D02*
X152114350Y-73084850D01*
X152114350Y-73084850D02*
X154178100Y-71021100D01*
X155765600Y-71973600D02*
X156241850Y-72449850D01*
X156559350Y-72449850D02*
X156650600Y-72526100D01*
X154178100Y-71021100D02*
X155765600Y-71021100D01*
X155765600Y-71021100D02*
X155765600Y-71973600D01*
X156241850Y-72449850D02*
X156559350Y-72449850D01*
%TO.N,N$18*%
X145764350Y-80069850D02*
X147510600Y-80069850D01*
X157511850Y-72926100D02*
X157194350Y-73243600D01*
X157511850Y-67211100D02*
X157511850Y-72926100D01*
X156718100Y-73243600D02*
X156650600Y-73326100D01*
X153384350Y-67211100D02*
X157511850Y-67211100D01*
X147510600Y-80069850D02*
X147510600Y-77269500D01*
X157194350Y-73243600D02*
X156718100Y-73243600D01*
%TO.N,N$20*%
X157591225Y-73640475D02*
X157194350Y-74037350D01*
X135128100Y-64036100D02*
X135064600Y-64036100D01*
X156718100Y-74037350D02*
X156650600Y-74166100D01*
X160686850Y-70544850D02*
X157591225Y-73640475D01*
X160686850Y-61972350D02*
X160686850Y-70544850D01*
X137191850Y-61972350D02*
X160686850Y-61972350D01*
X135128100Y-64036100D02*
X137191850Y-61972350D01*
X154813100Y-75624850D02*
X148780600Y-75624850D01*
X157591225Y-73640475D02*
X157829350Y-73878600D01*
X157194350Y-74037350D02*
X156718100Y-74037350D01*
X148780600Y-75624850D02*
X148780600Y-77269500D01*
%TO.N,N$22*%
X124650600Y-71021100D02*
X124650600Y-71122700D01*
X125285600Y-70386100D02*
X124650600Y-71021100D01*
X150050600Y-70544850D02*
X148463100Y-68957350D01*
X129413100Y-70386100D02*
X125285600Y-70386100D01*
X148463100Y-68957350D02*
X136556850Y-68957350D01*
X136556850Y-68957350D02*
X136080600Y-68481100D01*
X150050600Y-71122700D02*
X150050600Y-70544850D01*
%TO.N,N$24*%
X189896850Y-102136100D02*
X189896850Y-94674850D01*
X181165600Y-100548600D02*
X181135600Y-100481100D01*
X188785600Y-102136100D02*
X189896850Y-102136100D01*
X188944350Y-93722350D02*
X177673100Y-93722350D01*
X189896850Y-94674850D02*
X188944350Y-93722350D01*
X172275600Y-88801100D02*
X167932200Y-88801100D01*
X177673100Y-93722350D02*
X177038100Y-93087350D01*
X188785600Y-102136100D02*
X182753100Y-102136100D01*
X182753100Y-102136100D02*
X181165600Y-100548600D01*
%TO.N,N$26*%
X187833100Y-99596100D02*
X183229350Y-99596100D01*
X179895600Y-97849850D02*
X177196850Y-95151100D01*
X188785600Y-98643600D02*
X187833100Y-99596100D01*
X188785600Y-98643600D02*
X188785600Y-98580100D01*
X180371850Y-99596100D02*
X180371850Y-100389850D01*
X168306850Y-90388600D02*
X167989350Y-90071100D01*
X170053100Y-90388600D02*
X168306850Y-90388600D01*
X181483100Y-97849850D02*
X179895600Y-97849850D01*
X183229350Y-99596100D02*
X181483100Y-97849850D01*
X183229350Y-99596100D02*
X180371850Y-99596100D01*
X167989350Y-90071100D02*
X167932200Y-90071100D01*
X180371850Y-100389850D02*
X180295600Y-100481100D01*
%TO.N,N$28*%
X179578100Y-100548600D02*
X179495600Y-100481100D01*
X187833100Y-94198600D02*
X176720600Y-94198600D01*
X179578100Y-102136100D02*
X179578100Y-100548600D01*
X188785600Y-95151100D02*
X187833100Y-94198600D01*
X176720600Y-94198600D02*
X175768100Y-93246100D01*
X181483100Y-102136100D02*
X179578100Y-102136100D01*
X172275600Y-91341100D02*
X167932200Y-91341100D01*
%TO.N,N$30*%
X178625600Y-100548600D02*
X178655600Y-100481100D01*
X168465600Y-93087350D02*
X167989350Y-92611100D01*
X178308100Y-101659850D02*
X178625600Y-101659850D01*
X167989350Y-92611100D02*
X167932200Y-92611100D01*
X171164350Y-94039850D02*
X170211850Y-93087350D01*
X178625600Y-101659850D02*
X178625600Y-100548600D01*
X170211850Y-93087350D02*
X168465600Y-93087350D01*
%TO.N,N$32*%
X188785600Y-88166100D02*
X189896850Y-88166100D01*
X174656850Y-92134850D02*
X174180600Y-92611100D01*
X189261850Y-83562350D02*
X181959350Y-83562350D01*
X174180600Y-92611100D02*
X174079000Y-92611100D01*
X184816850Y-92134850D02*
X174656850Y-92134850D01*
X189896850Y-84197350D02*
X189261850Y-83562350D01*
X189896850Y-88166100D02*
X189896850Y-84197350D01*
X181959350Y-83562350D02*
X181165600Y-82768600D01*
X181165600Y-82768600D02*
X181135600Y-82701100D01*
X188785600Y-88166100D02*
X184816850Y-92134850D01*
%TO.N,N$34*%
X174656850Y-90864850D02*
X174180600Y-91341100D01*
X181641850Y-84514850D02*
X180371850Y-84514850D01*
X188785600Y-84514850D02*
X188785600Y-84610100D01*
X181641850Y-84514850D02*
X175291850Y-90864850D01*
X188785600Y-84514850D02*
X181641850Y-84514850D01*
X174180600Y-91341100D02*
X174079000Y-91341100D01*
X180371850Y-84514850D02*
X180371850Y-82768600D01*
X180371850Y-82768600D02*
X180295600Y-82701100D01*
X175291850Y-90864850D02*
X174656850Y-90864850D01*
%TO.N,N$36*%
X174974350Y-90071100D02*
X179101850Y-85943600D01*
X179101850Y-85943600D02*
X179419350Y-85943600D01*
X179419350Y-82768600D02*
X179495600Y-82701100D01*
X174079000Y-90071100D02*
X174974350Y-90071100D01*
X179419350Y-83879850D02*
X179419350Y-82768600D01*
X179419350Y-85943600D02*
X179419350Y-83879850D01*
%TO.N,N$38*%
X174079000Y-88801100D02*
X175450600Y-88801100D01*
X184658100Y-81816100D02*
X188785600Y-77688600D01*
X175450600Y-88801100D02*
X175450600Y-86419850D01*
X179260600Y-81816100D02*
X184658100Y-81816100D01*
X178625600Y-83244850D02*
X178625600Y-82768600D01*
X178625600Y-82768600D02*
X178655600Y-82701100D01*
X188785600Y-77688600D02*
X188785600Y-77625100D01*
X175450600Y-86419850D02*
X178625600Y-83244850D01*
X178784350Y-82609850D02*
X178784350Y-82292350D01*
X178784350Y-82292350D02*
X179260600Y-81816100D01*
X178784350Y-82609850D02*
X178655600Y-82701100D01*
%TO.N,N$40*%
X166084350Y-85467350D02*
X164814350Y-86737350D01*
X169418100Y-87531100D02*
X169418100Y-85784850D01*
X167932200Y-87531100D02*
X169418100Y-87531100D01*
X164814350Y-86737350D02*
X158623100Y-86737350D01*
X169100600Y-85467350D02*
X166084350Y-85467350D01*
X158623100Y-86737350D02*
X158623100Y-82451100D01*
X151320600Y-69274850D02*
X151320600Y-71122700D01*
X169418100Y-85784850D02*
X169100600Y-85467350D01*
X151479350Y-69274850D02*
X151320600Y-69274850D01*
%TO.N,N$42*%
X189420600Y-125472350D02*
X189896850Y-125472350D01*
X179578100Y-121979850D02*
X176085600Y-118487350D01*
X167989350Y-114201100D02*
X167932200Y-114201100D01*
X189420600Y-125472350D02*
X189341225Y-125551725D01*
X189896850Y-125472350D02*
X189896850Y-122614850D01*
X172275600Y-114677350D02*
X168465600Y-114677350D01*
X189896850Y-122614850D02*
X189261850Y-121979850D01*
X181483100Y-125472350D02*
X181165600Y-125789850D01*
X181165600Y-125789850D02*
X181135600Y-125881100D01*
X189896850Y-130076100D02*
X189896850Y-126107350D01*
X188785600Y-130076100D02*
X189896850Y-130076100D01*
X189341225Y-125551725D02*
X189261850Y-125472350D01*
X168465600Y-114677350D02*
X167989350Y-114201100D01*
X189261850Y-121979850D02*
X179578100Y-121979850D01*
X189896850Y-126107350D02*
X189341225Y-125551725D01*
X189261850Y-125472350D02*
X181483100Y-125472350D01*
%TO.N,N$44*%
X180371850Y-126742350D02*
X180371850Y-125948600D01*
X188626850Y-126742350D02*
X180371850Y-126742350D01*
X166560600Y-116264850D02*
X166878100Y-115947350D01*
X167354350Y-115947350D02*
X167830600Y-115471100D01*
X167830600Y-115471100D02*
X167932200Y-115471100D01*
X174498100Y-122932350D02*
X166560600Y-122932350D01*
X180371850Y-126742350D02*
X178308100Y-126742350D01*
X178308100Y-126742350D02*
X174498100Y-122932350D01*
X166878100Y-115947350D02*
X167354350Y-115947350D01*
X166560600Y-122932350D02*
X166560600Y-116264850D01*
X180371850Y-125948600D02*
X180295600Y-125881100D01*
X188785600Y-126583600D02*
X188785600Y-126520100D01*
X188785600Y-126583600D02*
X188626850Y-126742350D01*
%TO.N,N$46*%
X186880600Y-124996100D02*
X183229350Y-124996100D01*
X188785600Y-123091100D02*
X186880600Y-124996100D01*
X178784350Y-123249850D02*
X175926850Y-120392350D01*
X179578100Y-124996100D02*
X179578100Y-125789850D01*
X183229350Y-124996100D02*
X181483100Y-123249850D01*
X179578100Y-125789850D02*
X179495600Y-125881100D01*
X172275600Y-116741100D02*
X167932200Y-116741100D01*
X183229350Y-124996100D02*
X179578100Y-124996100D01*
X181483100Y-123249850D02*
X178784350Y-123249850D01*
%TO.N,N$48*%
X172275600Y-118328600D02*
X168306850Y-118328600D01*
X177831850Y-124996100D02*
X178625600Y-125789850D01*
X167989350Y-118011100D02*
X167932200Y-118011100D01*
X168306850Y-118328600D02*
X167989350Y-118011100D01*
X178625600Y-125789850D02*
X178655600Y-125881100D01*
%TO.N,N$49*%
X181165600Y-108168600D02*
X181135600Y-108101100D01*
X174656850Y-117534850D02*
X174180600Y-118011100D01*
X181324350Y-108327350D02*
X181165600Y-108168600D01*
X182276850Y-108327350D02*
X181324350Y-108327350D01*
X188785600Y-116106100D02*
X187356850Y-117534850D01*
X174180600Y-118011100D02*
X174079000Y-118011100D01*
X187356850Y-117534850D02*
X174656850Y-117534850D01*
%TO.N,N$50*%
X185134350Y-116264850D02*
X174656850Y-116264850D01*
X188785600Y-112613600D02*
X188785600Y-112550100D01*
X180371850Y-108009850D02*
X180295600Y-108101100D01*
X174180600Y-116741100D02*
X174079000Y-116741100D01*
X189896850Y-108644850D02*
X188468100Y-107216100D01*
X188785600Y-112454850D02*
X189896850Y-112454850D01*
X180371850Y-107216100D02*
X180371850Y-108009850D01*
X188785600Y-112613600D02*
X185134350Y-116264850D01*
X188468100Y-107216100D02*
X180371850Y-107216100D01*
X189896850Y-112454850D02*
X189896850Y-108644850D01*
X188785600Y-112454850D02*
X188785600Y-112550100D01*
X174656850Y-116264850D02*
X174180600Y-116741100D01*
%TO.N,N$51*%
X188626850Y-109279850D02*
X179578100Y-109279850D01*
X174180600Y-115471100D02*
X174079000Y-115471100D01*
X179578100Y-109279850D02*
X179578100Y-108168600D01*
X179101850Y-109279850D02*
X179101850Y-114518600D01*
X179101850Y-114518600D02*
X178625600Y-114994850D01*
X179578100Y-108168600D02*
X179495600Y-108101100D01*
X178625600Y-114994850D02*
X174656850Y-114994850D01*
X179578100Y-109279850D02*
X179101850Y-109279850D01*
X188785600Y-109121100D02*
X188626850Y-109279850D01*
X174656850Y-114994850D02*
X174180600Y-115471100D01*
%TO.N,N$52*%
X178625600Y-108168600D02*
X178655600Y-108101100D01*
X178625600Y-108009850D02*
X178655600Y-108101100D01*
X178625600Y-114201100D02*
X178625600Y-108168600D01*
X178625600Y-108009850D02*
X177831850Y-107216100D01*
X174079000Y-114201100D02*
X178625600Y-114201100D01*
%TO.N,N$53*%
X167932200Y-86261100D02*
X166084350Y-86261100D01*
X166560600Y-112137350D02*
X166878100Y-112454850D01*
X166084350Y-86261100D02*
X166084350Y-92769850D01*
X166878100Y-112454850D02*
X167354350Y-112454850D01*
X167354350Y-112454850D02*
X167830600Y-112931100D01*
X166560600Y-108327350D02*
X166560600Y-112137350D01*
X167830600Y-112931100D02*
X167932200Y-112931100D01*
%TO.N,N$56*%
X165131850Y-138648600D02*
X165290600Y-138807350D01*
X164496850Y-146427350D02*
X177831850Y-146427350D01*
X185451850Y-133727350D02*
X177990600Y-133727350D01*
X187198100Y-135473600D02*
X185451850Y-133727350D01*
X180054350Y-144204850D02*
X187198100Y-144204850D01*
X187198100Y-144204850D02*
X187198100Y-135473600D01*
X165290600Y-138807350D02*
X166243100Y-138807350D01*
X163385600Y-145316100D02*
X164496850Y-146427350D01*
X177831850Y-146427350D02*
X180054350Y-144204850D01*
X177990600Y-133727350D02*
X177990600Y-129542700D01*
X166243100Y-138807350D02*
X166310600Y-138936100D01*
%TO.N,N$58*%
X166941600Y-145316100D02*
X168624350Y-145316100D01*
X166401850Y-138013600D02*
X166310600Y-138096100D01*
X168624350Y-140077350D02*
X171640600Y-140077350D01*
X167195600Y-137537350D02*
X166719350Y-138013600D01*
X166719350Y-138013600D02*
X166401850Y-138013600D01*
X167195600Y-135632350D02*
X167195600Y-137537350D01*
X168624350Y-145316100D02*
X168624350Y-140077350D01*
X176720600Y-133251100D02*
X176720600Y-129542700D01*
%TO.N,N$59*%
X175450600Y-133409850D02*
X175450600Y-129542700D01*
X165131850Y-137378600D02*
X166243100Y-137378600D01*
X166243100Y-137378600D02*
X166310600Y-137296100D01*
X168465600Y-133409850D02*
X175450600Y-133409850D01*
X168306850Y-133251100D02*
X168465600Y-133409850D01*
%TO.N,N$60*%
X166243100Y-134679850D02*
X166243100Y-136426100D01*
X170370600Y-137537350D02*
X167513100Y-134679850D01*
X174180600Y-132457350D02*
X174180600Y-129542700D01*
X166243100Y-136426100D02*
X166310600Y-136456100D01*
X167513100Y-134679850D02*
X166243100Y-134679850D01*
X171323100Y-132457350D02*
X174180600Y-132457350D01*
%TO.N,N$61*%
X185293100Y-140712350D02*
X181959350Y-140712350D01*
X184975600Y-134203600D02*
X184975600Y-135791100D01*
X186721850Y-139283600D02*
X185293100Y-140712350D01*
X184975600Y-135791100D02*
X186721850Y-135791100D01*
X186721850Y-135791100D02*
X186721850Y-139283600D01*
X174180600Y-135689500D02*
X174180600Y-134997350D01*
X174974350Y-134203600D02*
X184975600Y-134203600D01*
X174180600Y-134997350D02*
X174974350Y-134203600D01*
X184975600Y-138331100D02*
X184499350Y-138807350D01*
X184499350Y-138807350D02*
X184181850Y-138807350D01*
X184181850Y-138807350D02*
X184090600Y-138936100D01*
X181959350Y-140712350D02*
X177355600Y-145316100D01*
X184975600Y-135791100D02*
X184975600Y-138331100D01*
%TO.N,N$62*%
X184023100Y-138172350D02*
X184090600Y-138096100D01*
X183546850Y-138172350D02*
X184023100Y-138172350D01*
X175450600Y-136267350D02*
X178149350Y-138966100D01*
X175450600Y-135689500D02*
X175450600Y-136267350D01*
X179736850Y-138966100D02*
X182753100Y-138966100D01*
X182753100Y-138966100D02*
X183546850Y-138172350D01*
X178149350Y-138966100D02*
X179736850Y-138966100D01*
%TO.N,N$63*%
X184023100Y-137378600D02*
X184090600Y-137296100D01*
X176720600Y-136267350D02*
X178308100Y-137854850D01*
X182118100Y-137854850D02*
X183070600Y-137854850D01*
X183070600Y-137854850D02*
X183546850Y-137378600D01*
X176720600Y-135689500D02*
X176720600Y-136267350D01*
X178308100Y-137854850D02*
X182118100Y-137854850D01*
X182118100Y-137854850D02*
X182118100Y-138013600D01*
X183546850Y-137378600D02*
X184023100Y-137378600D01*
%TO.N,N$64*%
X177990600Y-135689500D02*
X177990600Y-136267350D01*
X182753100Y-136584850D02*
X184023100Y-136584850D01*
X184023100Y-136584850D02*
X184090600Y-136456100D01*
X177990600Y-136267350D02*
X178784350Y-137061100D01*
X178784350Y-137061100D02*
X181006850Y-137061100D01*
X181483100Y-136584850D02*
X182753100Y-136584850D01*
X181006850Y-137061100D02*
X181483100Y-136584850D01*
X182753100Y-136584850D02*
X182753100Y-136902350D01*
%TO.N,N$65*%
X190373100Y-130393600D02*
X189579350Y-131187350D01*
X170529350Y-111661100D02*
X172275600Y-113407350D01*
X167932200Y-111661100D02*
X170529350Y-111661100D01*
X189579350Y-131187350D02*
X179260600Y-131187350D01*
X190373100Y-118487350D02*
X190373100Y-130393600D01*
X177355600Y-118487350D02*
X190373100Y-118487350D01*
X179260600Y-131187350D02*
X179260600Y-129542700D01*
%TO.N,N$66*%
X143859350Y-126266100D02*
X150050600Y-126266100D01*
X135921850Y-138489850D02*
X136239350Y-138807350D01*
X136239350Y-138807350D02*
X138303100Y-138807350D01*
X150050600Y-126266100D02*
X150050600Y-129542700D01*
X141001850Y-129123600D02*
X143859350Y-126266100D01*
X138303100Y-138807350D02*
X138370600Y-138936100D01*
%TO.N,N$67*%
X138779350Y-138013600D02*
X138461850Y-138013600D01*
X148780600Y-126742350D02*
X148780600Y-129542700D01*
X142271850Y-129123600D02*
X144653100Y-126742350D01*
X139255600Y-135791100D02*
X139255600Y-137537350D01*
X144653100Y-126742350D02*
X148780600Y-126742350D01*
X139255600Y-137537350D02*
X138779350Y-138013600D01*
X141319350Y-136426100D02*
X140684350Y-135791100D01*
X140684350Y-135791100D02*
X139255600Y-135791100D01*
X141319350Y-139442350D02*
X141319350Y-136426100D01*
X138461850Y-138013600D02*
X138370600Y-138096100D01*
%TO.N,N$68*%
X141160600Y-144046100D02*
X136874350Y-144046100D01*
X136556850Y-137378600D02*
X138303100Y-137378600D01*
X138303100Y-137378600D02*
X138370600Y-137296100D01*
X147510600Y-127694850D02*
X147510600Y-129542700D01*
X136874350Y-140712350D02*
X137191850Y-140394850D01*
X142430600Y-145316100D02*
X141160600Y-144046100D01*
X136874350Y-144046100D02*
X136874350Y-140712350D01*
X137191850Y-140394850D02*
X146875600Y-140394850D01*
%TO.N,N$69*%
X145923100Y-145316100D02*
X144176850Y-143569850D01*
X138144350Y-136267350D02*
X138303100Y-136426100D01*
X146240600Y-127694850D02*
X146240600Y-129542700D01*
X137191850Y-136267350D02*
X138144350Y-136267350D01*
X145923100Y-145316100D02*
X145986600Y-145316100D01*
X140366850Y-143569850D02*
X138144350Y-141347350D01*
X138303100Y-136426100D02*
X138370600Y-136456100D01*
X144176850Y-143569850D02*
X140366850Y-143569850D01*
%TO.N,N$70*%
X147193100Y-139442350D02*
X146240600Y-139442350D01*
X157988100Y-144522350D02*
X157194350Y-143728600D01*
X149415600Y-141664850D02*
X147193100Y-139442350D01*
X146240600Y-139442350D02*
X146240600Y-135689500D01*
X157194350Y-143728600D02*
X156241850Y-143728600D01*
X149415600Y-145316100D02*
X149415600Y-141664850D01*
X156241850Y-143728600D02*
X156241850Y-138966100D01*
X151003100Y-146903600D02*
X157988100Y-146903600D01*
X149415600Y-145316100D02*
X151003100Y-146903600D01*
X156241850Y-138966100D02*
X156150600Y-138936100D01*
X157988100Y-146903600D02*
X157988100Y-144522350D01*
%TO.N,N$71*%
X155289350Y-138648600D02*
X155765600Y-138172350D01*
X155289350Y-144204850D02*
X155289350Y-138648600D01*
X155765600Y-138172350D02*
X156083100Y-138172350D01*
X157511850Y-144839850D02*
X156876850Y-144204850D01*
X156876850Y-144204850D02*
X155289350Y-144204850D01*
X156083100Y-138172350D02*
X156150600Y-138096100D01*
X152908100Y-144363600D02*
X147510600Y-138966100D01*
X157511850Y-146427350D02*
X157511850Y-144839850D01*
X153066850Y-145316100D02*
X152971600Y-145316100D01*
X154178100Y-146427350D02*
X157511850Y-146427350D01*
X153066850Y-145316100D02*
X154178100Y-146427350D01*
X152908100Y-145316100D02*
X152908100Y-144363600D01*
X147510600Y-138966100D02*
X147510600Y-135689500D01*
X152908100Y-145316100D02*
X152971600Y-145316100D01*
%TO.N,N$72*%
X148780600Y-137537350D02*
X148780600Y-135689500D01*
X155289350Y-137537350D02*
X155368725Y-137616725D01*
X156083100Y-137378600D02*
X156150600Y-137296100D01*
X155289350Y-137537350D02*
X148780600Y-137537350D01*
X155606850Y-137378600D02*
X156083100Y-137378600D01*
X154813100Y-145316100D02*
X154813100Y-138172350D01*
X156400600Y-145316100D02*
X154813100Y-145316100D01*
X154813100Y-138172350D02*
X155368725Y-137616725D01*
X155368725Y-137616725D02*
X155606850Y-137378600D01*
%TO.N,N$73*%
X156241850Y-136584850D02*
X157035600Y-136584850D01*
X150844350Y-137061100D02*
X153066850Y-137061100D01*
X150050600Y-135689500D02*
X150050600Y-136267350D01*
X150050600Y-136267350D02*
X150844350Y-137061100D01*
X157035600Y-136584850D02*
X157035600Y-139283600D01*
X157035600Y-139283600D02*
X158146850Y-140394850D01*
X159893100Y-145316100D02*
X159956600Y-145316100D01*
X156241850Y-136584850D02*
X156150600Y-136456100D01*
X158146850Y-140394850D02*
X159893100Y-140394850D01*
X153066850Y-137061100D02*
X153543100Y-136584850D01*
X156083100Y-136584850D02*
X156150600Y-136456100D01*
X159893100Y-140394850D02*
X159893100Y-145316100D01*
X153543100Y-136584850D02*
X156083100Y-136584850D01*
%TO.N,N$74*%
X151320600Y-127853600D02*
X151320600Y-129542700D01*
X179419350Y-127853600D02*
X151320600Y-127853600D01*
X180530600Y-129542700D02*
X180530600Y-128964850D01*
X180530600Y-128964850D02*
X179419350Y-127853600D01*
%TO.N,N$75*%
X110363100Y-140553600D02*
X110363100Y-138966100D01*
X119729350Y-132774850D02*
X122110600Y-132774850D01*
X122110600Y-132774850D02*
X122110600Y-129542700D01*
X108299350Y-144522350D02*
X110363100Y-144522350D01*
X110363100Y-144522350D02*
X110363100Y-140553600D01*
X110363100Y-140553600D02*
X111950600Y-140553600D01*
X110363100Y-138966100D02*
X110430600Y-138936100D01*
X107505600Y-145316100D02*
X108299350Y-144522350D01*
%TO.N,N$76*%
X112426850Y-139601100D02*
X112347475Y-139680475D01*
X111315600Y-139601100D02*
X111315600Y-138648600D01*
X115443100Y-133251100D02*
X117983100Y-133251100D01*
X110839350Y-138172350D02*
X110521850Y-138172350D01*
X112426850Y-139601100D02*
X113220600Y-139601100D01*
X110521850Y-138172350D02*
X110430600Y-138096100D01*
X120840600Y-131822350D02*
X120840600Y-129542700D01*
X113220600Y-139601100D02*
X113220600Y-135473600D01*
X111061600Y-145316100D02*
X112903100Y-145316100D01*
X119411850Y-131822350D02*
X120840600Y-131822350D01*
X112903100Y-145316100D02*
X112903100Y-140236100D01*
X112903100Y-140236100D02*
X112347475Y-139680475D01*
X113220600Y-135473600D02*
X115443100Y-133251100D01*
X111315600Y-138648600D02*
X110839350Y-138172350D01*
X112347475Y-139680475D02*
X112268100Y-139601100D01*
X112268100Y-139601100D02*
X111315600Y-139601100D01*
X117983100Y-133251100D02*
X119411850Y-131822350D01*
%TO.N,N$77*%
X111315600Y-136743600D02*
X110839350Y-137219850D01*
X110521850Y-137219850D02*
X110430600Y-137296100D01*
X111315600Y-132774850D02*
X111315600Y-136743600D01*
X110363100Y-137378600D02*
X110430600Y-137296100D01*
X110839350Y-137219850D02*
X110521850Y-137219850D01*
X117665600Y-132774850D02*
X111315600Y-132774850D01*
X119570600Y-129542700D02*
X119570600Y-130869850D01*
X119570600Y-130869850D02*
X117665600Y-132774850D01*
X108616850Y-137378600D02*
X108616850Y-139442350D01*
X110363100Y-137378600D02*
X108616850Y-137378600D01*
%TO.N,N$78*%
X116871850Y-146427350D02*
X117983100Y-145316100D01*
X106394350Y-145792350D02*
X107029350Y-146427350D01*
X110521850Y-132298600D02*
X110521850Y-136426100D01*
X107029350Y-146427350D02*
X116871850Y-146427350D01*
X117983100Y-145316100D02*
X118046600Y-145316100D01*
X110363100Y-136584850D02*
X110430600Y-136456100D01*
X110363100Y-136584850D02*
X106394350Y-136584850D01*
X118300600Y-131346100D02*
X117348100Y-132298600D01*
X110521850Y-136426100D02*
X110430600Y-136456100D01*
X117348100Y-132298600D02*
X110521850Y-132298600D01*
X106394350Y-136584850D02*
X106394350Y-145792350D01*
X118300600Y-129542700D02*
X118300600Y-131346100D01*
%TO.N,N$79*%
X126396850Y-140553600D02*
X118300600Y-140553600D01*
X118300600Y-140553600D02*
X118300600Y-135689500D01*
X126396850Y-140553600D02*
X126476225Y-140632975D01*
X121793100Y-145316100D02*
X126476225Y-140632975D01*
X128143100Y-138966100D02*
X128210600Y-138936100D01*
X121475600Y-145316100D02*
X121793100Y-145316100D01*
X126476225Y-140632975D02*
X128143100Y-138966100D01*
%TO.N,N$80*%
X128301850Y-138172350D02*
X128210600Y-138096100D01*
X125126850Y-145316100D02*
X125031600Y-145316100D01*
X128619350Y-138172350D02*
X128301850Y-138172350D01*
X129095600Y-138648600D02*
X128619350Y-138172350D01*
X129095600Y-144204850D02*
X129095600Y-138648600D01*
X122428100Y-139601100D02*
X120999350Y-138172350D01*
X120999350Y-138172350D02*
X119570600Y-138172350D01*
X125126850Y-145316100D02*
X126238100Y-144204850D01*
X126238100Y-144204850D02*
X129095600Y-144204850D01*
X119570600Y-138172350D02*
X119570600Y-135689500D01*
%TO.N,N$81*%
X120840600Y-136267350D02*
X122110600Y-137537350D01*
X127349350Y-137537350D02*
X127508100Y-137378600D01*
X126079350Y-137537350D02*
X126079350Y-137696100D01*
X126079350Y-137537350D02*
X127349350Y-137537350D01*
X128143100Y-137378600D02*
X128210600Y-137296100D01*
X122110600Y-137537350D02*
X126079350Y-137537350D01*
X127508100Y-137378600D02*
X128143100Y-137378600D01*
X120840600Y-135689500D02*
X120840600Y-136267350D01*
%TO.N,N$82*%
X127031850Y-136584850D02*
X128143100Y-136584850D01*
X122904350Y-137061100D02*
X125126850Y-137061100D01*
X128143100Y-136584850D02*
X128210600Y-136456100D01*
X122110600Y-135689500D02*
X122110600Y-136267350D01*
X125126850Y-137061100D02*
X125603100Y-136584850D01*
X125603100Y-136584850D02*
X127031850Y-136584850D01*
X122110600Y-136267350D02*
X122904350Y-137061100D01*
%TO.N,N$83*%
X131476850Y-130076100D02*
X128143100Y-130076100D01*
X127190600Y-131028600D02*
X123380600Y-131028600D01*
X151003100Y-131822350D02*
X144018100Y-131822350D01*
X144018100Y-131822350D02*
X143541850Y-131346100D01*
X123380600Y-131028600D02*
X123380600Y-129542700D01*
X151479350Y-132298600D02*
X151003100Y-131822350D01*
X152590600Y-129599850D02*
X153225600Y-129599850D01*
X143541850Y-131346100D02*
X132746850Y-131346100D01*
X128143100Y-130076100D02*
X127190600Y-131028600D01*
X153225600Y-129599850D02*
X153701850Y-130076100D01*
X152590600Y-129599850D02*
X152590600Y-129542700D01*
X132746850Y-131346100D02*
X131476850Y-130076100D01*
%TO.N,D3*%
X177514350Y-83086100D02*
X177514350Y-79276100D01*
X181006850Y-77688600D02*
X181165600Y-77529850D01*
X160845600Y-85626100D02*
X161956850Y-84514850D01*
X171005600Y-84514850D02*
X172434350Y-83086100D01*
X161956850Y-84514850D02*
X171005600Y-84514850D01*
X172434350Y-83086100D02*
X177514350Y-83086100D01*
X181165600Y-77529850D02*
X181165600Y-77486100D01*
X179101850Y-77688600D02*
X181006850Y-77688600D01*
%TD*%
M02*
