%TF.GenerationSoftware,KiCad,Pcbnew,(6.0.9)*%
%TF.CreationDate,2023-02-21T16:03:54-05:00*%
%TF.ProjectId,CMRI_SMD_72IN_Nano_v1,434d5249-5f53-44d4-945f-3732494e5f4e,rev?*%
%TF.SameCoordinates,Original*%
%TF.FileFunction,Paste,Top*%
%TF.FilePolarity,Positive*%
%FSLAX46Y46*%
G04 Gerber Fmt 4.6, Leading zero omitted, Abs format (unit mm)*
G04 Created by KiCad (PCBNEW (6.0.9)) date 2023-02-21 16:03:54*
%MOMM*%
%LPD*%
G01*
G04 APERTURE LIST*
G04 Aperture macros list*
%AMRoundRect*
0 Rectangle with rounded corners*
0 $1 Rounding radius*
0 $2 $3 $4 $5 $6 $7 $8 $9 X,Y pos of 4 corners*
0 Add a 4 corners polygon primitive as box body*
4,1,4,$2,$3,$4,$5,$6,$7,$8,$9,$2,$3,0*
0 Add four circle primitives for the rounded corners*
1,1,$1+$1,$2,$3*
1,1,$1+$1,$4,$5*
1,1,$1+$1,$6,$7*
1,1,$1+$1,$8,$9*
0 Add four rect primitives between the rounded corners*
20,1,$1+$1,$2,$3,$4,$5,0*
20,1,$1+$1,$4,$5,$6,$7,0*
20,1,$1+$1,$6,$7,$8,$9,0*
20,1,$1+$1,$8,$9,$2,$3,0*%
G04 Aperture macros list end*
%ADD10R,1.800000X1.200000*%
%ADD11R,2.032000X0.660400*%
%ADD12RoundRect,0.152500X-0.297500X-0.152500X0.297500X-0.152500X0.297500X0.152500X-0.297500X0.152500X0*%
%ADD13RoundRect,0.132500X-0.317500X-0.132500X0.317500X-0.132500X0.317500X0.132500X-0.317500X0.132500X0*%
%ADD14RoundRect,0.152500X0.297500X0.152500X-0.297500X0.152500X-0.297500X-0.152500X0.297500X-0.152500X0*%
%ADD15RoundRect,0.132500X0.317500X0.132500X-0.317500X0.132500X-0.317500X-0.132500X0.317500X-0.132500X0*%
%ADD16R,0.600000X2.200000*%
%ADD17RoundRect,0.152500X-0.152500X0.297500X-0.152500X-0.297500X0.152500X-0.297500X0.152500X0.297500X0*%
%ADD18RoundRect,0.132500X-0.132500X0.317500X-0.132500X-0.317500X0.132500X-0.317500X0.132500X0.317500X0*%
%ADD19RoundRect,0.152500X0.152500X-0.297500X0.152500X0.297500X-0.152500X0.297500X-0.152500X-0.297500X0*%
%ADD20RoundRect,0.132500X0.132500X-0.317500X0.132500X0.317500X-0.132500X0.317500X-0.132500X-0.317500X0*%
%ADD21R,1.600000X1.800000*%
%ADD22R,1.800000X1.600000*%
%ADD23R,0.660400X2.032000*%
%ADD24R,0.800000X0.800000*%
G04 APERTURE END LIST*
D10*
%TO.C,R20*%
X157264600Y-104676100D03*
X154266600Y-104676100D03*
%TD*%
D11*
%TO.C,IC7*%
X174079000Y-120551100D03*
X174079000Y-119281100D03*
X174079000Y-118011100D03*
X174079000Y-116741100D03*
X174079000Y-115471100D03*
X174079000Y-114201100D03*
X174079000Y-112931100D03*
X174079000Y-111661100D03*
X167932200Y-111661100D03*
X167932200Y-112931100D03*
X167932200Y-114201100D03*
X167932200Y-115471100D03*
X167932200Y-116741100D03*
X167932200Y-118011100D03*
X167932200Y-119281100D03*
X167932200Y-120551100D03*
%TD*%
D12*
%TO.C,R13*%
X184090600Y-136456100D03*
D13*
X184090600Y-137296100D03*
X184090600Y-138096100D03*
D12*
X184090600Y-138936100D03*
D14*
X185860600Y-138936100D03*
D15*
X185860600Y-138096100D03*
X185860600Y-137296100D03*
D14*
X185860600Y-136456100D03*
%TD*%
D16*
%TO.C,IC11*%
X170370600Y-79336100D03*
X171640600Y-79336100D03*
X172910600Y-79336100D03*
X174180600Y-79336100D03*
X174180600Y-74136100D03*
X172910600Y-74136100D03*
X171640600Y-74136100D03*
X170370600Y-74136100D03*
%TD*%
D17*
%TO.C,R2*%
X118905600Y-111411100D03*
D18*
X118065600Y-111411100D03*
X117265600Y-111411100D03*
D17*
X116425600Y-111411100D03*
D19*
X116425600Y-113181100D03*
D20*
X117265600Y-113181100D03*
X118065600Y-113181100D03*
D19*
X118905600Y-113181100D03*
%TD*%
D17*
%TO.C,R4*%
X118905600Y-87281100D03*
D18*
X118065600Y-87281100D03*
X117265600Y-87281100D03*
D17*
X116425600Y-87281100D03*
D19*
X116425600Y-89051100D03*
D20*
X117265600Y-89051100D03*
X118065600Y-89051100D03*
D19*
X118905600Y-89051100D03*
%TD*%
D21*
%TO.C,C9*%
X172405600Y-104041100D03*
X169605600Y-104041100D03*
%TD*%
D11*
%TO.C,IC2*%
X124752200Y-90071100D03*
X124752200Y-91341100D03*
X124752200Y-92611100D03*
X124752200Y-93881100D03*
X124752200Y-95151100D03*
X124752200Y-96421100D03*
X124752200Y-97691100D03*
X124752200Y-98961100D03*
X130899000Y-98961100D03*
X130899000Y-97691100D03*
X130899000Y-96421100D03*
X130899000Y-95151100D03*
X130899000Y-93881100D03*
X130899000Y-92611100D03*
X130899000Y-91341100D03*
X130899000Y-90071100D03*
%TD*%
D12*
%TO.C,R6*%
X129480600Y-71686100D03*
D13*
X129480600Y-72526100D03*
X129480600Y-73326100D03*
D12*
X129480600Y-74166100D03*
D14*
X131250600Y-74166100D03*
D15*
X131250600Y-73326100D03*
X131250600Y-72526100D03*
D14*
X131250600Y-71686100D03*
%TD*%
D22*
%TO.C,C5*%
X106870600Y-74326100D03*
X106870600Y-71526100D03*
%TD*%
D17*
%TO.C,R1*%
X118905600Y-122841100D03*
D18*
X118065600Y-122841100D03*
X117265600Y-122841100D03*
D17*
X116425600Y-122841100D03*
D19*
X116425600Y-124611100D03*
D20*
X117265600Y-124611100D03*
X118065600Y-124611100D03*
D19*
X118905600Y-124611100D03*
%TD*%
D17*
%TO.C,R3*%
X118905600Y-98711100D03*
D18*
X118065600Y-98711100D03*
X117265600Y-98711100D03*
D17*
X116425600Y-98711100D03*
D19*
X116425600Y-100481100D03*
D20*
X117265600Y-100481100D03*
X118065600Y-100481100D03*
D19*
X118905600Y-100481100D03*
%TD*%
D22*
%TO.C,C2*%
X161480600Y-132746100D03*
X161480600Y-129946100D03*
%TD*%
D21*
%TO.C,C4*%
X157165600Y-96421100D03*
X154365600Y-96421100D03*
%TD*%
%TO.C,C3*%
X126425600Y-105311100D03*
X129225600Y-105311100D03*
%TD*%
D19*
%TO.C,R12*%
X178655600Y-125881100D03*
D20*
X179495600Y-125881100D03*
X180295600Y-125881100D03*
D19*
X181135600Y-125881100D03*
D17*
X181135600Y-124111100D03*
D18*
X180295600Y-124111100D03*
X179495600Y-124111100D03*
D17*
X178655600Y-124111100D03*
%TD*%
D19*
%TO.C,R9*%
X178655600Y-82701100D03*
D20*
X179495600Y-82701100D03*
X180295600Y-82701100D03*
D19*
X181135600Y-82701100D03*
D17*
X181135600Y-80931100D03*
D18*
X180295600Y-80931100D03*
X179495600Y-80931100D03*
D17*
X178655600Y-80931100D03*
%TD*%
D21*
%TO.C,C7*%
X121345600Y-81181100D03*
X124145600Y-81181100D03*
%TD*%
D12*
%TO.C,R5*%
X110430600Y-71686100D03*
D13*
X110430600Y-72526100D03*
X110430600Y-73326100D03*
D12*
X110430600Y-74166100D03*
D14*
X112200600Y-74166100D03*
D15*
X112200600Y-73326100D03*
X112200600Y-72526100D03*
D14*
X112200600Y-71686100D03*
%TD*%
D12*
%TO.C,R18*%
X110430600Y-136456100D03*
D13*
X110430600Y-137296100D03*
X110430600Y-138096100D03*
D12*
X110430600Y-138936100D03*
D14*
X112200600Y-138936100D03*
D15*
X112200600Y-138096100D03*
X112200600Y-137296100D03*
D14*
X112200600Y-136456100D03*
%TD*%
D22*
%TO.C,C8*%
X164020600Y-78136100D03*
X164020600Y-75336100D03*
%TD*%
D11*
%TO.C,IC1*%
X124752200Y-112931100D03*
X124752200Y-114201100D03*
X124752200Y-115471100D03*
X124752200Y-116741100D03*
X124752200Y-118011100D03*
X124752200Y-119281100D03*
X124752200Y-120551100D03*
X124752200Y-121821100D03*
X130899000Y-121821100D03*
X130899000Y-120551100D03*
X130899000Y-119281100D03*
X130899000Y-118011100D03*
X130899000Y-116741100D03*
X130899000Y-115471100D03*
X130899000Y-114201100D03*
X130899000Y-112931100D03*
%TD*%
D23*
%TO.C,IC9*%
X143700600Y-135689500D03*
X144970600Y-135689500D03*
X146240600Y-135689500D03*
X147510600Y-135689500D03*
X148780600Y-135689500D03*
X150050600Y-135689500D03*
X151320600Y-135689500D03*
X152590600Y-135689500D03*
X152590600Y-129542700D03*
X151320600Y-129542700D03*
X150050600Y-129542700D03*
X148780600Y-129542700D03*
X147510600Y-129542700D03*
X146240600Y-129542700D03*
X144970600Y-129542700D03*
X143700600Y-129542700D03*
%TD*%
D24*
%TO.C,L2*%
X177355600Y-77486100D03*
X177355600Y-75986100D03*
%TD*%
D19*
%TO.C,R10*%
X178655600Y-100481100D03*
D20*
X179495600Y-100481100D03*
X180295600Y-100481100D03*
D19*
X181135600Y-100481100D03*
D17*
X181135600Y-98711100D03*
D18*
X180295600Y-98711100D03*
X179495600Y-98711100D03*
D17*
X178655600Y-98711100D03*
%TD*%
D10*
%TO.C,R19*%
X157264600Y-109756100D03*
X154266600Y-109756100D03*
%TD*%
D23*
%TO.C,IC3*%
X115760600Y-77269500D03*
X117030600Y-77269500D03*
X118300600Y-77269500D03*
X119570600Y-77269500D03*
X120840600Y-77269500D03*
X122110600Y-77269500D03*
X123380600Y-77269500D03*
X124650600Y-77269500D03*
X124650600Y-71122700D03*
X123380600Y-71122700D03*
X122110600Y-71122700D03*
X120840600Y-71122700D03*
X119570600Y-71122700D03*
X118300600Y-71122700D03*
X117030600Y-71122700D03*
X115760600Y-71122700D03*
%TD*%
D24*
%TO.C,L1*%
X181165600Y-77486100D03*
X181165600Y-75986100D03*
%TD*%
D14*
%TO.C,R7*%
X156650600Y-74166100D03*
D15*
X156650600Y-73326100D03*
X156650600Y-72526100D03*
D14*
X156650600Y-71686100D03*
D12*
X154880600Y-71686100D03*
D13*
X154880600Y-72526100D03*
X154880600Y-73326100D03*
D12*
X154880600Y-74166100D03*
%TD*%
%TO.C,R15*%
X156150600Y-136456100D03*
D13*
X156150600Y-137296100D03*
X156150600Y-138096100D03*
D12*
X156150600Y-138936100D03*
D14*
X157920600Y-138936100D03*
D15*
X157920600Y-138096100D03*
X157920600Y-137296100D03*
D14*
X157920600Y-136456100D03*
%TD*%
D21*
%TO.C,C6*%
X146745600Y-82451100D03*
X149545600Y-82451100D03*
%TD*%
D23*
%TO.C,IC10*%
X115760600Y-135689500D03*
X117030600Y-135689500D03*
X118300600Y-135689500D03*
X119570600Y-135689500D03*
X120840600Y-135689500D03*
X122110600Y-135689500D03*
X123380600Y-135689500D03*
X124650600Y-135689500D03*
X124650600Y-129542700D03*
X123380600Y-129542700D03*
X122110600Y-129542700D03*
X120840600Y-129542700D03*
X119570600Y-129542700D03*
X118300600Y-129542700D03*
X117030600Y-129542700D03*
X115760600Y-129542700D03*
%TD*%
D22*
%TO.C,C1*%
X133540600Y-132746100D03*
X133540600Y-129946100D03*
%TD*%
D23*
%TO.C,IC4*%
X142430600Y-77269500D03*
X143700600Y-77269500D03*
X144970600Y-77269500D03*
X146240600Y-77269500D03*
X147510600Y-77269500D03*
X148780600Y-77269500D03*
X150050600Y-77269500D03*
X151320600Y-77269500D03*
X151320600Y-71122700D03*
X150050600Y-71122700D03*
X148780600Y-71122700D03*
X147510600Y-71122700D03*
X146240600Y-71122700D03*
X144970600Y-71122700D03*
X143700600Y-71122700D03*
X142430600Y-71122700D03*
%TD*%
D12*
%TO.C,R8*%
X137100600Y-71686100D03*
D13*
X137100600Y-72526100D03*
X137100600Y-73326100D03*
D12*
X137100600Y-74166100D03*
D14*
X138870600Y-74166100D03*
D15*
X138870600Y-73326100D03*
X138870600Y-72526100D03*
D14*
X138870600Y-71686100D03*
%TD*%
D23*
%TO.C,IC8*%
X171640600Y-135689500D03*
X172910600Y-135689500D03*
X174180600Y-135689500D03*
X175450600Y-135689500D03*
X176720600Y-135689500D03*
X177990600Y-135689500D03*
X179260600Y-135689500D03*
X180530600Y-135689500D03*
X180530600Y-129542700D03*
X179260600Y-129542700D03*
X177990600Y-129542700D03*
X176720600Y-129542700D03*
X175450600Y-129542700D03*
X174180600Y-129542700D03*
X172910600Y-129542700D03*
X171640600Y-129542700D03*
%TD*%
D12*
%TO.C,R16*%
X138370600Y-136456100D03*
D13*
X138370600Y-137296100D03*
X138370600Y-138096100D03*
D12*
X138370600Y-138936100D03*
D14*
X140140600Y-138936100D03*
D15*
X140140600Y-138096100D03*
X140140600Y-137296100D03*
D14*
X140140600Y-136456100D03*
%TD*%
D12*
%TO.C,R14*%
X166310600Y-136456100D03*
D13*
X166310600Y-137296100D03*
X166310600Y-138096100D03*
D12*
X166310600Y-138936100D03*
D14*
X168080600Y-138936100D03*
D15*
X168080600Y-138096100D03*
X168080600Y-137296100D03*
D14*
X168080600Y-136456100D03*
%TD*%
D19*
%TO.C,R11*%
X178655600Y-108101100D03*
D20*
X179495600Y-108101100D03*
X180295600Y-108101100D03*
D19*
X181135600Y-108101100D03*
D17*
X181135600Y-106331100D03*
D18*
X180295600Y-106331100D03*
X179495600Y-106331100D03*
D17*
X178655600Y-106331100D03*
%TD*%
D11*
%TO.C,IC5*%
X174079000Y-95151100D03*
X174079000Y-93881100D03*
X174079000Y-92611100D03*
X174079000Y-91341100D03*
X174079000Y-90071100D03*
X174079000Y-88801100D03*
X174079000Y-87531100D03*
X174079000Y-86261100D03*
X167932200Y-86261100D03*
X167932200Y-87531100D03*
X167932200Y-88801100D03*
X167932200Y-90071100D03*
X167932200Y-91341100D03*
X167932200Y-92611100D03*
X167932200Y-93881100D03*
X167932200Y-95151100D03*
%TD*%
D12*
%TO.C,R17*%
X128210600Y-136456100D03*
D13*
X128210600Y-137296100D03*
X128210600Y-138096100D03*
D12*
X128210600Y-138936100D03*
D14*
X129980600Y-138936100D03*
D15*
X129980600Y-138096100D03*
X129980600Y-137296100D03*
D14*
X129980600Y-136456100D03*
%TD*%
M02*
